Amiamie-Regular Round.ufo
<glyph name="exclam" format="2">
	<advance width="252"/>
	<unicode hex="0021"/>
	<note>
		exclam
	</note>
	<outline>
		<contour>
			<point x="172" y="204"/>
			<point x="173" y="229" type="curve" smooth="yes"/>
			<point x="183" y="637" type="line" smooth="yes"/>
			<point x="184" y="669"/>
			<point x="158" y="695"/>
			<point x="126" y="695" type="curve" smooth="yes"/>
			<point x="93" y="695"/>
			<point x="67" y="669"/>
			<point x="68" y="637" type="curve" smooth="yes"/>
			<point x="78" y="229" type="line" smooth="yes"/>
			<point x="79" y="204"/>
			<point x="100" y="183"/>
			<point x="125" y="183" type="curve" smooth="yes"/>
			<point x="151" y="183"/>
		</contour>
		<contour>
			<point x="88" y="10"/>
			<point x="109" y="-3" type="curve" smooth="yes"/>
			<point x="134" y="-18"/>
			<point x="160" y="-11"/>
			<point x="176" y="13" type="curve" smooth="yes"/>
			<point x="184" y="26"/>
			<point x="189" y="42"/>
			<point x="189" y="59" type="curve" smooth="yes"/>
			<point x="189" y="76"/>
			<point x="184" y="92"/>
			<point x="176" y="105" type="curve" smooth="yes"/>
			<point x="160" y="129"/>
			<point x="134" y="136"/>
			<point x="109" y="121" type="curve" smooth="yes"/>
			<point x="88" y="108"/>
			<point x="74" y="85"/>
			<point x="74" y="59" type="curve" smooth="yes"/>
			<point x="74" y="33"/>
		</contour>
	</outline>
</glyph>
<glyph name="numbersign" format="2">
	<advance width="601"/>
	<unicode hex="0023"/>
	<note>
		numbersign
	</note>
	<outline>
		<contour>
			<point x="401" y="281" type="line"/>
			<point x="428" y="410" type="line"/>
			<point x="503" y="410" type="line" smooth="yes"/>
			<point x="521" y="410"/>
			<point x="536" y="425"/>
			<point x="536" y="443" type="curve" smooth="yes"/>
			<point x="536" y="461"/>
			<point x="521" y="476"/>
			<point x="503" y="476" type="curve" smooth="yes"/>
			<point x="442" y="476" type="line"/>
			<point x="480" y="655" type="line" smooth="yes"/>
			<point x="484" y="676"/>
			<point x="469" y="696"/>
			<point x="447" y="696" type="curve" smooth="yes"/>
			<point x="431" y="696"/>
			<point x="417" y="685"/>
			<point x="414" y="669" type="curve" smooth="yes"/>
			<point x="373" y="476" type="line"/>
			<point x="283" y="476" type="line"/>
			<point x="321" y="655" type="line" smooth="yes"/>
			<point x="325" y="676"/>
			<point x="310" y="696"/>
			<point x="288" y="696" type="curve" smooth="yes"/>
			<point x="272" y="696"/>
			<point x="258" y="685"/>
			<point x="255" y="669" type="curve" smooth="yes"/>
			<point x="214" y="476" type="line"/>
			<point x="128" y="476" type="line" smooth="yes"/>
			<point x="110" y="476"/>
			<point x="95" y="461"/>
			<point x="95" y="443" type="curve" smooth="yes"/>
			<point x="95" y="425"/>
			<point x="110" y="410"/>
			<point x="128" y="410" type="curve" smooth="yes"/>
			<point x="200" y="410" type="line"/>
			<point x="173" y="281" type="line"/>
			<point x="98" y="281" type="line" smooth="yes"/>
			<point x="80" y="281"/>
			<point x="65" y="266"/>
			<point x="65" y="248" type="curve" smooth="yes"/>
			<point x="65" y="230"/>
			<point x="80" y="215"/>
			<point x="98" y="215" type="curve" smooth="yes"/>
			<point x="159" y="215" type="line"/>
			<point x="121" y="35" type="line" smooth="yes"/>
			<point x="117" y="14"/>
			<point x="132" y="-5"/>
			<point x="154" y="-5" type="curve" smooth="yes"/>
			<point x="170" y="-5"/>
			<point x="184" y="5"/>
			<point x="187" y="21" type="curve" smooth="yes"/>
			<point x="228" y="215" type="line"/>
			<point x="318" y="215" type="line"/>
			<point x="280" y="35" type="line" smooth="yes"/>
			<point x="276" y="14"/>
			<point x="291" y="-5"/>
			<point x="313" y="-5" type="curve" smooth="yes"/>
			<point x="329" y="-5"/>
			<point x="343" y="5"/>
			<point x="346" y="21" type="curve" smooth="yes"/>
			<point x="387" y="215" type="line"/>
			<point x="473" y="215" type="line" smooth="yes"/>
			<point x="491" y="215"/>
			<point x="506" y="230"/>
			<point x="506" y="248" type="curve" smooth="yes"/>
			<point x="506" y="266"/>
			<point x="491" y="281"/>
			<point x="473" y="281" type="curve" smooth="yes"/>
		</contour>
		<contour>
			<point x="269" y="410" type="line"/>
			<point x="359" y="410" type="line"/>
			<point x="332" y="281" type="line"/>
			<point x="242" y="281" type="line"/>
		</contour>
	</outline>
</glyph>
<glyph name="dollar" format="2">
	<advance width="601"/>
	<unicode hex="0024"/>
	<note>
		dollar
	</note>
	<outline>
		<contour>
			<point x="549" y="183" type="curve" smooth="yes"/>
			<point x="549" y="291"/>
			<point x="492" y="354"/>
			<point x="340" y="402" type="curve"/>
			<point x="340" y="620" type="line"/>
			<point x="386" y="611"/>
			<point x="412" y="582"/>
			<point x="425" y="537" type="curve" smooth="yes"/>
			<point x="431" y="514"/>
			<point x="452" y="498"/>
			<point x="476" y="498" type="curve" smooth="yes"/>
			<point x="506" y="498"/>
			<point x="529" y="522"/>
			<point x="529" y="552" type="curve" smooth="yes"/>
			<point x="529" y="559"/>
			<point x="528" y="566"/>
			<point x="526" y="572" type="curve" smooth="yes"/>
			<point x="497" y="644"/>
			<point x="436" y="694"/>
			<point x="340" y="703" type="curve"/>
			<point x="340" y="752" type="line" smooth="yes"/>
			<point x="340" y="770"/>
			<point x="325" y="786"/>
			<point x="306" y="786" type="curve" smooth="yes"/>
			<point x="287" y="786"/>
			<point x="272" y="770"/>
			<point x="272" y="752" type="curve" smooth="yes"/>
			<point x="272" y="702" type="line"/>
			<point x="162" y="690"/>
			<point x="76" y="624"/>
			<point x="76" y="506" type="curve" smooth="yes"/>
			<point x="76" y="391"/>
			<point x="151" y="339"/>
			<point x="272" y="303" type="curve"/>
			<point x="272" y="71" type="line"/>
			<point x="222" y="81"/>
			<point x="186" y="110"/>
			<point x="170" y="158" type="curve" smooth="yes"/>
			<point x="163" y="180"/>
			<point x="142" y="196"/>
			<point x="117" y="196" type="curve" smooth="yes"/>
			<point x="87" y="196"/>
			<point x="62" y="171"/>
			<point x="62" y="140" type="curve" smooth="yes"/>
			<point x="62" y="133"/>
			<point x="63" y="126"/>
			<point x="65" y="120" type="curve" smooth="yes"/>
			<point x="96" y="40"/>
			<point x="170" y="-5"/>
			<point x="272" y="-13" type="curve"/>
			<point x="272" y="-61" type="line" smooth="yes"/>
			<point x="272" y="-79"/>
			<point x="287" y="-96"/>
			<point x="306" y="-96" type="curve" smooth="yes"/>
			<point x="325" y="-96"/>
			<point x="340" y="-79"/>
			<point x="340" y="-61" type="curve" smooth="yes"/>
			<point x="340" y="-12" type="line"/>
			<point x="459" y="0"/>
			<point x="549" y="69"/>
		</contour>
		<contour>
			<point x="186" y="520" type="curve" smooth="yes"/>
			<point x="186" y="577"/>
			<point x="219" y="611"/>
			<point x="272" y="620" type="curve"/>
			<point x="272" y="414" type="line"/>
			<point x="214" y="433"/>
			<point x="186" y="461"/>
		</contour>
		<contour>
			<point x="340" y="70" type="curve"/>
			<point x="340" y="289" type="line"/>
			<point x="414" y="263"/>
			<point x="437" y="224"/>
			<point x="437" y="173" type="curve" smooth="yes"/>
			<point x="437" y="110"/>
			<point x="399" y="78"/>
		</contour>
	</outline>
</glyph>
<glyph name="percent" format="2">
	<advance width="751"/>
	<unicode hex="0025"/>
	<note>
		percent
	</note>
	<outline>
		<contour>
			<point x="190" y="701" type="curve" smooth="yes"/>
			<point x="97" y="701"/>
			<point x="39" y="640"/>
			<point x="39" y="540" type="curve" smooth="yes"/>
			<point x="39" y="440"/>
			<point x="97" y="378"/>
			<point x="190" y="378" type="curve" smooth="yes"/>
			<point x="282" y="378"/>
			<point x="341" y="440"/>
			<point x="341" y="540" type="curve" smooth="yes"/>
			<point x="341" y="640"/>
			<point x="282" y="701"/>
		</contour>
		<contour>
			<point x="202" y="2"/>
			<point x="209" y="13" type="curve" smooth="yes"/>
			<point x="612" y="633" type="line" smooth="yes"/>
			<point x="616" y="640"/>
			<point x="619" y="647"/>
			<point x="619" y="655" type="curve" smooth="yes"/>
			<point x="619" y="677"/>
			<point x="601" y="696"/>
			<point x="578" y="696" type="curve" smooth="yes"/>
			<point x="564" y="696"/>
			<point x="552" y="688"/>
			<point x="545" y="677" type="curve" smooth="yes"/>
			<point x="142" y="57" type="line" smooth="yes"/>
			<point x="138" y="50"/>
			<point x="135" y="43"/>
			<point x="135" y="35" type="curve" smooth="yes"/>
			<point x="135" y="13"/>
			<point x="153" y="-5"/>
			<point x="176" y="-5" type="curve" smooth="yes"/>
			<point x="190" y="-5"/>
		</contour>
		<contour>
			<point x="190" y="635" type="curve" smooth="yes"/>
			<point x="227" y="635"/>
			<point x="251" y="602"/>
			<point x="251" y="540" type="curve" smooth="yes"/>
			<point x="251" y="478"/>
			<point x="227" y="444"/>
			<point x="190" y="444" type="curve" smooth="yes"/>
			<point x="152" y="444"/>
			<point x="129" y="478"/>
			<point x="129" y="540" type="curve" smooth="yes"/>
			<point x="129" y="602"/>
			<point x="152" y="635"/>
		</contour>
		<contour>
			<point x="561" y="309" type="curve" smooth="yes"/>
			<point x="469" y="309"/>
			<point x="410" y="248"/>
			<point x="410" y="148" type="curve" smooth="yes"/>
			<point x="410" y="48"/>
			<point x="469" y="-14"/>
			<point x="561" y="-14" type="curve" smooth="yes"/>
			<point x="654" y="-14"/>
			<point x="712" y="48"/>
			<point x="712" y="148" type="curve" smooth="yes"/>
			<point x="712" y="248"/>
			<point x="654" y="309"/>
		</contour>
		<contour>
			<point x="561" y="243" type="curve" smooth="yes"/>
			<point x="599" y="243"/>
			<point x="622" y="210"/>
			<point x="622" y="148" type="curve" smooth="yes"/>
			<point x="622" y="86"/>
			<point x="599" y="52"/>
			<point x="561" y="52" type="curve" smooth="yes"/>
			<point x="524" y="52"/>
			<point x="500" y="86"/>
			<point x="500" y="148" type="curve" smooth="yes"/>
			<point x="500" y="210"/>
			<point x="524" y="243"/>
		</contour>
	</outline>
</glyph>
<glyph name="ampersand" format="2">
	<advance width="663"/>
	<unicode hex="0026"/>
	<note>
		ampersand
	</note>
	<outline>
		<contour>
			<point x="626" y="394"/>
			<point x="602" y="394" type="curve" smooth="yes"/>
			<point x="545" y="394" type="line"/>
			<point x="545" y="448" type="line" smooth="yes"/>
			<point x="545" y="478"/>
			<point x="520" y="503"/>
			<point x="490" y="503" type="curve" smooth="yes"/>
			<point x="460" y="503"/>
			<point x="435" y="478"/>
			<point x="435" y="448" type="curve" smooth="yes"/>
			<point x="435" y="394" type="line"/>
			<point x="386" y="394" type="line" smooth="yes"/>
			<point x="365" y="394"/>
			<point x="343" y="394"/>
			<point x="325" y="395" type="curve" smooth="yes"/>
			<point x="260" y="398"/>
			<point x="210" y="425"/>
			<point x="210" y="508" type="curve" smooth="yes"/>
			<point x="210" y="578"/>
			<point x="257" y="620"/>
			<point x="340" y="620" type="curve" smooth="yes"/>
			<point x="368" y="620"/>
			<point x="391" y="619"/>
			<point x="415" y="617" type="curve" smooth="yes"/>
			<point x="439" y="614"/>
			<point x="462" y="633"/>
			<point x="462" y="658" type="curve" smooth="yes"/>
			<point x="462" y="679"/>
			<point x="446" y="696"/>
			<point x="425" y="699" type="curve" smooth="yes"/>
			<point x="399" y="703"/>
			<point x="373" y="704"/>
			<point x="341" y="704" type="curve" smooth="yes"/>
			<point x="191" y="704"/>
			<point x="91" y="627"/>
			<point x="91" y="507" type="curve" smooth="yes"/>
			<point x="91" y="428"/>
			<point x="144" y="372"/>
			<point x="220" y="352" type="curve"/>
			<point x="121" y="332"/>
			<point x="59" y="262"/>
			<point x="59" y="174" type="curve" smooth="yes"/>
			<point x="59" y="28"/>
			<point x="174" y="-14"/>
			<point x="335" y="-14" type="curve" smooth="yes"/>
			<point x="391" y="-14"/>
			<point x="445" y="-9"/>
			<point x="494" y="-1" type="curve" smooth="yes"/>
			<point x="528" y="5"/>
			<point x="545" y="27"/>
			<point x="545" y="62" type="curve" smooth="yes"/>
			<point x="545" y="306" type="line"/>
			<point x="602" y="306" type="line" smooth="yes"/>
			<point x="626" y="306"/>
			<point x="646" y="326"/>
			<point x="646" y="350" type="curve" smooth="yes"/>
			<point x="646" y="374"/>
		</contour>
		<contour>
			<point x="178" y="190" type="curve" smooth="yes"/>
			<point x="178" y="250"/>
			<point x="221" y="296"/>
			<point x="323" y="305" type="curve" smooth="yes"/>
			<point x="343" y="306"/>
			<point x="360" y="306"/>
			<point x="382" y="306" type="curve" smooth="yes"/>
			<point x="435" y="306" type="line"/>
			<point x="435" y="78" type="line"/>
			<point x="400" y="72"/>
			<point x="375" y="70"/>
			<point x="337" y="70" type="curve" smooth="yes"/>
			<point x="229" y="70"/>
			<point x="178" y="101"/>
		</contour>
	</outline>
</glyph>
<glyph name="parenleft" format="2">
	<advance width="337"/>
	<unicode hex="0028"/>
	<note>
		parenleft
	</note>
	<outline>
		<contour>
			<point x="231" y="780"/>
			<point x="226" y="773" type="curve" smooth="yes"/>
			<point x="150" y="658"/>
			<point x="105" y="510"/>
			<point x="105" y="350" type="curve" smooth="yes"/>
			<point x="105" y="191"/>
			<point x="150" y="42"/>
			<point x="226" y="-73" type="curve" smooth="yes"/>
			<point x="231" y="-80"/>
			<point x="240" y="-86"/>
			<point x="250" y="-86" type="curve" smooth="yes"/>
			<point x="266" y="-86"/>
			<point x="280" y="-72"/>
			<point x="280" y="-56" type="curve" smooth="yes"/>
			<point x="280" y="-51"/>
			<point x="278" y="-47"/>
			<point x="276" y="-43" type="curve" smooth="yes"/>
			<point x="213" y="78"/>
			<point x="178" y="212"/>
			<point x="178" y="350" type="curve" smooth="yes"/>
			<point x="178" y="488"/>
			<point x="213" y="622"/>
			<point x="276" y="743" type="curve" smooth="yes"/>
			<point x="278" y="747"/>
			<point x="280" y="751"/>
			<point x="280" y="756" type="curve" smooth="yes"/>
			<point x="280" y="772"/>
			<point x="266" y="786"/>
			<point x="250" y="786" type="curve" smooth="yes"/>
			<point x="240" y="786"/>
		</contour>
	</outline>
</glyph>
<glyph name="plus" format="2">
	<advance width="601"/>
	<unicode hex="002B"/>
	<note>
		plus
	</note>
	<outline>
		<contour>
			<point x="335" y="284" type="line"/>
			<point x="488" y="284" type="line" smooth="yes"/>
			<point x="505" y="284"/>
			<point x="520" y="298"/>
			<point x="520" y="316" type="curve" smooth="yes"/>
			<point x="520" y="334"/>
			<point x="505" y="348"/>
			<point x="488" y="348" type="curve" smooth="yes"/>
			<point x="335" y="348" type="line"/>
			<point x="335" y="522" type="line" smooth="yes"/>
			<point x="335" y="541"/>
			<point x="320" y="557"/>
			<point x="301" y="557" type="curve" smooth="yes"/>
			<point x="281" y="557"/>
			<point x="266" y="541"/>
			<point x="266" y="522" type="curve" smooth="yes"/>
			<point x="266" y="348" type="line"/>
			<point x="114" y="348" type="line" smooth="yes"/>
			<point x="97" y="348"/>
			<point x="82" y="334"/>
			<point x="82" y="316" type="curve" smooth="yes"/>
			<point x="82" y="298"/>
			<point x="97" y="284"/>
			<point x="114" y="284" type="curve" smooth="yes"/>
			<point x="266" y="284" type="line"/>
			<point x="266" y="112" type="line" smooth="yes"/>
			<point x="266" y="93"/>
			<point x="281" y="78"/>
			<point x="301" y="78" type="curve" smooth="yes"/>
			<point x="320" y="78"/>
			<point x="335" y="93"/>
			<point x="335" y="112" type="curve" smooth="yes"/>
		</contour>
	</outline>
</glyph>
<glyph name="slash" format="2">
	<advance width="314"/>
	<unicode hex="002F"/>
	<note>
		slash
	</note>
	<outline>
		<contour>
			<point x="70" y="-25"/>
			<point x="74" y="-12" type="curve" smooth="yes"/>
			<point x="306" y="680" type="line" smooth="yes"/>
			<point x="307" y="684"/>
			<point x="307" y="687"/>
			<point x="307" y="691" type="curve" smooth="yes"/>
			<point x="307" y="710"/>
			<point x="292" y="725"/>
			<point x="273" y="725" type="curve" smooth="yes"/>
			<point x="257" y="725"/>
			<point x="244" y="715"/>
			<point x="240" y="702" type="curve" smooth="yes"/>
			<point x="8" y="10" type="line" smooth="yes"/>
			<point x="7" y="6"/>
			<point x="7" y="3"/>
			<point x="7" y="-1" type="curve" smooth="yes"/>
			<point x="7" y="-20"/>
			<point x="22" y="-35"/>
			<point x="41" y="-35" type="curve" smooth="yes"/>
			<point x="57" y="-35"/>
		</contour>
	</outline>
</glyph>
<glyph name="three" format="2">
	<advance width="601"/>
	<unicode hex="0033"/>
	<note>
		three
	</note>
	<outline>
		<contour>
			<point x="411" y="366" type="curve"/>
			<point x="489" y="388"/>
			<point x="536" y="447"/>
			<point x="536" y="527" type="curve" smooth="yes"/>
			<point x="536" y="629"/>
			<point x="457" y="704"/>
			<point x="319" y="704" type="curve" smooth="yes"/>
			<point x="187" y="704"/>
			<point x="105" y="638"/>
			<point x="79" y="538" type="curve" smooth="yes"/>
			<point x="72" y="509"/>
			<point x="76" y="483"/>
			<point x="103" y="471" type="curve" smooth="yes"/>
			<point x="112" y="468"/>
			<point x="121" y="466"/>
			<point x="130" y="466" type="curve" smooth="yes"/>
			<point x="141" y="466"/>
			<point x="151" y="470"/>
			<point x="159" y="475" type="curve" smooth="yes"/>
			<point x="177" y="489"/>
			<point x="180" y="508"/>
			<point x="189" y="536" type="curve" smooth="yes"/>
			<point x="208" y="590"/>
			<point x="251" y="620"/>
			<point x="307" y="620" type="curve" smooth="yes"/>
			<point x="374" y="620"/>
			<point x="417" y="577"/>
			<point x="417" y="514" type="curve" smooth="yes"/>
			<point x="417" y="450"/>
			<point x="377" y="408"/>
			<point x="318" y="395" type="curve" smooth="yes"/>
			<point x="292" y="389"/>
			<point x="267" y="391"/>
			<point x="257" y="366" type="curve" smooth="yes"/>
			<point x="255" y="361"/>
			<point x="254" y="356"/>
			<point x="254" y="350" type="curve" smooth="yes"/>
			<point x="254" y="341"/>
			<point x="257" y="332"/>
			<point x="262" y="325" type="curve" smooth="yes"/>
			<point x="273" y="310"/>
			<point x="293" y="310"/>
			<point x="321" y="306" type="curve" smooth="yes"/>
			<point x="396" y="296"/>
			<point x="433" y="256"/>
			<point x="433" y="190" type="curve" smooth="yes"/>
			<point x="433" y="116"/>
			<point x="378" y="70"/>
			<point x="299" y="70" type="curve" smooth="yes"/>
			<point x="234" y="70"/>
			<point x="182" y="100"/>
			<point x="161" y="160" type="curve" smooth="yes"/>
			<point x="152" y="187"/>
			<point x="149" y="211"/>
			<point x="122" y="220" type="curve" smooth="yes"/>
			<point x="116" y="222"/>
			<point x="109" y="223"/>
			<point x="102" y="223" type="curve" smooth="yes"/>
			<point x="91" y="223"/>
			<point x="80" y="221"/>
			<point x="69" y="217" type="curve" smooth="yes"/>
			<point x="48" y="209"/>
			<point x="43" y="185"/>
			<point x="50" y="154" type="curve" smooth="yes"/>
			<point x="79" y="39"/>
			<point x="167" y="-14"/>
			<point x="294" y="-14" type="curve" smooth="yes"/>
			<point x="438" y="-14"/>
			<point x="552" y="66"/>
			<point x="552" y="195" type="curve" smooth="yes"/>
			<point x="552" y="286"/>
			<point x="500" y="344"/>
		</contour>
	</outline>
</glyph>
<glyph name="four" format="2">
	<advance width="601"/>
	<unicode hex="0034"/>
	<note>
		four
	</note>
	<outline>
		<contour>
			<point x="481" y="169" type="line"/>
			<point x="530" y="169" type="line" smooth="yes"/>
			<point x="554" y="169"/>
			<point x="574" y="189"/>
			<point x="574" y="213" type="curve" smooth="yes"/>
			<point x="574" y="237"/>
			<point x="554" y="257"/>
			<point x="530" y="257" type="curve" smooth="yes"/>
			<point x="481" y="257" type="line"/>
			<point x="481" y="623" type="line" smooth="yes"/>
			<point x="481" y="662"/>
			<point x="449" y="696"/>
			<point x="409" y="696" type="curve" smooth="yes"/>
			<point x="385" y="696"/>
			<point x="363" y="684"/>
			<point x="350" y="665" type="curve" smooth="yes"/>
			<point x="36" y="228" type="line" smooth="yes"/>
			<point x="32" y="222"/>
			<point x="28" y="214"/>
			<point x="28" y="206" type="curve" smooth="yes"/>
			<point x="28" y="186"/>
			<point x="46" y="169"/>
			<point x="66" y="169" type="curve" smooth="yes"/>
			<point x="372" y="169" type="line"/>
			<point x="372" y="49" type="line" smooth="yes"/>
			<point x="372" y="19"/>
			<point x="396" y="-6"/>
			<point x="427" y="-6" type="curve" smooth="yes"/>
			<point x="457" y="-6"/>
			<point x="481" y="19"/>
			<point x="481" y="49" type="curve" smooth="yes"/>
		</contour>
		<contour>
			<point x="372" y="556" type="curve"/>
			<point x="372" y="257" type="line"/>
			<point x="163" y="257" type="line"/>
			<point x="320" y="475" type="line" smooth="yes"/>
			<point x="341" y="503"/>
			<point x="357" y="530"/>
		</contour>
	</outline>
</glyph>
<glyph name="six" format="2">
	<advance width="601"/>
	<unicode hex="0036"/>
	<note>
		six
	</note>
	<outline>
		<contour>
			<point x="324" y="465" type="curve" smooth="yes"/>
			<point x="287" y="465"/>
			<point x="257" y="459"/>
			<point x="228" y="443" type="curve" smooth="yes"/>
			<point x="205" y="430"/>
			<point x="194" y="415"/>
			<point x="180" y="392" type="curve" smooth="yes"/>
			<point x="162" y="361" type="line"/>
			<point x="169" y="548"/>
			<point x="227" y="620"/>
			<point x="313" y="620" type="curve" smooth="yes"/>
			<point x="364" y="620"/>
			<point x="398" y="597"/>
			<point x="418" y="551" type="curve" smooth="yes"/>
			<point x="428" y="525"/>
			<point x="434" y="503"/>
			<point x="460" y="494" type="curve" smooth="yes"/>
			<point x="466" y="492"/>
			<point x="473" y="491"/>
			<point x="480" y="491" type="curve" smooth="yes"/>
			<point x="491" y="491"/>
			<point x="504" y="493"/>
			<point x="515" y="496" type="curve" smooth="yes"/>
			<point x="538" y="504"/>
			<point x="544" y="529"/>
			<point x="535" y="559" type="curve" smooth="yes"/>
			<point x="508" y="649"/>
			<point x="431" y="704"/>
			<point x="321" y="704" type="curve" smooth="yes"/>
			<point x="169" y="704"/>
			<point x="46" y="585"/>
			<point x="46" y="317" type="curve" smooth="yes"/>
			<point x="46" y="86"/>
			<point x="137" y="-14"/>
			<point x="299" y="-14" type="curve" smooth="yes"/>
			<point x="440" y="-14"/>
			<point x="552" y="82"/>
			<point x="552" y="235" type="curve" smooth="yes"/>
			<point x="552" y="367"/>
			<point x="471" y="465"/>
		</contour>
		<contour>
			<point x="299" y="70" type="curve" smooth="yes"/>
			<point x="219" y="70"/>
			<point x="168" y="136"/>
			<point x="168" y="224" type="curve" smooth="yes"/>
			<point x="168" y="327"/>
			<point x="228" y="381"/>
			<point x="298" y="381" type="curve" smooth="yes"/>
			<point x="392" y="381"/>
			<point x="433" y="311"/>
			<point x="433" y="222" type="curve" smooth="yes"/>
			<point x="433" y="133"/>
			<point x="379" y="70"/>
		</contour>
	</outline>
</glyph>
<glyph name="eight" format="2">
	<advance width="601"/>
	<unicode hex="0038"/>
	<note>
		eight
	</note>
	<outline>
		<contour>
			<point x="423" y="365" type="curve"/>
			<point x="486" y="387"/>
			<point x="537" y="438"/>
			<point x="537" y="516" type="curve" smooth="yes"/>
			<point x="537" y="630"/>
			<point x="450" y="704"/>
			<point x="307" y="704" type="curve" smooth="yes"/>
			<point x="165" y="704"/>
			<point x="77" y="630"/>
			<point x="77" y="516" type="curve" smooth="yes"/>
			<point x="77" y="439"/>
			<point x="121" y="388"/>
			<point x="182" y="365" type="curve"/>
			<point x="109" y="342"/>
			<point x="46" y="280"/>
			<point x="46" y="194" type="curve" smooth="yes"/>
			<point x="46" y="43"/>
			<point x="159" y="-15"/>
			<point x="300" y="-15" type="curve" smooth="yes"/>
			<point x="431" y="-15"/>
			<point x="555" y="43"/>
			<point x="555" y="194" type="curve" smooth="yes"/>
			<point x="555" y="280"/>
			<point x="495" y="342"/>
		</contour>
		<contour>
			<point x="307" y="620" type="curve" smooth="yes"/>
			<point x="383" y="620"/>
			<point x="422" y="573"/>
			<point x="422" y="512" type="curve" smooth="yes"/>
			<point x="422" y="447"/>
			<point x="381" y="401"/>
			<point x="306" y="401" type="curve" smooth="yes"/>
			<point x="231" y="401"/>
			<point x="192" y="447"/>
			<point x="192" y="512" type="curve" smooth="yes"/>
			<point x="192" y="573"/>
			<point x="232" y="620"/>
		</contour>
		<contour>
			<point x="302" y="69" type="curve" smooth="yes"/>
			<point x="211" y="69"/>
			<point x="164" y="120"/>
			<point x="164" y="193" type="curve" smooth="yes"/>
			<point x="164" y="261"/>
			<point x="208" y="317"/>
			<point x="301" y="317" type="curve" smooth="yes"/>
			<point x="396" y="317"/>
			<point x="436" y="260"/>
			<point x="436" y="193" type="curve" smooth="yes"/>
			<point x="436" y="120"/>
			<point x="394" y="69"/>
		</contour>
	</outline>
</glyph>
<glyph name="nine" format="2">
	<advance width="601"/>
	<unicode hex="0039"/>
	<note>
		nine
	</note>
	<outline>
		<contour>
			<point x="301" y="704" type="curve" smooth="yes"/>
			<point x="160" y="704"/>
			<point x="49" y="608"/>
			<point x="49" y="455" type="curve" smooth="yes"/>
			<point x="49" y="323"/>
			<point x="130" y="225"/>
			<point x="277" y="225" type="curve" smooth="yes"/>
			<point x="313" y="225"/>
			<point x="344" y="231"/>
			<point x="371" y="246" type="curve" smooth="yes"/>
			<point x="395" y="260"/>
			<point x="407" y="276"/>
			<point x="421" y="299" type="curve" smooth="yes"/>
			<point x="439" y="329" type="line"/>
			<point x="432" y="143"/>
			<point x="374" y="70"/>
			<point x="288" y="70" type="curve" smooth="yes"/>
			<point x="236" y="70"/>
			<point x="202" y="93"/>
			<point x="183" y="139" type="curve" smooth="yes"/>
			<point x="172" y="166"/>
			<point x="167" y="188"/>
			<point x="141" y="197" type="curve" smooth="yes"/>
			<point x="135" y="199"/>
			<point x="128" y="200"/>
			<point x="121" y="200" type="curve" smooth="yes"/>
			<point x="110" y="200"/>
			<point x="97" y="198"/>
			<point x="86" y="195" type="curve" smooth="yes"/>
			<point x="63" y="187"/>
			<point x="57" y="162"/>
			<point x="65" y="132" type="curve" smooth="yes"/>
			<point x="91" y="42"/>
			<point x="169" y="-14"/>
			<point x="280" y="-14" type="curve" smooth="yes"/>
			<point x="432" y="-14"/>
			<point x="555" y="105"/>
			<point x="555" y="373" type="curve" smooth="yes"/>
			<point x="555" y="605"/>
			<point x="464" y="704"/>
		</contour>
		<contour>
			<point x="302" y="309" type="curve" smooth="yes"/>
			<point x="209" y="309"/>
			<point x="168" y="380"/>
			<point x="168" y="468" type="curve" smooth="yes"/>
			<point x="168" y="557"/>
			<point x="222" y="620"/>
			<point x="302" y="620" type="curve" smooth="yes"/>
			<point x="381" y="620"/>
			<point x="433" y="554"/>
			<point x="433" y="466" type="curve" smooth="yes"/>
			<point x="433" y="363"/>
			<point x="373" y="309"/>
		</contour>
	</outline>
</glyph>
<glyph name="equal" format="2">
	<advance width="601"/>
	<unicode hex="003D"/>
	<note>
		equal
	</note>
	<outline>
		<contour>
			<point x="109" y="384" type="curve" smooth="yes"/>
			<point x="493" y="384" type="line" smooth="yes"/>
			<point x="510" y="384"/>
			<point x="525" y="398"/>
			<point x="525" y="416" type="curve" smooth="yes"/>
			<point x="525" y="434"/>
			<point x="510" y="448"/>
			<point x="493" y="448" type="curve" smooth="yes"/>
			<point x="109" y="448" type="line" smooth="yes"/>
			<point x="92" y="448"/>
			<point x="77" y="434"/>
			<point x="77" y="416" type="curve" smooth="yes"/>
			<point x="77" y="398"/>
			<point x="92" y="384"/>
		</contour>
		<contour>
			<point x="109" y="184" type="curve" smooth="yes"/>
			<point x="493" y="184" type="line" smooth="yes"/>
			<point x="510" y="184"/>
			<point x="525" y="198"/>
			<point x="525" y="216" type="curve" smooth="yes"/>
			<point x="525" y="234"/>
			<point x="510" y="248"/>
			<point x="493" y="248" type="curve" smooth="yes"/>
			<point x="109" y="248" type="line" smooth="yes"/>
			<point x="92" y="248"/>
			<point x="77" y="234"/>
			<point x="77" y="216" type="curve" smooth="yes"/>
			<point x="77" y="198"/>
			<point x="92" y="184"/>
		</contour>
	</outline>
</glyph>
<glyph name="greater" format="2">
	<advance width="601"/>
	<unicode hex="003E"/>
	<note>
		greater
	</note>
	<outline>
		<contour>
			<point x="477" y="312"/>
			<point x="456" y="322" type="curve" smooth="yes"/>
			<point x="117" y="481" type="line" smooth="yes"/>
			<point x="113" y="483"/>
			<point x="107" y="484"/>
			<point x="101" y="484" type="curve" smooth="yes"/>
			<point x="80" y="484"/>
			<point x="64" y="467"/>
			<point x="64" y="447" type="curve" smooth="yes"/>
			<point x="64" y="431"/>
			<point x="73" y="419"/>
			<point x="86" y="413" type="curve" smooth="yes"/>
			<point x="416" y="264" type="line"/>
			<point x="85" y="115" type="line" smooth="yes"/>
			<point x="73" y="110"/>
			<point x="64" y="97"/>
			<point x="64" y="82" type="curve" smooth="yes"/>
			<point x="64" y="62"/>
			<point x="80" y="46"/>
			<point x="100" y="46" type="curve" smooth="yes"/>
			<point x="105" y="46"/>
			<point x="111" y="47"/>
			<point x="115" y="49" type="curve" smooth="yes"/>
			<point x="456" y="209" type="line" smooth="yes"/>
			<point x="477" y="219"/>
			<point x="492" y="240"/>
			<point x="492" y="265" type="curve" smooth="yes"/>
			<point x="492" y="291"/>
		</contour>
	</outline>
</glyph>
<glyph name="question" format="2">
	<advance width="522"/>
	<unicode hex="003F"/>
	<note>
		question
	</note>
	<outline>
		<contour>
			<point x="269" y="704" type="curve" smooth="yes"/>
			<point x="157" y="704"/>
			<point x="74" y="649"/>
			<point x="45" y="555" type="curve" smooth="yes"/>
			<point x="44" y="550"/>
			<point x="43" y="544"/>
			<point x="43" y="538" type="curve" smooth="yes"/>
			<point x="43" y="508"/>
			<point x="68" y="483"/>
			<point x="98" y="483" type="curve" smooth="yes"/>
			<point x="125" y="483"/>
			<point x="146" y="501"/>
			<point x="152" y="526" type="curve" smooth="yes"/>
			<point x="167" y="589"/>
			<point x="207" y="620"/>
			<point x="264" y="620" type="curve" smooth="yes"/>
			<point x="330" y="620"/>
			<point x="367" y="579"/>
			<point x="367" y="515" type="curve" smooth="yes"/>
			<point x="367" y="461"/>
			<point x="345" y="423"/>
			<point x="278" y="348" type="curve" smooth="yes"/>
			<point x="245" y="310"/>
			<point x="225" y="281"/>
			<point x="214" y="247" type="curve" smooth="yes"/>
			<point x="213" y="243"/>
			<point x="211" y="237"/>
			<point x="211" y="232" type="curve" smooth="yes"/>
			<point x="211" y="204"/>
			<point x="233" y="182"/>
			<point x="261" y="182" type="curve" smooth="yes"/>
			<point x="284" y="182"/>
			<point x="304" y="198"/>
			<point x="309" y="219" type="curve" smooth="yes"/>
			<point x="317" y="253"/>
			<point x="337" y="278"/>
			<point x="381" y="320" type="curve" smooth="yes"/>
			<point x="452" y="388"/>
			<point x="486" y="446"/>
			<point x="486" y="519" type="curve" smooth="yes"/>
			<point x="486" y="627"/>
			<point x="408" y="704"/>
		</contour>
		<contour>
			<point x="212" y="9"/>
			<point x="233" y="-4" type="curve" smooth="yes"/>
			<point x="257" y="-18"/>
			<point x="283" y="-12"/>
			<point x="300" y="10" type="curve" smooth="yes"/>
			<point x="311" y="23"/>
			<point x="317" y="40"/>
			<point x="317" y="59" type="curve" smooth="yes"/>
			<point x="317" y="78"/>
			<point x="311" y="95"/>
			<point x="300" y="108" type="curve" smooth="yes"/>
			<point x="283" y="130"/>
			<point x="257" y="136"/>
			<point x="233" y="122" type="curve" smooth="yes"/>
			<point x="212" y="109"/>
			<point x="197" y="86"/>
			<point x="197" y="59" type="curve" smooth="yes"/>
			<point x="197" y="32"/>
		</contour>
	</outline>
</glyph>
<glyph name="at" format="2">
	<advance width="872"/>
	<unicode hex="0040"/>
	<note>
		at
	</note>
	<outline>
		<contour>
			<point x="596" y="236" type="curve" smooth="yes"/>
			<point x="638" y="413" type="line" smooth="yes"/>
			<point x="645" y="444"/>
			<point x="622" y="472"/>
			<point x="591" y="472" type="curve" smooth="yes"/>
			<point x="569" y="472"/>
			<point x="550" y="458"/>
			<point x="544" y="438" type="curve" smooth="yes"/>
			<point x="534" y="403" type="line"/>
			<point x="529" y="429" type="line" smooth="yes"/>
			<point x="525" y="447"/>
			<point x="518" y="466"/>
			<point x="491" y="476" type="curve" smooth="yes"/>
			<point x="476" y="482"/>
			<point x="458" y="485"/>
			<point x="439" y="485" type="curve" smooth="yes"/>
			<point x="315" y="485"/>
			<point x="229" y="366"/>
			<point x="229" y="232" type="curve" smooth="yes"/>
			<point x="229" y="108"/>
			<point x="303" y="69"/>
			<point x="369" y="69" type="curve" smooth="yes"/>
			<point x="392" y="69"/>
			<point x="413" y="74"/>
			<point x="434" y="85" type="curve" smooth="yes"/>
			<point x="459" y="98"/>
			<point x="471" y="116"/>
			<point x="483" y="140" type="curve" smooth="yes"/>
			<point x="489" y="153" type="line"/>
			<point x="501" y="97"/>
			<point x="544" y="73"/>
			<point x="602" y="73" type="curve" smooth="yes"/>
			<point x="707" y="73"/>
			<point x="815" y="149"/>
			<point x="815" y="336" type="curve" smooth="yes"/>
			<point x="815" y="530"/>
			<point x="683" y="674"/>
			<point x="478" y="674" type="curve" smooth="yes"/>
			<point x="259" y="674"/>
			<point x="52" y="508"/>
			<point x="52" y="245" type="curve" smooth="yes"/>
			<point x="52" y="-1"/>
			<point x="229" y="-112"/>
			<point x="407" y="-112" type="curve" smooth="yes"/>
			<point x="482" y="-112"/>
			<point x="574" y="-93"/>
			<point x="665" y="-39" type="curve" smooth="yes"/>
			<point x="675" y="-33"/>
			<point x="680" y="-23"/>
			<point x="680" y="-12" type="curve" smooth="yes"/>
			<point x="680" y="6"/>
			<point x="666" y="20"/>
			<point x="649" y="20" type="curve" smooth="yes"/>
			<point x="643" y="20"/>
			<point x="637" y="18"/>
			<point x="633" y="15" type="curve" smooth="yes"/>
			<point x="564" y="-25"/>
			<point x="485" y="-44"/>
			<point x="413" y="-44" type="curve" smooth="yes"/>
			<point x="247" y="-44"/>
			<point x="125" y="57"/>
			<point x="125" y="248" type="curve" smooth="yes"/>
			<point x="125" y="476"/>
			<point x="305" y="606"/>
			<point x="475" y="606" type="curve" smooth="yes"/>
			<point x="625" y="606"/>
			<point x="742" y="512"/>
			<point x="742" y="332" type="curve" smooth="yes"/>
			<point x="742" y="203"/>
			<point x="684" y="141"/>
			<point x="627" y="141" type="curve" smooth="yes"/>
			<point x="595" y="141"/>
			<point x="588" y="161"/>
			<point x="588" y="184" type="curve" smooth="yes"/>
			<point x="588" y="195"/>
			<point x="589" y="208"/>
		</contour>
		<contour>
			<point x="507" y="297" type="curve" smooth="yes"/>
			<point x="496" y="250" type="line" smooth="yes"/>
			<point x="484" y="198"/>
			<point x="448" y="149"/>
			<point x="400" y="149" type="curve" smooth="yes"/>
			<point x="366" y="149"/>
			<point x="341" y="173"/>
			<point x="341" y="239" type="curve" smooth="yes"/>
			<point x="341" y="325"/>
			<point x="384" y="405"/>
			<point x="454" y="405" type="curve" smooth="yes"/>
			<point x="496" y="405"/>
			<point x="525" y="376"/>
		</contour>
	</outline>
</glyph>
<glyph name="B" format="2">
	<advance width="641"/>
	<unicode hex="0042"/>
	<note>
		B
	</note>
	<outline>
		<contour>
			<point x="467" y="369" type="curve"/>
			<point x="538" y="393"/>
			<point x="580" y="438"/>
			<point x="580" y="516" type="curve" smooth="yes"/>
			<point x="580" y="612"/>
			<point x="518" y="671"/>
			<point x="408" y="686" type="curve" smooth="yes"/>
			<point x="374" y="690"/>
			<point x="352" y="690"/>
			<point x="318" y="690" type="curve" smooth="yes"/>
			<point x="153" y="690" type="line" smooth="yes"/>
			<point x="116" y="690"/>
			<point x="95" y="669"/>
			<point x="95" y="632" type="curve" smooth="yes"/>
			<point x="95" y="58" type="line" smooth="yes"/>
			<point x="95" y="21"/>
			<point x="116" y="0"/>
			<point x="153" y="0" type="curve" smooth="yes"/>
			<point x="330" y="0" type="line" smooth="yes"/>
			<point x="365" y="0"/>
			<point x="388" y="0"/>
			<point x="422" y="5" type="curve" smooth="yes"/>
			<point x="513" y="18"/>
			<point x="605" y="78"/>
			<point x="605" y="204" type="curve" smooth="yes"/>
			<point x="605" y="296"/>
			<point x="557" y="347"/>
		</contour>
		<contour>
			<point x="205" y="399" type="line"/>
			<point x="205" y="603" type="line"/>
			<point x="318" y="603" type="line" smooth="yes"/>
			<point x="334" y="603"/>
			<point x="354" y="602"/>
			<point x="370" y="600" type="curve" smooth="yes"/>
			<point x="425" y="594"/>
			<point x="464" y="565"/>
			<point x="464" y="504" type="curve" smooth="yes"/>
			<point x="464" y="448"/>
			<point x="438" y="413"/>
			<point x="377" y="403" type="curve" smooth="yes"/>
			<point x="359" y="400"/>
			<point x="342" y="399"/>
			<point x="325" y="399" type="curve" smooth="yes"/>
		</contour>
		<contour>
			<point x="388" y="89" type="curve" smooth="yes"/>
			<point x="375" y="88"/>
			<point x="357" y="88"/>
			<point x="341" y="88" type="curve" smooth="yes"/>
			<point x="205" y="88" type="line"/>
			<point x="205" y="314" type="line"/>
			<point x="335" y="314" type="line" smooth="yes"/>
			<point x="351" y="314"/>
			<point x="367" y="314"/>
			<point x="387" y="311" type="curve" smooth="yes"/>
			<point x="446" y="304"/>
			<point x="489" y="274"/>
			<point x="489" y="199" type="curve" smooth="yes"/>
			<point x="489" y="132"/>
			<point x="445" y="94"/>
		</contour>
	</outline>
</glyph>
<glyph name="I" format="2">
	<advance width="277"/>
	<unicode hex="0049"/>
	<note>
		I
	</note>
	<outline>
		<contour>
			<point x="205" y="20"/>
			<point x="205" y="50" type="curve" smooth="yes"/>
			<point x="205" y="641" type="line" smooth="yes"/>
			<point x="205" y="671"/>
			<point x="180" y="696"/>
			<point x="150" y="696" type="curve" smooth="yes"/>
			<point x="120" y="696"/>
			<point x="95" y="671"/>
			<point x="95" y="641" type="curve" smooth="yes"/>
			<point x="95" y="50" type="line" smooth="yes"/>
			<point x="95" y="20"/>
			<point x="120" y="-6"/>
			<point x="150" y="-6" type="curve" smooth="yes"/>
			<point x="180" y="-6"/>
		</contour>
	</outline>
</glyph>
<glyph name="T" format="2">
	<advance width="617"/>
	<unicode hex="0054"/>
	<note>
		T
	</note>
	<outline>
		<contour>
			<point x="379" y="603" type="line"/>
			<point x="582" y="603" type="line" smooth="yes"/>
			<point x="606" y="603"/>
			<point x="626" y="622"/>
			<point x="626" y="647" type="curve" smooth="yes"/>
			<point x="626" y="671"/>
			<point x="606" y="690"/>
			<point x="582" y="690" type="curve" smooth="yes"/>
			<point x="67" y="690" type="line" smooth="yes"/>
			<point x="43" y="690"/>
			<point x="24" y="671"/>
			<point x="24" y="647" type="curve" smooth="yes"/>
			<point x="24" y="622"/>
			<point x="43" y="603"/>
			<point x="67" y="603" type="curve" smooth="yes"/>
			<point x="270" y="603" type="line"/>
			<point x="270" y="49" type="line" smooth="yes"/>
			<point x="270" y="19"/>
			<point x="294" y="-6"/>
			<point x="325" y="-6" type="curve" smooth="yes"/>
			<point x="355" y="-6"/>
			<point x="379" y="19"/>
			<point x="379" y="49" type="curve" smooth="yes"/>
		</contour>
	</outline>
</glyph>
<glyph name="V" format="2">
	<advance width="652"/>
	<unicode hex="0056"/>
	<note>
		V
	</note>
	<outline>
		<contour>
			<point x="323" y="0" type="curve" smooth="yes"/>
			<point x="366" y="0" type="line" smooth="yes"/>
			<point x="399" y="0"/>
			<point x="421" y="14"/>
			<point x="432" y="46" type="curve" smooth="yes"/>
			<point x="639" y="622" type="line" smooth="yes"/>
			<point x="641" y="627"/>
			<point x="642" y="634"/>
			<point x="642" y="641" type="curve" smooth="yes"/>
			<point x="642" y="671"/>
			<point x="617" y="695"/>
			<point x="587" y="695" type="curve" smooth="yes"/>
			<point x="563" y="695"/>
			<point x="542" y="679"/>
			<point x="535" y="658" type="curve" smooth="yes"/>
			<point x="346" y="84" type="line"/>
			<point x="162" y="657" type="line" smooth="yes"/>
			<point x="155" y="680"/>
			<point x="133" y="695"/>
			<point x="109" y="695" type="curve" smooth="yes"/>
			<point x="78" y="695"/>
			<point x="53" y="671"/>
			<point x="53" y="640" type="curve" smooth="yes"/>
			<point x="53" y="633"/>
			<point x="54" y="626"/>
			<point x="56" y="621" type="curve" smooth="yes"/>
			<point x="257" y="47" type="line" smooth="yes"/>
			<point x="268" y="16"/>
			<point x="290" y="0"/>
		</contour>
	</outline>
</glyph>
<glyph name="Z" format="2">
	<advance width="605"/>
	<unicode hex="005A"/>
	<note>
		Z
	</note>
	<outline>
		<contour>
			<point x="567" y="88"/>
			<point x="543" y="88" type="curve" smooth="yes"/>
			<point x="179" y="88" type="line"/>
			<point x="569" y="595" type="line" smooth="yes"/>
			<point x="576" y="605"/>
			<point x="581" y="618"/>
			<point x="581" y="631" type="curve" smooth="yes"/>
			<point x="581" y="664"/>
			<point x="555" y="690"/>
			<point x="523" y="690" type="curve" smooth="yes"/>
			<point x="114" y="690" type="line" smooth="yes"/>
			<point x="90" y="690"/>
			<point x="71" y="671"/>
			<point x="71" y="647" type="curve" smooth="yes"/>
			<point x="71" y="622"/>
			<point x="90" y="603"/>
			<point x="114" y="603" type="curve" smooth="yes"/>
			<point x="448" y="603" type="line"/>
			<point x="54" y="92" type="line" smooth="yes"/>
			<point x="47" y="82"/>
			<point x="42" y="71"/>
			<point x="42" y="57" type="curve" smooth="yes"/>
			<point x="42" y="26"/>
			<point x="69" y="0"/>
			<point x="100" y="0" type="curve" smooth="yes"/>
			<point x="543" y="0" type="line" smooth="yes"/>
			<point x="567" y="0"/>
			<point x="587" y="20"/>
			<point x="587" y="44" type="curve" smooth="yes"/>
			<point x="587" y="68"/>
		</contour>
	</outline>
</glyph>
<glyph name="bracketright" format="2">
	<advance width="324"/>
	<unicode hex="005D"/>
	<note>
		bracketright
	</note>
	<outline>
		<contour>
			<point x="61" y="-80" type="curve" smooth="yes"/>
			<point x="165" y="-80" type="line" smooth="yes"/>
			<point x="202" y="-80"/>
			<point x="223" y="-59"/>
			<point x="223" y="-22" type="curve" smooth="yes"/>
			<point x="223" y="722" type="line" smooth="yes"/>
			<point x="223" y="759"/>
			<point x="202" y="780"/>
			<point x="165" y="780" type="curve" smooth="yes"/>
			<point x="61" y="780" type="line" smooth="yes"/>
			<point x="43" y="780"/>
			<point x="28" y="765"/>
			<point x="28" y="747" type="curve" smooth="yes"/>
			<point x="28" y="729"/>
			<point x="43" y="714"/>
			<point x="61" y="714" type="curve" smooth="yes"/>
			<point x="155" y="714" type="line"/>
			<point x="155" y="-14" type="line"/>
			<point x="61" y="-14" type="line" smooth="yes"/>
			<point x="43" y="-14"/>
			<point x="28" y="-29"/>
			<point x="28" y="-47" type="curve" smooth="yes"/>
			<point x="28" y="-65"/>
			<point x="43" y="-80"/>
		</contour>
	</outline>
</glyph>
<glyph name="b" format="2">
	<advance width="626"/>
	<unicode hex="0062"/>
	<note>
		b
	</note>
	<outline>
		<contour>
			<point x="358" y="545" type="curve" smooth="yes"/>
			<point x="316" y="545"/>
			<point x="274" y="536"/>
			<point x="243" y="520" type="curve" smooth="yes"/>
			<point x="224" y="511"/>
			<point x="213" y="496"/>
			<point x="198" y="475" type="curve" smooth="yes"/>
			<point x="179" y="448" type="line"/>
			<point x="179" y="686" type="line" smooth="yes"/>
			<point x="179" y="716"/>
			<point x="154" y="741"/>
			<point x="124" y="741" type="curve" smooth="yes"/>
			<point x="94" y="741"/>
			<point x="69" y="716"/>
			<point x="69" y="686" type="curve" smooth="yes"/>
			<point x="69" y="50" type="line" smooth="yes"/>
			<point x="69" y="20"/>
			<point x="94" y="-6"/>
			<point x="124" y="-6" type="curve" smooth="yes"/>
			<point x="154" y="-6"/>
			<point x="179" y="20"/>
			<point x="179" y="50" type="curve" smooth="yes"/>
			<point x="179" y="72" type="line"/>
			<point x="197" y="46" type="line" smooth="yes"/>
			<point x="210" y="26"/>
			<point x="221" y="12"/>
			<point x="246" y="2" type="curve" smooth="yes"/>
			<point x="274" y="-8"/>
			<point x="310" y="-14"/>
			<point x="340" y="-14" type="curve" smooth="yes"/>
			<point x="477" y="-14"/>
			<point x="597" y="80"/>
			<point x="597" y="275" type="curve" smooth="yes"/>
			<point x="597" y="430"/>
			<point x="510" y="545"/>
		</contour>
		<contour>
			<point x="327" y="66" type="curve" smooth="yes"/>
			<point x="257" y="66"/>
			<point x="179" y="114"/>
			<point x="179" y="244" type="curve" smooth="yes"/>
			<point x="179" y="271" type="line" smooth="yes"/>
			<point x="179" y="413"/>
			<point x="250" y="465"/>
			<point x="332" y="465" type="curve" smooth="yes"/>
			<point x="428" y="465"/>
			<point x="481" y="380"/>
			<point x="481" y="265" type="curve" smooth="yes"/>
			<point x="481" y="133"/>
			<point x="415" y="66"/>
		</contour>
	</outline>
</glyph>
<glyph name="i" format="2">
	<advance width="251"/>
	<unicode hex="0069"/>
	<note>
		i
	</note>
	<outline>
		<contour>
			<point x="179" y="20"/>
			<point x="179" y="50" type="curve" smooth="yes"/>
			<point x="179" y="482" type="line" smooth="yes"/>
			<point x="179" y="512"/>
			<point x="154" y="537"/>
			<point x="124" y="537" type="curve" smooth="yes"/>
			<point x="94" y="537"/>
			<point x="69" y="512"/>
			<point x="69" y="482" type="curve" smooth="yes"/>
			<point x="69" y="50" type="line" smooth="yes"/>
			<point x="69" y="20"/>
			<point x="94" y="-6"/>
			<point x="124" y="-6" type="curve" smooth="yes"/>
			<point x="154" y="-6"/>
		</contour>
		<contour>
			<point x="88" y="593"/>
			<point x="120" y="585" type="curve" smooth="yes"/>
			<point x="150" y="577"/>
			<point x="180" y="601"/>
			<point x="180" y="632" type="curve" smooth="yes"/>
			<point x="180" y="673" type="line" smooth="yes"/>
			<point x="180" y="704"/>
			<point x="150" y="728"/>
			<point x="120" y="720" type="curve" smooth="yes"/>
			<point x="88" y="712"/>
			<point x="64" y="686"/>
			<point x="64" y="653" type="curve" smooth="yes"/>
			<point x="64" y="620"/>
		</contour>
	</outline>
</glyph>
<glyph name="j" format="2">
	<advance width="245"/>
	<unicode hex="006A"/>
	<note>
		j
	</note>
	<outline>
		<contour>
			<point x="174" y="-31" type="curve" smooth="yes"/>
			<point x="174" y="482" type="line" smooth="yes"/>
			<point x="174" y="512"/>
			<point x="150" y="537"/>
			<point x="120" y="537" type="curve" smooth="yes"/>
			<point x="89" y="537"/>
			<point x="65" y="512"/>
			<point x="65" y="482" type="curve" smooth="yes"/>
			<point x="65" y="-34" type="line" smooth="yes"/>
			<point x="65" y="-49"/>
			<point x="65" y="-65"/>
			<point x="63" y="-79" type="curve" smooth="yes"/>
			<point x="60" y="-106"/>
			<point x="45" y="-122"/>
			<point x="11" y="-125" type="curve" smooth="yes"/>
			<point x="-10" y="-127"/>
			<point x="-28" y="-145"/>
			<point x="-28" y="-168" type="curve" smooth="yes"/>
			<point x="-28" y="-191"/>
			<point x="-8" y="-210"/>
			<point x="15" y="-210" type="curve" smooth="yes"/>
			<point x="24" y="-210" type="line" smooth="yes"/>
			<point x="124" y="-210"/>
			<point x="165" y="-168"/>
			<point x="172" y="-95" type="curve" smooth="yes"/>
			<point x="173" y="-77"/>
			<point x="174" y="-51"/>
		</contour>
		<contour>
			<point x="83" y="595"/>
			<point x="115" y="587" type="curve" smooth="yes"/>
			<point x="145" y="579"/>
			<point x="175" y="603"/>
			<point x="175" y="634" type="curve" smooth="yes"/>
			<point x="175" y="675" type="line" smooth="yes"/>
			<point x="175" y="706"/>
			<point x="145" y="730"/>
			<point x="115" y="722" type="curve" smooth="yes"/>
			<point x="83" y="714"/>
			<point x="59" y="688"/>
			<point x="59" y="655" type="curve" smooth="yes"/>
			<point x="59" y="622"/>
		</contour>
	</outline>
</glyph>
<glyph name="t" format="2">
	<advance width="335"/>
	<unicode hex="0074"/>
	<note>
		t
	</note>
	<outline>
		<contour>
			<point x="200" y="172" type="curve" smooth="yes"/>
			<point x="200" y="450" type="line"/>
			<point x="271" y="450" type="line" smooth="yes"/>
			<point x="292" y="450"/>
			<point x="310" y="467"/>
			<point x="310" y="489" type="curve" smooth="yes"/>
			<point x="310" y="510"/>
			<point x="292" y="527"/>
			<point x="271" y="527" type="curve" smooth="yes"/>
			<point x="200" y="527" type="line"/>
			<point x="200" y="605" type="line" smooth="yes"/>
			<point x="200" y="635"/>
			<point x="176" y="660"/>
			<point x="146" y="660" type="curve" smooth="yes"/>
			<point x="115" y="660"/>
			<point x="91" y="635"/>
			<point x="91" y="605" type="curve" smooth="yes"/>
			<point x="91" y="527" type="line"/>
			<point x="49" y="527" type="line" smooth="yes"/>
			<point x="28" y="527"/>
			<point x="11" y="510"/>
			<point x="11" y="489" type="curve" smooth="yes"/>
			<point x="11" y="467"/>
			<point x="28" y="450"/>
			<point x="49" y="450" type="curve" smooth="yes"/>
			<point x="91" y="450" type="line"/>
			<point x="91" y="162" type="line" smooth="yes"/>
			<point x="91" y="132"/>
			<point x="91" y="109"/>
			<point x="92" y="91" type="curve" smooth="yes"/>
			<point x="97" y="21"/>
			<point x="133" y="-10"/>
			<point x="216" y="-10" type="curve" smooth="yes"/>
			<point x="233" y="-10"/>
			<point x="249" y="-9"/>
			<point x="267" y="-8" type="curve" smooth="yes"/>
			<point x="287" y="-6"/>
			<point x="303" y="11"/>
			<point x="303" y="31" type="curve" smooth="yes"/>
			<point x="303" y="53"/>
			<point x="285" y="70"/>
			<point x="264" y="70" type="curve" smooth="yes"/>
			<point x="218" y="71"/>
			<point x="204" y="86"/>
			<point x="201" y="128" type="curve" smooth="yes"/>
			<point x="200" y="142"/>
			<point x="200" y="154"/>
		</contour>
	</outline>
</glyph>
<glyph name="u" format="2">
	<advance width="604"/>
	<unicode hex="0075"/>
	<note>
		u
	</note>
	<outline>
		<contour>
			<point x="532" y="49" type="curve" smooth="yes"/>
			<point x="532" y="482" type="line" smooth="yes"/>
			<point x="532" y="512"/>
			<point x="508" y="537"/>
			<point x="478" y="537" type="curve" smooth="yes"/>
			<point x="447" y="537"/>
			<point x="423" y="512"/>
			<point x="423" y="482" type="curve" smooth="yes"/>
			<point x="423" y="281" type="line" smooth="yes"/>
			<point x="423" y="127"/>
			<point x="365" y="68"/>
			<point x="288" y="68" type="curve" smooth="yes"/>
			<point x="220" y="68"/>
			<point x="182" y="106"/>
			<point x="174" y="164" type="curve" smooth="yes"/>
			<point x="171" y="191"/>
			<point x="170" y="220"/>
			<point x="170" y="237" type="curve" smooth="yes"/>
			<point x="170" y="482" type="line" smooth="yes"/>
			<point x="170" y="512"/>
			<point x="146" y="537"/>
			<point x="116" y="537" type="curve" smooth="yes"/>
			<point x="85" y="537"/>
			<point x="61" y="512"/>
			<point x="61" y="482" type="curve" smooth="yes"/>
			<point x="61" y="215" type="line" smooth="yes"/>
			<point x="61" y="172"/>
			<point x="62" y="148"/>
			<point x="66" y="121" type="curve" smooth="yes"/>
			<point x="78" y="48"/>
			<point x="142" y="-14"/>
			<point x="252" y="-14" type="curve" smooth="yes"/>
			<point x="291" y="-14"/>
			<point x="323" y="-9"/>
			<point x="354" y="6" type="curve" smooth="yes"/>
			<point x="378" y="18"/>
			<point x="391" y="34"/>
			<point x="404" y="58" type="curve" smooth="yes"/>
			<point x="423" y="91" type="line"/>
			<point x="423" y="49" type="line" smooth="yes"/>
			<point x="423" y="19"/>
			<point x="447" y="-6"/>
			<point x="478" y="-6" type="curve" smooth="yes"/>
			<point x="508" y="-6"/>
			<point x="532" y="19"/>
		</contour>
	</outline>
</glyph>
<glyph name="braceleft" format="2">
	<advance width="335"/>
	<unicode hex="007B"/>
	<note>
		braceleft
	</note>
	<outline>
		<contour>
			<point x="295" y="727" type="curve" smooth="yes"/>
			<point x="299" y="733"/>
			<point x="301" y="740"/>
			<point x="301" y="747" type="curve" smooth="yes"/>
			<point x="301" y="755"/>
			<point x="298" y="763"/>
			<point x="293" y="769" type="curve" smooth="yes"/>
			<point x="281" y="782"/>
			<point x="262" y="781"/>
			<point x="236" y="778" type="curve" smooth="yes"/>
			<point x="170" y="771"/>
			<point x="136" y="741"/>
			<point x="136" y="672" type="curve" smooth="yes"/>
			<point x="136" y="647"/>
			<point x="138" y="626"/>
			<point x="148" y="560" type="curve" smooth="yes"/>
			<point x="155" y="509"/>
			<point x="158" y="482"/>
			<point x="158" y="455" type="curve" smooth="yes"/>
			<point x="158" y="422"/>
			<point x="145" y="398"/>
			<point x="100" y="388" type="curve" smooth="yes"/>
			<point x="83" y="384"/>
			<point x="70" y="368"/>
			<point x="70" y="350" type="curve" smooth="yes"/>
			<point x="70" y="332"/>
			<point x="83" y="317"/>
			<point x="100" y="313" type="curve" smooth="yes"/>
			<point x="145" y="303"/>
			<point x="158" y="278"/>
			<point x="158" y="245" type="curve" smooth="yes"/>
			<point x="158" y="218"/>
			<point x="155" y="191"/>
			<point x="148" y="140" type="curve" smooth="yes"/>
			<point x="138" y="74"/>
			<point x="136" y="53"/>
			<point x="136" y="29" type="curve" smooth="yes"/>
			<point x="136" y="-41"/>
			<point x="170" y="-71"/>
			<point x="236" y="-78" type="curve" smooth="yes"/>
			<point x="263" y="-81"/>
			<point x="289" y="-82"/>
			<point x="297" y="-58" type="curve" smooth="yes"/>
			<point x="298" y="-54"/>
			<point x="299" y="-51"/>
			<point x="299" y="-47" type="curve" smooth="yes"/>
			<point x="299" y="-40"/>
			<point x="297" y="-33"/>
			<point x="293" y="-27" type="curve" smooth="yes"/>
			<point x="285" y="-15"/>
			<point x="266" y="-17"/>
			<point x="238" y="-10" type="curve" smooth="yes"/>
			<point x="213" y="-4"/>
			<point x="204" y="11"/>
			<point x="204" y="33" type="curve" smooth="yes"/>
			<point x="204" y="54"/>
			<point x="206" y="69"/>
			<point x="215" y="130" type="curve" smooth="yes"/>
			<point x="224" y="194"/>
			<point x="228" y="221"/>
			<point x="228" y="248" type="curve" smooth="yes"/>
			<point x="228" y="305"/>
			<point x="197" y="342"/>
			<point x="143" y="351" type="curve"/>
			<point x="198" y="361"/>
			<point x="228" y="396"/>
			<point x="228" y="452" type="curve" smooth="yes"/>
			<point x="228" y="479"/>
			<point x="224" y="506"/>
			<point x="215" y="570" type="curve" smooth="yes"/>
			<point x="206" y="632"/>
			<point x="204" y="647"/>
			<point x="204" y="667" type="curve" smooth="yes"/>
			<point x="204" y="690"/>
			<point x="213" y="704"/>
			<point x="240" y="711" type="curve" smooth="yes"/>
			<point x="267" y="717"/>
			<point x="286" y="714"/>
		</contour>
	</outline>
</glyph>
<glyph name="bar" format="2">
	<advance width="266"/>
	<unicode hex="007C"/>
	<note>
		bar
	</note>
	<outline>
		<contour>
			<point x="169" y="-188"/>
			<point x="169" y="-169" type="curve" smooth="yes"/>
			<point x="169" y="770" type="line" smooth="yes"/>
			<point x="169" y="789"/>
			<point x="153" y="806"/>
			<point x="133" y="806" type="curve" smooth="yes"/>
			<point x="113" y="806"/>
			<point x="97" y="789"/>
			<point x="97" y="770" type="curve" smooth="yes"/>
			<point x="97" y="-169" type="line" smooth="yes"/>
			<point x="97" y="-188"/>
			<point x="113" y="-206"/>
			<point x="133" y="-206" type="curve" smooth="yes"/>
			<point x="153" y="-206"/>
		</contour>
	</outline>
</glyph>
<glyph name="braceright" format="2">
	<advance width="335"/>
	<unicode hex="007D"/>
	<note>
		braceright
	</note>
	<outline>
		<contour>
			<point x="252" y="384"/>
			<point x="235" y="388" type="curve" smooth="yes"/>
			<point x="190" y="398"/>
			<point x="177" y="422"/>
			<point x="177" y="455" type="curve" smooth="yes"/>
			<point x="177" y="482"/>
			<point x="180" y="509"/>
			<point x="187" y="560" type="curve" smooth="yes"/>
			<point x="197" y="626"/>
			<point x="199" y="647"/>
			<point x="199" y="672" type="curve" smooth="yes"/>
			<point x="199" y="741"/>
			<point x="165" y="771"/>
			<point x="99" y="778" type="curve" smooth="yes"/>
			<point x="72" y="781"/>
			<point x="46" y="782"/>
			<point x="38" y="758" type="curve" smooth="yes"/>
			<point x="37" y="754"/>
			<point x="36" y="751"/>
			<point x="36" y="747" type="curve" smooth="yes"/>
			<point x="36" y="740"/>
			<point x="38" y="733"/>
			<point x="42" y="727" type="curve" smooth="yes"/>
			<point x="50" y="715"/>
			<point x="69" y="717"/>
			<point x="97" y="710" type="curve" smooth="yes"/>
			<point x="122" y="704"/>
			<point x="131" y="689"/>
			<point x="131" y="667" type="curve" smooth="yes"/>
			<point x="131" y="647"/>
			<point x="129" y="632"/>
			<point x="120" y="570" type="curve" smooth="yes"/>
			<point x="111" y="506"/>
			<point x="107" y="479"/>
			<point x="107" y="452" type="curve" smooth="yes"/>
			<point x="107" y="396"/>
			<point x="138" y="358"/>
			<point x="192" y="349" type="curve"/>
			<point x="137" y="340"/>
			<point x="107" y="305"/>
			<point x="107" y="248" type="curve" smooth="yes"/>
			<point x="107" y="221"/>
			<point x="111" y="194"/>
			<point x="120" y="130" type="curve" smooth="yes"/>
			<point x="129" y="69"/>
			<point x="131" y="54"/>
			<point x="131" y="33" type="curve" smooth="yes"/>
			<point x="131" y="10"/>
			<point x="122" y="-4"/>
			<point x="95" y="-11" type="curve" smooth="yes"/>
			<point x="68" y="-17"/>
			<point x="39" y="-15"/>
			<point x="35" y="-41" type="curve" smooth="yes"/>
			<point x="34" y="-43"/>
			<point x="34" y="-45"/>
			<point x="34" y="-47" type="curve" smooth="yes"/>
			<point x="34" y="-55"/>
			<point x="37" y="-63"/>
			<point x="42" y="-69" type="curve" smooth="yes"/>
			<point x="54" y="-82"/>
			<point x="73" y="-81"/>
			<point x="99" y="-78" type="curve" smooth="yes"/>
			<point x="165" y="-71"/>
			<point x="199" y="-41"/>
			<point x="199" y="29" type="curve" smooth="yes"/>
			<point x="199" y="53"/>
			<point x="197" y="74"/>
			<point x="187" y="140" type="curve" smooth="yes"/>
			<point x="180" y="191"/>
			<point x="177" y="218"/>
			<point x="177" y="245" type="curve" smooth="yes"/>
			<point x="177" y="278"/>
			<point x="190" y="303"/>
			<point x="235" y="313" type="curve" smooth="yes"/>
			<point x="252" y="317"/>
			<point x="265" y="332"/>
			<point x="265" y="350" type="curve" smooth="yes"/>
			<point x="265" y="368"/>
		</contour>
	</outline>
</glyph>
<glyph name="asciitilde" format="2">
	<advance width="601"/>
	<unicode hex="007E"/>
	<note>
		asciitilde
	</note>
	<outline>
		<contour>
			<point x="456" y="362"/>
			<point x="454" y="345" type="curve" smooth="yes"/>
			<point x="449" y="310"/>
			<point x="436" y="293"/>
			<point x="407" y="293" type="curve" smooth="yes"/>
			<point x="380" y="293"/>
			<point x="353" y="307"/>
			<point x="314" y="328" type="curve" smooth="yes"/>
			<point x="263" y="355"/>
			<point x="236" y="369"/>
			<point x="195" y="369" type="curve" smooth="yes"/>
			<point x="128" y="369"/>
			<point x="90" y="331"/>
			<point x="82" y="254" type="curve" smooth="yes"/>
			<point x="80" y="236"/>
			<point x="94" y="217"/>
			<point x="115" y="217" type="curve" smooth="yes"/>
			<point x="132" y="217"/>
			<point x="145" y="230"/>
			<point x="147" y="247" type="curve" smooth="yes"/>
			<point x="151" y="281"/>
			<point x="164" y="299"/>
			<point x="194" y="299" type="curve" smooth="yes"/>
			<point x="220" y="299"/>
			<point x="246" y="286"/>
			<point x="287" y="264" type="curve" smooth="yes"/>
			<point x="338" y="237"/>
			<point x="365" y="223"/>
			<point x="405" y="223" type="curve" smooth="yes"/>
			<point x="472" y="223"/>
			<point x="510" y="261"/>
			<point x="519" y="338" type="curve" smooth="yes"/>
			<point x="521" y="356"/>
			<point x="507" y="375"/>
			<point x="486" y="375" type="curve" smooth="yes"/>
			<point x="469" y="375"/>
		</contour>
	</outline>
</glyph>
<glyph name="registered" format="2">
	<advance width="503"/>
	<unicode hex="00AE"/>
	<note>
		registered
	</note>
	<outline>
		<contour>
			<point x="251" y="764" type="curve" smooth="yes"/>
			<point x="128" y="764"/>
			<point x="41" y="677"/>
			<point x="41" y="554" type="curve" smooth="yes"/>
			<point x="41" y="431"/>
			<point x="128" y="344"/>
			<point x="251" y="344" type="curve" smooth="yes"/>
			<point x="375" y="344"/>
			<point x="461" y="431"/>
			<point x="461" y="554" type="curve" smooth="yes"/>
			<point x="461" y="677"/>
			<point x="375" y="764"/>
		</contour>
		<contour>
			<point x="251" y="393" type="curve" smooth="yes"/>
			<point x="158" y="393"/>
			<point x="92" y="460"/>
			<point x="92" y="554" type="curve" smooth="yes"/>
			<point x="92" y="649"/>
			<point x="158" y="716"/>
			<point x="251" y="716" type="curve" smooth="yes"/>
			<point x="345" y="716"/>
			<point x="410" y="649"/>
			<point x="410" y="554" type="curve" smooth="yes"/>
			<point x="410" y="460"/>
			<point x="345" y="393"/>
		</contour>
		<contour>
			<point x="300" y="554" type="curve"/>
			<point x="323" y="561"/>
			<point x="341" y="577"/>
			<point x="341" y="604" type="curve" smooth="yes"/>
			<point x="341" y="638"/>
			<point x="315" y="656"/>
			<point x="274" y="660" type="curve" smooth="yes"/>
			<point x="267" y="661"/>
			<point x="261" y="661"/>
			<point x="254" y="663" type="curve" smooth="yes"/>
			<point x="248" y="665"/>
			<point x="241" y="667"/>
			<point x="234" y="667" type="curve" smooth="yes"/>
			<point x="201" y="667"/>
			<point x="175" y="640"/>
			<point x="175" y="607" type="curve" smooth="yes"/>
			<point x="175" y="574"/>
			<point x="201" y="548"/>
			<point x="234" y="548" type="curve" smooth="yes"/>
			<point x="267" y="548"/>
			<point x="294" y="574"/>
			<point x="294" y="607" type="curve" smooth="yes"/>
			<point x="294" y="622"/>
			<point x="261" y="617"/>
			<point x="230" y="611" type="curve" smooth="yes"/>
			<point x="194" y="605"/>
			<point x="175" y="588"/>
			<point x="175" y="552" type="curve" smooth="yes"/>
			<point x="175" y="476" type="line" smooth="yes"/>
			<point x="175" y="462"/>
			<point x="187" y="450"/>
			<point x="201" y="450" type="curve" smooth="yes"/>
			<point x="215" y="450"/>
			<point x="227" y="462"/>
			<point x="227" y="476" type="curve" smooth="yes"/>
			<point x="227" y="523" type="line"/>
			<point x="248" y="523" type="line" smooth="yes"/>
			<point x="264" y="523"/>
			<point x="275" y="517"/>
			<point x="277" y="499" type="curve" smooth="yes"/>
			<point x="280" y="473" type="line" smooth="yes"/>
			<point x="282" y="459"/>
			<point x="294" y="449"/>
			<point x="307" y="449" type="curve" smooth="yes"/>
			<point x="325" y="449"/>
			<point x="337" y="465"/>
			<point x="334" y="482" type="curve" smooth="yes"/>
			<point x="333" y="490"/>
			<point x="331" y="499"/>
			<point x="330" y="509" type="curve" smooth="yes"/>
			<point x="328" y="531"/>
			<point x="320" y="549"/>
		</contour>
		<contour>
			<point x="264" y="567" type="curve" smooth="yes"/>
			<point x="258" y="566"/>
			<point x="253" y="566"/>
			<point x="245" y="566" type="curve" smooth="yes"/>
			<point x="227" y="566" type="line"/>
			<point x="227" y="619" type="line"/>
			<point x="245" y="619" type="line" smooth="yes"/>
			<point x="254" y="619"/>
			<point x="258" y="619"/>
			<point x="264" y="618" type="curve" smooth="yes"/>
			<point x="276" y="615"/>
			<point x="284" y="608"/>
			<point x="284" y="593" type="curve" smooth="yes"/>
			<point x="284" y="579"/>
			<point x="278" y="570"/>
		</contour>
	</outline>
</glyph>
<glyph name="macron" format="2">
	<advance width="300"/>
	<unicode hex="00AF"/>
	<note>
		macron
	</note>
	<outline>
		<contour>
			<point x="49" y="600" type="curve" smooth="yes"/>
			<point x="252" y="600" type="line" smooth="yes"/>
			<point x="269" y="600"/>
			<point x="284" y="614"/>
			<point x="284" y="632" type="curve" smooth="yes"/>
			<point x="284" y="649"/>
			<point x="269" y="663"/>
			<point x="252" y="663" type="curve" smooth="yes"/>
			<point x="49" y="663" type="line" smooth="yes"/>
			<point x="32" y="663"/>
			<point x="18" y="649"/>
			<point x="18" y="632" type="curve" smooth="yes"/>
			<point x="18" y="614"/>
			<point x="32" y="600"/>
		</contour>
	</outline>
</glyph>
<glyph name="periodcentered" format="2">
	<advance width="222"/>
	<unicode hex="00B7"/>
	<note>
		periodcentered
	</note>
	<outline>
		<contour>
			<point x="66" y="232"/>
			<point x="106" y="232" type="curve" smooth="yes"/>
			<point x="118" y="232" type="line" smooth="yes"/>
			<point x="158" y="232"/>
			<point x="191" y="265"/>
			<point x="191" y="305" type="curve" smooth="yes"/>
			<point x="191" y="345"/>
			<point x="158" y="378"/>
			<point x="118" y="378" type="curve" smooth="yes"/>
			<point x="106" y="378" type="line" smooth="yes"/>
			<point x="66" y="378"/>
			<point x="33" y="345"/>
			<point x="33" y="305" type="curve" smooth="yes"/>
			<point x="33" y="265"/>
		</contour>
	</outline>
</glyph>
<glyph name="Atilde" format="2">
	<advance width="656"/>
	<unicode hex="00C3"/>
	<note>
		Atilde
	</note>
	<outline>
		<contour>
			<point x="290" y="771" type="curve" smooth="yes"/>
			<point x="299" y="771"/>
			<point x="310" y="767"/>
			<point x="334" y="759" type="curve" smooth="yes"/>
			<point x="364" y="748"/>
			<point x="380" y="744"/>
			<point x="401" y="744" type="curve" smooth="yes"/>
			<point x="435" y="744"/>
			<point x="455" y="759"/>
			<point x="461" y="806" type="curve" smooth="yes"/>
			<point x="463" y="823"/>
			<point x="451" y="837"/>
			<point x="434" y="837" type="curve" smooth="yes"/>
			<point x="422" y="837"/>
			<point x="411" y="829"/>
			<point x="408" y="818" type="curve" smooth="yes"/>
			<point x="406" y="810"/>
			<point x="401" y="808"/>
			<point x="394" y="808" type="curve" smooth="yes"/>
			<point x="386" y="808"/>
			<point x="374" y="812"/>
			<point x="350" y="820" type="curve" smooth="yes"/>
			<point x="321" y="831"/>
			<point x="305" y="835"/>
			<point x="283" y="835" type="curve" smooth="yes"/>
			<point x="250" y="835"/>
			<point x="229" y="819"/>
			<point x="224" y="773" type="curve" smooth="yes"/>
			<point x="222" y="758"/>
			<point x="234" y="742"/>
			<point x="250" y="742" type="curve" smooth="yes"/>
			<point x="262" y="742"/>
			<point x="273" y="751"/>
			<point x="276" y="761" type="curve" smooth="yes"/>
			<point x="279" y="769"/>
			<point x="284" y="771"/>
		</contour>
		<contour>
			<point x="215" y="228" type="line"/>
			<point x="460" y="228" type="line"/>
			<point x="524" y="33" type="line" smooth="yes"/>
			<point x="531" y="10"/>
			<point x="552" y="-6"/>
			<point x="577" y="-6" type="curve" smooth="yes"/>
			<point x="608" y="-6"/>
			<point x="633" y="20"/>
			<point x="633" y="50" type="curve" smooth="yes"/>
			<point x="633" y="57"/>
			<point x="632" y="64"/>
			<point x="630" y="69" type="curve" smooth="yes"/>
			<point x="429" y="643" type="line" smooth="yes"/>
			<point x="418" y="674"/>
			<point x="396" y="690"/>
			<point x="363" y="690" type="curve" smooth="yes"/>
			<point x="320" y="690" type="line" smooth="yes"/>
			<point x="287" y="690"/>
			<point x="265" y="676"/>
			<point x="254" y="644" type="curve" smooth="yes"/>
			<point x="47" y="68" type="line" smooth="yes"/>
			<point x="45" y="63"/>
			<point x="44" y="56"/>
			<point x="44" y="49" type="curve" smooth="yes"/>
			<point x="44" y="19"/>
			<point x="69" y="-6"/>
			<point x="99" y="-6" type="curve" smooth="yes"/>
			<point x="123" y="-6"/>
			<point x="144" y="11"/>
			<point x="151" y="32" type="curve" smooth="yes"/>
		</contour>
		<contour>
			<point x="431" y="315" type="line"/>
			<point x="244" y="315" type="line"/>
			<point x="340" y="599" type="line"/>
		</contour>
	</outline>
</glyph>
<glyph name="Igrave" format="2">
	<advance width="277"/>
	<unicode hex="00CC"/>
	<note>
		Igrave
	</note>
	<outline>
		<contour>
			<point x="169" y="759"/>
			<point x="168" y="760" type="curve" smooth="yes"/>
			<point x="123" y="821"/>
			<point x="76" y="847"/>
			<point x="69" y="817" type="curve" smooth="yes"/>
			<point x="68" y="814"/>
			<point x="68" y="811"/>
			<point x="68" y="808" type="curve" smooth="yes"/>
			<point x="68" y="799"/>
			<point x="71" y="791"/>
			<point x="77" y="784" type="curve" smooth="yes"/>
			<point x="120" y="739" type="line" smooth="yes"/>
			<point x="125" y="733"/>
			<point x="132" y="731"/>
			<point x="141" y="731" type="curve" smooth="yes"/>
			<point x="157" y="731"/>
			<point x="169" y="743"/>
			<point x="169" y="759" type="curve"/>
			<point x="169" y="759"/>
		</contour>
		<contour>
			<point x="205" y="20"/>
			<point x="205" y="50" type="curve" smooth="yes"/>
			<point x="205" y="641" type="line" smooth="yes"/>
			<point x="205" y="671"/>
			<point x="180" y="696"/>
			<point x="150" y="696" type="curve" smooth="yes"/>
			<point x="120" y="696"/>
			<point x="95" y="671"/>
			<point x="95" y="641" type="curve" smooth="yes"/>
			<point x="95" y="50" type="line" smooth="yes"/>
			<point x="95" y="20"/>
			<point x="120" y="-6"/>
			<point x="150" y="-6" type="curve" smooth="yes"/>
			<point x="180" y="-6"/>
		</contour>
	</outline>
</glyph>
<glyph name="Icircumflex" format="2">
	<advance width="277"/>
	<unicode hex="00CE"/>
	<note>
		Icircumflex
	</note>
	<outline>
		<contour>
			<point x="120" y="737"/>
			<point x="125" y="747" type="curve" smooth="yes"/>
			<point x="150" y="796" type="line"/>
			<point x="166" y="766" type="line" smooth="yes"/>
			<point x="176" y="747"/>
			<point x="216" y="741"/>
			<point x="221" y="780" type="curve" smooth="yes"/>
			<point x="222" y="782"/>
			<point x="222" y="785"/>
			<point x="222" y="787" type="curve" smooth="yes"/>
			<point x="222" y="816"/>
			<point x="199" y="839"/>
			<point x="170" y="839" type="curve" smooth="yes"/>
			<point x="141" y="839"/>
			<point x="118" y="816"/>
			<point x="118" y="787" type="curve" smooth="yes"/>
			<point x="118" y="766"/>
			<point x="126" y="787"/>
			<point x="139" y="808" type="curve" smooth="yes"/>
			<point x="151" y="827"/>
			<point x="158" y="838"/>
			<point x="147" y="838" type="curve" smooth="yes"/>
			<point x="104" y="838"/>
			<point x="68" y="803"/>
			<point x="66" y="761" type="curve" smooth="yes"/>
			<point x="66" y="744"/>
			<point x="80" y="730"/>
			<point x="97" y="730" type="curve" smooth="yes"/>
			<point x="109" y="730"/>
		</contour>
		<contour>
			<point x="95" y="671"/>
			<point x="95" y="641" type="curve" smooth="yes"/>
			<point x="95" y="50" type="line" smooth="yes"/>
			<point x="95" y="20"/>
			<point x="120" y="-6"/>
			<point x="150" y="-6" type="curve" smooth="yes"/>
			<point x="180" y="-6"/>
			<point x="205" y="20"/>
			<point x="205" y="50" type="curve" smooth="yes"/>
			<point x="205" y="641" type="line" smooth="yes"/>
			<point x="205" y="671"/>
			<point x="180" y="696"/>
			<point x="150" y="696" type="curve" smooth="yes"/>
			<point x="120" y="696"/>
		</contour>
	</outline>
</glyph>
<glyph name="Ograve" format="2">
	<advance width="750"/>
	<unicode hex="00D2"/>
	<note>
		Ograve
	</note>
	<outline>
		<contour>
			<point x="309" y="784" type="curve" smooth="yes"/>
			<point x="315" y="778" type="line" smooth="yes"/>
			<point x="341" y="750"/>
			<point x="383" y="743"/>
			<point x="389" y="780" type="curve" smooth="yes"/>
			<point x="390" y="784"/>
			<point x="390" y="787"/>
			<point x="390" y="791" type="curve" smooth="yes"/>
			<point x="390" y="822"/>
			<point x="365" y="841"/>
			<point x="335" y="844" type="curve"/>
			<point x="315" y="844"/>
			<point x="300" y="828"/>
			<point x="300" y="808" type="curve" smooth="yes"/>
			<point x="300" y="799"/>
			<point x="303" y="791"/>
		</contour>
		<contour>
			<point x="382" y="704" type="curve" smooth="yes"/>
			<point x="170" y="704"/>
			<point x="49" y="559"/>
			<point x="49" y="345" type="curve" smooth="yes"/>
			<point x="49" y="132"/>
			<point x="170" y="-14"/>
			<point x="382" y="-14" type="curve" smooth="yes"/>
			<point x="593" y="-14"/>
			<point x="714" y="132"/>
			<point x="714" y="345" type="curve" smooth="yes"/>
			<point x="714" y="559"/>
			<point x="593" y="704"/>
		</contour>
		<contour>
			<point x="382" y="70" type="curve" smooth="yes"/>
			<point x="247" y="70"/>
			<point x="167" y="174"/>
			<point x="167" y="345" type="curve" smooth="yes"/>
			<point x="167" y="517"/>
			<point x="247" y="620"/>
			<point x="382" y="620" type="curve" smooth="yes"/>
			<point x="516" y="620"/>
			<point x="596" y="517"/>
			<point x="596" y="345" type="curve" smooth="yes"/>
			<point x="596" y="174"/>
			<point x="516" y="70"/>
		</contour>
	</outline>
</glyph>
<glyph name="Thorn" format="2">
	<advance width="636"/>
	<unicode hex="00DE"/>
	<note>
		Thorn
	</note>
	<outline>
		<contour>
			<point x="421" y="598" type="curve" smooth="yes"/>
			<point x="389" y="602"/>
			<point x="364" y="602"/>
			<point x="327" y="602" type="curve" smooth="yes"/>
			<point x="205" y="602" type="line"/>
			<point x="205" y="641" type="line" smooth="yes"/>
			<point x="205" y="671"/>
			<point x="180" y="696"/>
			<point x="150" y="696" type="curve" smooth="yes"/>
			<point x="120" y="696"/>
			<point x="95" y="671"/>
			<point x="95" y="641" type="curve" smooth="yes"/>
			<point x="95" y="50" type="line" smooth="yes"/>
			<point x="95" y="20"/>
			<point x="120" y="-6"/>
			<point x="150" y="-6" type="curve" smooth="yes"/>
			<point x="180" y="-6"/>
			<point x="205" y="20"/>
			<point x="205" y="50" type="curve" smooth="yes"/>
			<point x="205" y="202" type="line"/>
			<point x="327" y="202" type="line" smooth="yes"/>
			<point x="364" y="202"/>
			<point x="389" y="202"/>
			<point x="421" y="206" type="curve" smooth="yes"/>
			<point x="521" y="219"/>
			<point x="597" y="285"/>
			<point x="597" y="403" type="curve" smooth="yes"/>
			<point x="597" y="521"/>
			<point x="521" y="585"/>
		</contour>
		<contour>
			<point x="392" y="295" type="curve" smooth="yes"/>
			<point x="374" y="292"/>
			<point x="350" y="291"/>
			<point x="322" y="291" type="curve" smooth="yes"/>
			<point x="205" y="291" type="line"/>
			<point x="205" y="513" type="line"/>
			<point x="322" y="513" type="line" smooth="yes"/>
			<point x="350" y="513"/>
			<point x="374" y="512"/>
			<point x="392" y="509" type="curve" smooth="yes"/>
			<point x="440" y="500"/>
			<point x="481" y="470"/>
			<point x="481" y="402" type="curve" smooth="yes"/>
			<point x="481" y="333"/>
			<point x="440" y="304"/>
		</contour>
	</outline>
</glyph>
<glyph name="atilde" format="2">
	<advance width="545"/>
	<unicode hex="00E3"/>
	<note>
		atilde
	</note>
	<outline>
		<contour>
			<point x="219" y="616" type="curve" smooth="yes"/>
			<point x="228" y="616"/>
			<point x="239" y="613"/>
			<point x="263" y="604" type="curve" smooth="yes"/>
			<point x="293" y="594"/>
			<point x="309" y="590"/>
			<point x="330" y="590" type="curve" smooth="yes"/>
			<point x="364" y="590"/>
			<point x="385" y="605"/>
			<point x="390" y="652" type="curve" smooth="yes"/>
			<point x="392" y="669"/>
			<point x="380" y="683"/>
			<point x="363" y="683" type="curve" smooth="yes"/>
			<point x="351" y="683"/>
			<point x="340" y="675"/>
			<point x="337" y="664" type="curve" smooth="yes"/>
			<point x="335" y="656"/>
			<point x="330" y="654"/>
			<point x="323" y="654" type="curve" smooth="yes"/>
			<point x="315" y="654"/>
			<point x="303" y="657"/>
			<point x="279" y="666" type="curve" smooth="yes"/>
			<point x="250" y="677"/>
			<point x="234" y="680"/>
			<point x="212" y="680" type="curve" smooth="yes"/>
			<point x="179" y="680"/>
			<point x="158" y="665"/>
			<point x="153" y="619" type="curve" smooth="yes"/>
			<point x="151" y="604"/>
			<point x="163" y="588"/>
			<point x="179" y="588" type="curve" smooth="yes"/>
			<point x="191" y="588"/>
			<point x="201" y="595"/>
			<point x="205" y="606" type="curve" smooth="yes"/>
			<point x="208" y="614"/>
			<point x="213" y="616"/>
		</contour>
		<contour>
			<point x="365" y="77" type="line"/>
			<point x="370" y="42" type="line" smooth="yes"/>
			<point x="373" y="16"/>
			<point x="396" y="-6"/>
			<point x="423" y="-6" type="curve" smooth="yes"/>
			<point x="455" y="-6"/>
			<point x="481" y="23"/>
			<point x="478" y="54" type="curve" smooth="yes"/>
			<point x="475" y="85"/>
			<point x="474" y="109"/>
			<point x="474" y="135" type="curve" smooth="yes"/>
			<point x="474" y="322" type="line" smooth="yes"/>
			<point x="474" y="347"/>
			<point x="473" y="375"/>
			<point x="471" y="397" type="curve" smooth="yes"/>
			<point x="462" y="487"/>
			<point x="408" y="545"/>
			<point x="271" y="545" type="curve" smooth="yes"/>
			<point x="177" y="545"/>
			<point x="104" y="505"/>
			<point x="72" y="431" type="curve" smooth="yes"/>
			<point x="69" y="424"/>
			<point x="68" y="418"/>
			<point x="68" y="410" type="curve" smooth="yes"/>
			<point x="68" y="381"/>
			<point x="92" y="357"/>
			<point x="122" y="357" type="curve" smooth="yes"/>
			<point x="146" y="357"/>
			<point x="167" y="373"/>
			<point x="173" y="395" type="curve" smooth="yes"/>
			<point x="186" y="442"/>
			<point x="218" y="465"/>
			<point x="269" y="465" type="curve" smooth="yes"/>
			<point x="332" y="465"/>
			<point x="359" y="435"/>
			<point x="362" y="392" type="curve" smooth="yes"/>
			<point x="364" y="372"/>
			<point x="364" y="354"/>
			<point x="364" y="334" type="curve" smooth="yes"/>
			<point x="364" y="321" type="line"/>
			<point x="330" y="321" type="line" smooth="yes"/>
			<point x="129" y="321"/>
			<point x="35" y="257"/>
			<point x="35" y="139" type="curve" smooth="yes"/>
			<point x="35" y="40"/>
			<point x="112" y="-14"/>
			<point x="206" y="-14" type="curve" smooth="yes"/>
			<point x="241" y="-14"/>
			<point x="274" y="-10"/>
			<point x="304" y="2" type="curve" smooth="yes"/>
			<point x="330" y="12"/>
			<point x="343" y="29"/>
			<point x="355" y="55" type="curve" smooth="yes"/>
		</contour>
		<contour>
			<point x="246" y="66" type="curve" smooth="yes"/>
			<point x="188" y="66"/>
			<point x="151" y="92"/>
			<point x="151" y="148" type="curve" smooth="yes"/>
			<point x="151" y="229"/>
			<point x="235" y="258"/>
			<point x="364" y="248" type="curve"/>
			<point x="364" y="199" type="line" smooth="yes"/>
			<point x="364" y="113"/>
			<point x="315" y="66"/>
		</contour>
	</outline>
</glyph>
<glyph name="ccedilla" format="2">
	<advance width="544"/>
	<unicode hex="00E7"/>
	<note>
		ccedilla
	</note>
	<outline>
		<contour>
			<point x="279" y="66" type="curve" smooth="yes"/>
			<point x="205" y="66"/>
			<point x="145" y="127"/>
			<point x="145" y="271" type="curve" smooth="yes"/>
			<point x="145" y="404"/>
			<point x="206" y="465"/>
			<point x="283" y="465" type="curve" smooth="yes"/>
			<point x="338" y="465"/>
			<point x="377" y="439"/>
			<point x="398" y="378" type="curve" smooth="yes"/>
			<point x="405" y="356"/>
			<point x="425" y="341"/>
			<point x="449" y="341" type="curve" smooth="yes"/>
			<point x="479" y="341"/>
			<point x="503" y="365"/>
			<point x="503" y="395" type="curve" smooth="yes"/>
			<point x="503" y="403"/>
			<point x="502" y="411"/>
			<point x="499" y="417" type="curve" smooth="yes"/>
			<point x="465" y="496"/>
			<point x="390" y="545"/>
			<point x="286" y="545" type="curve" smooth="yes"/>
			<point x="147" y="545"/>
			<point x="29" y="444"/>
			<point x="29" y="263" type="curve" smooth="yes"/>
			<point x="29" y="92"/>
			<point x="114" y="4"/>
			<point x="233" y="-11" type="curve"/>
			<point x="215" y="-46" type="line" smooth="yes"/>
			<point x="204" y="-68"/>
			<point x="223" y="-73"/>
			<point x="264" y="-85" type="curve" smooth="yes"/>
			<point x="284" y="-92"/>
			<point x="293" y="-104"/>
			<point x="293" y="-122" type="curve" smooth="yes"/>
			<point x="293" y="-146"/>
			<point x="273" y="-161"/>
			<point x="231" y="-161" type="curve" smooth="yes"/>
			<point x="221" y="-161"/>
			<point x="211" y="-160"/>
			<point x="200" y="-159" type="curve" smooth="yes"/>
			<point x="185" y="-156"/>
			<point x="171" y="-168"/>
			<point x="171" y="-183" type="curve" smooth="yes"/>
			<point x="171" y="-195"/>
			<point x="181" y="-205"/>
			<point x="192" y="-207" type="curve" smooth="yes"/>
			<point x="204" y="-209"/>
			<point x="216" y="-210"/>
			<point x="229" y="-210" type="curve" smooth="yes"/>
			<point x="307" y="-210"/>
			<point x="363" y="-181"/>
			<point x="363" y="-122" type="curve" smooth="yes"/>
			<point x="363" y="-76"/>
			<point x="334" y="-48"/>
			<point x="279" y="-41" type="curve"/>
			<point x="293" y="-13" type="line"/>
			<point x="382" y="-8"/>
			<point x="451" y="30"/>
			<point x="490" y="105" type="curve" smooth="yes"/>
			<point x="494" y="113"/>
			<point x="495" y="120"/>
			<point x="495" y="129" type="curve" smooth="yes"/>
			<point x="495" y="158"/>
			<point x="472" y="182"/>
			<point x="442" y="182" type="curve" smooth="yes"/>
			<point x="420" y="182"/>
			<point x="400" y="168"/>
			<point x="393" y="148" type="curve" smooth="yes"/>
			<point x="372" y="93"/>
			<point x="332" y="66"/>
		</contour>
	</outline>
</glyph>
<glyph name="edieresis" format="2">
	<advance width="562"/>
	<unicode hex="00EB"/>
	<note>
		edieresis
	</note>
	<outline>
		<contour>
			<point x="526" y="279" type="curve" smooth="yes"/>
			<point x="526" y="429"/>
			<point x="443" y="545"/>
			<point x="289" y="545" type="curve" smooth="yes"/>
			<point x="136" y="545"/>
			<point x="29" y="432"/>
			<point x="29" y="264" type="curve" smooth="yes"/>
			<point x="29" y="76"/>
			<point x="136" y="-14"/>
			<point x="278" y="-14" type="curve" smooth="yes"/>
			<point x="369" y="-14"/>
			<point x="450" y="23"/>
			<point x="493" y="102" type="curve" smooth="yes"/>
			<point x="497" y="110"/>
			<point x="499" y="117"/>
			<point x="499" y="126" type="curve" smooth="yes"/>
			<point x="499" y="155"/>
			<point x="475" y="178"/>
			<point x="447" y="178" type="curve" smooth="yes"/>
			<point x="425" y="178"/>
			<point x="406" y="164"/>
			<point x="399" y="144" type="curve" smooth="yes"/>
			<point x="379" y="93"/>
			<point x="335" y="66"/>
			<point x="282" y="66" type="curve" smooth="yes"/>
			<point x="210" y="66"/>
			<point x="152" y="108"/>
			<point x="143" y="235" type="curve"/>
			<point x="467" y="235" type="line" smooth="yes"/>
			<point x="504" y="235"/>
			<point x="526" y="279"/>
		</contour>
		<contour>
			<point x="285" y="465" type="curve" smooth="yes"/>
			<point x="362" y="465"/>
			<point x="405" y="410"/>
			<point x="413" y="312" type="curve"/>
			<point x="144" y="312" type="line"/>
			<point x="156" y="414"/>
			<point x="210" y="465"/>
		</contour>
		<contour>
			<point x="174" y="580"/>
			<point x="203" y="580" type="curve" smooth="yes"/>
			<point x="217" y="580" type="line" smooth="yes"/>
			<point x="245" y="580"/>
			<point x="269" y="603"/>
			<point x="269" y="631" type="curve" smooth="yes"/>
			<point x="269" y="638"/>
			<point x="267" y="645"/>
			<point x="265" y="650" type="curve" smooth="yes"/>
			<point x="256" y="673"/>
			<point x="235" y="691"/>
			<point x="209" y="691" type="curve" smooth="yes"/>
			<point x="199" y="691"/>
			<point x="190" y="688"/>
			<point x="183" y="684" type="curve" smooth="yes"/>
			<point x="164" y="674"/>
			<point x="150" y="655"/>
			<point x="150" y="633" type="curve" smooth="yes"/>
			<point x="150" y="604"/>
		</contour>
		<contour>
			<point x="329" y="580"/>
			<point x="358" y="580" type="curve" smooth="yes"/>
			<point x="372" y="580" type="line" smooth="yes"/>
			<point x="400" y="580"/>
			<point x="424" y="603"/>
			<point x="424" y="631" type="curve" smooth="yes"/>
			<point x="424" y="638"/>
			<point x="422" y="645"/>
			<point x="420" y="650" type="curve" smooth="yes"/>
			<point x="411" y="673"/>
			<point x="390" y="691"/>
			<point x="364" y="691" type="curve" smooth="yes"/>
			<point x="354" y="691"/>
			<point x="345" y="688"/>
			<point x="338" y="684" type="curve" smooth="yes"/>
			<point x="319" y="674"/>
			<point x="305" y="655"/>
			<point x="305" y="633" type="curve" smooth="yes"/>
			<point x="305" y="604"/>
		</contour>
	</outline>
</glyph>
<glyph name="iacute" format="2">
	<advance width="251"/>
	<unicode hex="00ED"/>
	<note>
		iacute
	</note>
	<outline>
		<contour>
			<point x="150" y="576"/>
			<point x="155" y="582" type="curve" smooth="yes"/>
			<point x="221" y="655" type="line" smooth="yes"/>
			<point x="225" y="659"/>
			<point x="227" y="665"/>
			<point x="227" y="672" type="curve" smooth="yes"/>
			<point x="227" y="687"/>
			<point x="213" y="699"/>
			<point x="198" y="697" type="curve" smooth="yes"/>
			<point x="151" y="691"/>
			<point x="108" y="654"/>
			<point x="104" y="608" type="curve" smooth="yes"/>
			<point x="104" y="602" type="line" smooth="yes"/>
			<point x="104" y="585"/>
			<point x="117" y="572"/>
			<point x="133" y="572" type="curve" smooth="yes"/>
			<point x="142" y="572"/>
		</contour>
		<contour>
			<point x="179" y="20"/>
			<point x="179" y="50" type="curve" smooth="yes"/>
			<point x="179" y="482" type="line" smooth="yes"/>
			<point x="179" y="512"/>
			<point x="154" y="537"/>
			<point x="124" y="537" type="curve" smooth="yes"/>
			<point x="94" y="537"/>
			<point x="69" y="512"/>
			<point x="69" y="482" type="curve" smooth="yes"/>
			<point x="69" y="50" type="line" smooth="yes"/>
			<point x="69" y="20"/>
			<point x="94" y="-6"/>
			<point x="124" y="-6" type="curve" smooth="yes"/>
			<point x="154" y="-6"/>
		</contour>
	</outline>
</glyph>
<glyph name="icircumflex" format="2">
	<advance width="251"/>
	<unicode hex="00EE"/>
	<note>
		icircumflex
	</note>
	<outline>
		<contour>
			<point x="92" y="579"/>
			<point x="97" y="590" type="curve" smooth="yes"/>
			<point x="124" y="643" type="line"/>
			<point x="151" y="590" type="line" smooth="yes"/>
			<point x="156" y="579"/>
			<point x="167" y="573"/>
			<point x="179" y="573" type="curve" smooth="yes"/>
			<point x="197" y="573"/>
			<point x="211" y="587"/>
			<point x="211" y="604" type="curve" smooth="yes"/>
			<point x="211" y="610"/>
			<point x="210" y="616"/>
			<point x="207" y="620" type="curve" smooth="yes"/>
			<point x="188" y="652" type="line" smooth="yes"/>
			<point x="172" y="679"/>
			<point x="153" y="692"/>
			<point x="128" y="692" type="curve" smooth="yes"/>
			<point x="82" y="692"/>
			<point x="42" y="657"/>
			<point x="39" y="611" type="curve"/>
			<point x="38" y="609"/>
			<point x="38" y="606"/>
			<point x="38" y="604" type="curve" smooth="yes"/>
			<point x="38" y="586"/>
			<point x="52" y="573"/>
			<point x="69" y="573" type="curve" smooth="yes"/>
			<point x="81" y="573"/>
		</contour>
		<contour>
			<point x="69" y="512"/>
			<point x="69" y="482" type="curve" smooth="yes"/>
			<point x="69" y="50" type="line" smooth="yes"/>
			<point x="69" y="20"/>
			<point x="94" y="-6"/>
			<point x="124" y="-6" type="curve" smooth="yes"/>
			<point x="154" y="-6"/>
			<point x="179" y="20"/>
			<point x="179" y="50" type="curve" smooth="yes"/>
			<point x="179" y="482" type="line" smooth="yes"/>
			<point x="179" y="512"/>
			<point x="154" y="537"/>
			<point x="124" y="537" type="curve" smooth="yes"/>
			<point x="94" y="537"/>
		</contour>
	</outline>
</glyph>
<glyph name="eth" format="2">
	<advance width="604"/>
	<unicode hex="00F0"/>
	<note>
		eth
	</note>
	<outline>
		<contour>
			<point x="469" y="638" type="curve"/>
			<point x="488" y="644" type="line" smooth="yes"/>
			<point x="500" y="648"/>
			<point x="509" y="660"/>
			<point x="509" y="673" type="curve" smooth="yes"/>
			<point x="509" y="695"/>
			<point x="486" y="708"/>
			<point x="469" y="702" type="curve" smooth="yes"/>
			<point x="421" y="685" type="line"/>
			<point x="398" y="704"/>
			<point x="371" y="720"/>
			<point x="340" y="737" type="curve" smooth="yes"/>
			<point x="334" y="740"/>
			<point x="327" y="742"/>
			<point x="320" y="742" type="curve" smooth="yes"/>
			<point x="296" y="742"/>
			<point x="276" y="722"/>
			<point x="276" y="698" type="curve" smooth="yes"/>
			<point x="276" y="682"/>
			<point x="284" y="668"/>
			<point x="298" y="660" type="curve" smooth="yes"/>
			<point x="305" y="657"/>
			<point x="310" y="654"/>
			<point x="316" y="650" type="curve"/>
			<point x="237" y="623" type="line" smooth="yes"/>
			<point x="226" y="619"/>
			<point x="217" y="608"/>
			<point x="217" y="594" type="curve" smooth="yes"/>
			<point x="217" y="572"/>
			<point x="240" y="560"/>
			<point x="257" y="566" type="curve" smooth="yes"/>
			<point x="370" y="604" type="line"/>
			<point x="406" y="565"/>
			<point x="426" y="516"/>
			<point x="432" y="457" type="curve"/>
			<point x="410" y="487" type="line" smooth="yes"/>
			<point x="394" y="509"/>
			<point x="379" y="522"/>
			<point x="354" y="532" type="curve" smooth="yes"/>
			<point x="330" y="542"/>
			<point x="306" y="545"/>
			<point x="276" y="545" type="curve" smooth="yes"/>
			<point x="144" y="545"/>
			<point x="29" y="440"/>
			<point x="29" y="260" type="curve" smooth="yes"/>
			<point x="29" y="102"/>
			<point x="115" y="-14"/>
			<point x="290" y="-14" type="curve" smooth="yes"/>
			<point x="427" y="-14"/>
			<point x="558" y="72"/>
			<point x="558" y="307" type="curve" smooth="yes"/>
			<point x="558" y="453"/>
			<point x="532" y="560"/>
		</contour>
		<contour>
			<point x="442" y="289" type="curve" smooth="yes"/>
			<point x="442" y="260" type="line" smooth="yes"/>
			<point x="442" y="132"/>
			<point x="379" y="69"/>
			<point x="294" y="69" type="curve" smooth="yes"/>
			<point x="197" y="69"/>
			<point x="146" y="142"/>
			<point x="146" y="267" type="curve" smooth="yes"/>
			<point x="146" y="384"/>
			<point x="204" y="463"/>
			<point x="294" y="463" type="curve" smooth="yes"/>
			<point x="367" y="463"/>
			<point x="442" y="411"/>
		</contour>
	</outline>
</glyph>
<glyph name="ograve" format="2">
	<advance width="595"/>
	<unicode hex="00F2"/>
	<note>
		ograve
	</note>
	<outline>
		<contour>
			<point x="220" y="637" type="curve" smooth="yes"/>
			<point x="269" y="582" type="line" smooth="yes"/>
			<point x="274" y="576"/>
			<point x="282" y="573"/>
			<point x="291" y="573" type="curve" smooth="yes"/>
			<point x="307" y="573"/>
			<point x="320" y="586"/>
			<point x="320" y="602" type="curve" smooth="yes"/>
			<point x="320" y="607"/>
			<point x="318" y="613"/>
			<point x="316" y="617" type="curve" smooth="yes"/>
			<point x="278" y="680" type="line" smooth="yes"/>
			<point x="272" y="691"/>
			<point x="260" y="698"/>
			<point x="247" y="698" type="curve" smooth="yes"/>
			<point x="227" y="698"/>
			<point x="211" y="681"/>
			<point x="211" y="661" type="curve" smooth="yes"/>
			<point x="211" y="652"/>
			<point x="215" y="643"/>
		</contour>
		<contour>
			<point x="298" y="545" type="curve" smooth="yes"/>
			<point x="119" y="545"/>
			<point x="29" y="421"/>
			<point x="29" y="266" type="curve" smooth="yes"/>
			<point x="29" y="111"/>
			<point x="119" y="-14"/>
			<point x="298" y="-14" type="curve" smooth="yes"/>
			<point x="476" y="-14"/>
			<point x="567" y="111"/>
			<point x="567" y="266" type="curve" smooth="yes"/>
			<point x="567" y="421"/>
			<point x="476" y="545"/>
		</contour>
		<contour>
			<point x="298" y="66" type="curve" smooth="yes"/>
			<point x="201" y="66"/>
			<point x="145" y="146"/>
			<point x="145" y="266" type="curve" smooth="yes"/>
			<point x="145" y="386"/>
			<point x="201" y="465"/>
			<point x="298" y="465" type="curve" smooth="yes"/>
			<point x="394" y="465"/>
			<point x="450" y="386"/>
			<point x="450" y="266" type="curve" smooth="yes"/>
			<point x="450" y="146"/>
			<point x="394" y="66"/>
		</contour>
	</outline>
</glyph>
<glyph name="otilde" format="2">
	<advance width="595"/>
	<unicode hex="00F5"/>
	<note>
		otilde
	</note>
	<outline>
		<contour>
			<point x="246" y="616" type="curve" smooth="yes"/>
			<point x="255" y="616"/>
			<point x="266" y="613"/>
			<point x="290" y="604" type="curve" smooth="yes"/>
			<point x="320" y="594"/>
			<point x="336" y="590"/>
			<point x="357" y="590" type="curve" smooth="yes"/>
			<point x="391" y="590"/>
			<point x="412" y="605"/>
			<point x="417" y="652" type="curve" smooth="yes"/>
			<point x="419" y="669"/>
			<point x="407" y="683"/>
			<point x="390" y="683" type="curve" smooth="yes"/>
			<point x="378" y="683"/>
			<point x="367" y="675"/>
			<point x="364" y="664" type="curve" smooth="yes"/>
			<point x="362" y="656"/>
			<point x="357" y="654"/>
			<point x="350" y="654" type="curve" smooth="yes"/>
			<point x="342" y="654"/>
			<point x="330" y="657"/>
			<point x="306" y="666" type="curve" smooth="yes"/>
			<point x="277" y="677"/>
			<point x="261" y="680"/>
			<point x="239" y="680" type="curve" smooth="yes"/>
			<point x="206" y="680"/>
			<point x="185" y="665"/>
			<point x="180" y="619" type="curve" smooth="yes"/>
			<point x="178" y="604"/>
			<point x="190" y="588"/>
			<point x="206" y="588" type="curve" smooth="yes"/>
			<point x="218" y="588"/>
			<point x="228" y="595"/>
			<point x="232" y="606" type="curve" smooth="yes"/>
			<point x="235" y="614"/>
			<point x="240" y="616"/>
		</contour>
		<contour>
			<point x="298" y="545" type="curve" smooth="yes"/>
			<point x="119" y="545"/>
			<point x="29" y="421"/>
			<point x="29" y="266" type="curve" smooth="yes"/>
			<point x="29" y="111"/>
			<point x="119" y="-14"/>
			<point x="298" y="-14" type="curve" smooth="yes"/>
			<point x="476" y="-14"/>
			<point x="567" y="111"/>
			<point x="567" y="266" type="curve" smooth="yes"/>
			<point x="567" y="421"/>
			<point x="476" y="545"/>
		</contour>
		<contour>
			<point x="298" y="66" type="curve" smooth="yes"/>
			<point x="201" y="66"/>
			<point x="145" y="146"/>
			<point x="145" y="266" type="curve" smooth="yes"/>
			<point x="145" y="386"/>
			<point x="201" y="465"/>
			<point x="298" y="465" type="curve" smooth="yes"/>
			<point x="394" y="465"/>
			<point x="450" y="386"/>
			<point x="450" y="266" type="curve" smooth="yes"/>
			<point x="450" y="146"/>
			<point x="394" y="66"/>
		</contour>
	</outline>
</glyph>
<glyph name="oslash" format="2">
	<advance width="625"/>
	<unicode hex="00F8"/>
	<note>
		oslash
	</note>
	<outline>
		<contour>
			<point x="529" y="434" type="curve"/>
			<point x="580" y="485" type="line" smooth="yes"/>
			<point x="586" y="491"/>
			<point x="590" y="500"/>
			<point x="590" y="509" type="curve" smooth="yes"/>
			<point x="590" y="528"/>
			<point x="575" y="543"/>
			<point x="556" y="543" type="curve" smooth="yes"/>
			<point x="547" y="543"/>
			<point x="538" y="539"/>
			<point x="532" y="533" type="curve" smooth="yes"/>
			<point x="484" y="485" type="line"/>
			<point x="441" y="523"/>
			<point x="381" y="545"/>
			<point x="305" y="545" type="curve" smooth="yes"/>
			<point x="127" y="545"/>
			<point x="36" y="421"/>
			<point x="36" y="266" type="curve" smooth="yes"/>
			<point x="36" y="199"/>
			<point x="53" y="137"/>
			<point x="87" y="88" type="curve"/>
			<point x="45" y="46" type="line" smooth="yes"/>
			<point x="39" y="40"/>
			<point x="35" y="31"/>
			<point x="35" y="22" type="curve" smooth="yes"/>
			<point x="35" y="3"/>
			<point x="50" y="-12"/>
			<point x="69" y="-12" type="curve" smooth="yes"/>
			<point x="78" y="-12"/>
			<point x="87" y="-8"/>
			<point x="93" y="-2" type="curve" smooth="yes"/>
			<point x="134" y="39" type="line"/>
			<point x="177" y="6"/>
			<point x="234" y="-14"/>
			<point x="305" y="-14" type="curve" smooth="yes"/>
			<point x="484" y="-14"/>
			<point x="574" y="111"/>
			<point x="574" y="266" type="curve" smooth="yes"/>
			<point x="574" y="329"/>
			<point x="559" y="387"/>
		</contour>
		<contour>
			<point x="153" y="266" type="curve" smooth="yes"/>
			<point x="153" y="386"/>
			<point x="209" y="465"/>
			<point x="305" y="465" type="curve" smooth="yes"/>
			<point x="351" y="465"/>
			<point x="388" y="447"/>
			<point x="414" y="415" type="curve"/>
			<point x="168" y="169" type="line"/>
			<point x="158" y="197"/>
			<point x="153" y="230"/>
		</contour>
		<contour>
			<point x="458" y="266" type="curve" smooth="yes"/>
			<point x="458" y="146"/>
			<point x="402" y="66"/>
			<point x="305" y="66" type="curve" smooth="yes"/>
			<point x="263" y="66"/>
			<point x="228" y="81"/>
			<point x="203" y="108" type="curve"/>
			<point x="446" y="352" type="line"/>
			<point x="454" y="326"/>
			<point x="458" y="298"/>
		</contour>
	</outline>
</glyph>
<glyph name="uacute" format="2">
	<advance width="604"/>
	<unicode hex="00FA"/>
	<note>
		uacute
	</note>
	<outline>
		<contour>
			<point x="322" y="576"/>
			<point x="327" y="582" type="curve" smooth="yes"/>
			<point x="393" y="655" type="line" smooth="yes"/>
			<point x="397" y="659"/>
			<point x="399" y="665"/>
			<point x="399" y="672" type="curve" smooth="yes"/>
			<point x="399" y="687"/>
			<point x="385" y="699"/>
			<point x="370" y="697" type="curve" smooth="yes"/>
			<point x="323" y="691"/>
			<point x="280" y="654"/>
			<point x="276" y="608" type="curve" smooth="yes"/>
			<point x="276" y="602" type="line" smooth="yes"/>
			<point x="276" y="585"/>
			<point x="289" y="572"/>
			<point x="305" y="572" type="curve" smooth="yes"/>
			<point x="314" y="572"/>
		</contour>
		<contour>
			<point x="532" y="49" type="curve" smooth="yes"/>
			<point x="532" y="482" type="line" smooth="yes"/>
			<point x="532" y="512"/>
			<point x="508" y="537"/>
			<point x="478" y="537" type="curve" smooth="yes"/>
			<point x="447" y="537"/>
			<point x="423" y="512"/>
			<point x="423" y="482" type="curve" smooth="yes"/>
			<point x="423" y="281" type="line" smooth="yes"/>
			<point x="423" y="127"/>
			<point x="365" y="68"/>
			<point x="288" y="68" type="curve" smooth="yes"/>
			<point x="220" y="68"/>
			<point x="182" y="106"/>
			<point x="174" y="164" type="curve" smooth="yes"/>
			<point x="171" y="191"/>
			<point x="170" y="220"/>
			<point x="170" y="237" type="curve" smooth="yes"/>
			<point x="170" y="482" type="line" smooth="yes"/>
			<point x="170" y="512"/>
			<point x="146" y="537"/>
			<point x="116" y="537" type="curve" smooth="yes"/>
			<point x="85" y="537"/>
			<point x="61" y="512"/>
			<point x="61" y="482" type="curve" smooth="yes"/>
			<point x="61" y="215" type="line" smooth="yes"/>
			<point x="61" y="172"/>
			<point x="62" y="148"/>
			<point x="66" y="121" type="curve" smooth="yes"/>
			<point x="78" y="48"/>
			<point x="142" y="-14"/>
			<point x="252" y="-14" type="curve" smooth="yes"/>
			<point x="291" y="-14"/>
			<point x="323" y="-9"/>
			<point x="354" y="6" type="curve" smooth="yes"/>
			<point x="378" y="18"/>
			<point x="391" y="34"/>
			<point x="404" y="58" type="curve" smooth="yes"/>
			<point x="423" y="91" type="line"/>
			<point x="423" y="49" type="line" smooth="yes"/>
			<point x="423" y="19"/>
			<point x="447" y="-6"/>
			<point x="478" y="-6" type="curve" smooth="yes"/>
			<point x="508" y="-6"/>
			<point x="532" y="19"/>
		</contour>
	</outline>
</glyph>
<glyph name="Abreve" format="2">
	<advance width="656"/>
	<unicode hex="0102"/>
	<note>
		Abreve
	</note>
	<outline>
		<contour>
			<point x="342" y="724" type="curve" smooth="yes"/>
			<point x="401" y="724"/>
			<point x="438" y="750"/>
			<point x="449" y="806" type="curve" smooth="yes"/>
			<point x="453" y="826"/>
			<point x="437" y="844"/>
			<point x="418" y="844" type="curve" smooth="yes"/>
			<point x="403" y="844"/>
			<point x="391" y="833"/>
			<point x="387" y="820" type="curve" smooth="yes"/>
			<point x="381" y="796"/>
			<point x="365" y="786"/>
			<point x="342" y="786" type="curve" smooth="yes"/>
			<point x="319" y="786"/>
			<point x="303" y="796"/>
			<point x="297" y="820" type="curve" smooth="yes"/>
			<point x="293" y="833"/>
			<point x="281" y="844"/>
			<point x="266" y="844" type="curve" smooth="yes"/>
			<point x="247" y="844"/>
			<point x="232" y="825"/>
			<point x="235" y="806" type="curve" smooth="yes"/>
			<point x="246" y="750"/>
			<point x="282" y="724"/>
		</contour>
		<contour>
			<point x="215" y="228" type="line"/>
			<point x="460" y="228" type="line"/>
			<point x="524" y="33" type="line" smooth="yes"/>
			<point x="531" y="10"/>
			<point x="552" y="-6"/>
			<point x="577" y="-6" type="curve" smooth="yes"/>
			<point x="608" y="-6"/>
			<point x="633" y="20"/>
			<point x="633" y="50" type="curve" smooth="yes"/>
			<point x="633" y="57"/>
			<point x="632" y="64"/>
			<point x="630" y="69" type="curve" smooth="yes"/>
			<point x="429" y="643" type="line" smooth="yes"/>
			<point x="418" y="674"/>
			<point x="396" y="690"/>
			<point x="363" y="690" type="curve" smooth="yes"/>
			<point x="320" y="690" type="line" smooth="yes"/>
			<point x="287" y="690"/>
			<point x="265" y="676"/>
			<point x="254" y="644" type="curve" smooth="yes"/>
			<point x="47" y="68" type="line" smooth="yes"/>
			<point x="45" y="63"/>
			<point x="44" y="56"/>
			<point x="44" y="49" type="curve" smooth="yes"/>
			<point x="44" y="19"/>
			<point x="69" y="-6"/>
			<point x="99" y="-6" type="curve" smooth="yes"/>
			<point x="123" y="-6"/>
			<point x="144" y="11"/>
			<point x="151" y="32" type="curve" smooth="yes"/>
		</contour>
		<contour>
			<point x="431" y="315" type="line"/>
			<point x="244" y="315" type="line"/>
			<point x="340" y="599" type="line"/>
		</contour>
	</outline>
</glyph>
<glyph name="aogonek" format="2">
	<advance width="545"/>
	<unicode hex="0105"/>
	<note>
		aogonek
	</note>
	<outline>
		<contour>
			<point x="371" y="-107" type="curve" smooth="yes"/>
			<point x="371" y="-50"/>
			<point x="409" y="-7"/>
			<point x="453" y="0" type="curve"/>
			<point x="469" y="0" type="line" smooth="yes"/>
			<point x="478" y="0"/>
			<point x="480" y="22"/>
			<point x="477" y="62" type="curve" smooth="yes"/>
			<point x="475" y="89"/>
			<point x="474" y="111"/>
			<point x="474" y="135" type="curve" smooth="yes"/>
			<point x="474" y="322" type="line" smooth="yes"/>
			<point x="474" y="347"/>
			<point x="473" y="375"/>
			<point x="471" y="397" type="curve" smooth="yes"/>
			<point x="462" y="487"/>
			<point x="408" y="545"/>
			<point x="271" y="545" type="curve" smooth="yes"/>
			<point x="177" y="545"/>
			<point x="104" y="505"/>
			<point x="72" y="431" type="curve" smooth="yes"/>
			<point x="69" y="424"/>
			<point x="68" y="418"/>
			<point x="68" y="410" type="curve" smooth="yes"/>
			<point x="68" y="381"/>
			<point x="92" y="357"/>
			<point x="122" y="357" type="curve" smooth="yes"/>
			<point x="146" y="357"/>
			<point x="167" y="373"/>
			<point x="173" y="395" type="curve" smooth="yes"/>
			<point x="186" y="442"/>
			<point x="218" y="465"/>
			<point x="269" y="465" type="curve" smooth="yes"/>
			<point x="332" y="465"/>
			<point x="359" y="435"/>
			<point x="362" y="392" type="curve" smooth="yes"/>
			<point x="364" y="372"/>
			<point x="364" y="354"/>
			<point x="364" y="334" type="curve" smooth="yes"/>
			<point x="364" y="321" type="line"/>
			<point x="330" y="321" type="line" smooth="yes"/>
			<point x="129" y="321"/>
			<point x="35" y="257"/>
			<point x="35" y="139" type="curve" smooth="yes"/>
			<point x="35" y="40"/>
			<point x="112" y="-14"/>
			<point x="206" y="-14" type="curve" smooth="yes"/>
			<point x="241" y="-14"/>
			<point x="274" y="-10"/>
			<point x="304" y="2" type="curve" smooth="yes"/>
			<point x="330" y="12"/>
			<point x="343" y="29"/>
			<point x="355" y="55" type="curve" smooth="yes"/>
			<point x="365" y="77" type="line"/>
			<point x="374" y="9" type="line"/>
			<point x="319" y="-14"/>
			<point x="269" y="-67"/>
			<point x="269" y="-138" type="curve" smooth="yes"/>
			<point x="269" y="-201"/>
			<point x="309" y="-223"/>
			<point x="367" y="-223" type="curve" smooth="yes"/>
			<point x="402" y="-223"/>
			<point x="432" y="-215"/>
			<point x="460" y="-200" type="curve" smooth="yes"/>
			<point x="468" y="-195"/>
			<point x="474" y="-187"/>
			<point x="474" y="-177" type="curve" smooth="yes"/>
			<point x="474" y="-160"/>
			<point x="456" y="-148"/>
			<point x="440" y="-153" type="curve" smooth="yes"/>
			<point x="431" y="-156"/>
			<point x="423" y="-157"/>
			<point x="415" y="-157" type="curve" smooth="yes"/>
			<point x="388" y="-157"/>
			<point x="371" y="-144"/>
		</contour>
		<contour>
			<point x="246" y="66" type="curve" smooth="yes"/>
			<point x="188" y="66"/>
			<point x="151" y="92"/>
			<point x="151" y="148" type="curve" smooth="yes"/>
			<point x="151" y="229"/>
			<point x="235" y="258"/>
			<point x="364" y="248" type="curve"/>
			<point x="364" y="199" type="line" smooth="yes"/>
			<point x="364" y="113"/>
			<point x="315" y="66"/>
		</contour>
	</outline>
</glyph>
<glyph name="Ccaron" format="2">
	<advance width="708"/>
	<unicode hex="010C"/>
	<note>
		Ccaron
	</note>
	<outline>
		<contour>
			<point x="324" y="736"/>
			<point x="352" y="736" type="curve" smooth="yes"/>
			<point x="375" y="736" type="line" smooth="yes"/>
			<point x="418" y="736"/>
			<point x="454" y="771"/>
			<point x="456" y="813" type="curve" smooth="yes"/>
			<point x="456" y="830"/>
			<point x="442" y="844"/>
			<point x="425" y="844" type="curve" smooth="yes"/>
			<point x="413" y="844"/>
			<point x="402" y="837"/>
			<point x="397" y="827" type="curve" smooth="yes"/>
			<point x="372" y="777" type="line"/>
			<point x="357" y="808" type="line" smooth="yes"/>
			<point x="347" y="828"/>
			<point x="306" y="833"/>
			<point x="300" y="794" type="curve" smooth="yes"/>
			<point x="300" y="792"/>
			<point x="300" y="789"/>
			<point x="300" y="787" type="curve" smooth="yes"/>
			<point x="300" y="758"/>
		</contour>
		<contour>
			<point x="586" y="254"/>
			<point x="580" y="250" type="curve" smooth="yes"/>
			<point x="555" y="236"/>
			<point x="551" y="214"/>
			<point x="542" y="187" type="curve" smooth="yes"/>
			<point x="516" y="115"/>
			<point x="462" y="70"/>
			<point x="372" y="70" type="curve" smooth="yes"/>
			<point x="250" y="70"/>
			<point x="168" y="176"/>
			<point x="168" y="347" type="curve" smooth="yes"/>
			<point x="168" y="510"/>
			<point x="249" y="620"/>
			<point x="377" y="620" type="curve" smooth="yes"/>
			<point x="467" y="620"/>
			<point x="521" y="576"/>
			<point x="547" y="505" type="curve" smooth="yes"/>
			<point x="556" y="478"/>
			<point x="562" y="455"/>
			<point x="588" y="447" type="curve" smooth="yes"/>
			<point x="594" y="446"/>
			<point x="600" y="445"/>
			<point x="606" y="445" type="curve" smooth="yes"/>
			<point x="617" y="445"/>
			<point x="629" y="446"/>
			<point x="639" y="450" type="curve" smooth="yes"/>
			<point x="662" y="457"/>
			<point x="667" y="481"/>
			<point x="659" y="512" type="curve" smooth="yes"/>
			<point x="631" y="625"/>
			<point x="539" y="704"/>
			<point x="379" y="704" type="curve" smooth="yes"/>
			<point x="185" y="704"/>
			<point x="49" y="559"/>
			<point x="49" y="342" type="curve" smooth="yes"/>
			<point x="49" y="132"/>
			<point x="170" y="-14"/>
			<point x="367" y="-14" type="curve" smooth="yes"/>
			<point x="528" y="-14"/>
			<point x="626" y="69"/>
			<point x="655" y="183" type="curve" smooth="yes"/>
			<point x="662" y="212"/>
			<point x="658" y="238"/>
			<point x="631" y="250" type="curve" smooth="yes"/>
			<point x="622" y="254"/>
			<point x="612" y="256"/>
			<point x="601" y="256" type="curve" smooth="yes"/>
			<point x="593" y="256"/>
		</contour>
	</outline>
</glyph>
<glyph name="dcroat" format="2">
	<advance width="632"/>
	<unicode hex="0111"/>
	<note>
		dcroat
	</note>
	<outline>
		<contour>
			<point x="557" y="590" type="line"/>
			<point x="573" y="590" type="line" smooth="yes"/>
			<point x="591" y="590"/>
			<point x="606" y="605"/>
			<point x="606" y="623" type="curve" smooth="yes"/>
			<point x="606" y="641"/>
			<point x="591" y="656"/>
			<point x="573" y="656" type="curve" smooth="yes"/>
			<point x="557" y="656" type="line"/>
			<point x="557" y="686" type="line" smooth="yes"/>
			<point x="557" y="716"/>
			<point x="532" y="741"/>
			<point x="502" y="741" type="curve" smooth="yes"/>
			<point x="472" y="741"/>
			<point x="447" y="716"/>
			<point x="447" y="686" type="curve" smooth="yes"/>
			<point x="447" y="656" type="line"/>
			<point x="358" y="656" type="line" smooth="yes"/>
			<point x="340" y="656"/>
			<point x="325" y="641"/>
			<point x="325" y="623" type="curve" smooth="yes"/>
			<point x="325" y="605"/>
			<point x="340" y="590"/>
			<point x="358" y="590" type="curve" smooth="yes"/>
			<point x="447" y="590" type="line"/>
			<point x="447" y="459" type="line"/>
			<point x="430" y="486" type="line" smooth="yes"/>
			<point x="417" y="506"/>
			<point x="405" y="519"/>
			<point x="380" y="529" type="curve" smooth="yes"/>
			<point x="352" y="539"/>
			<point x="316" y="545"/>
			<point x="286" y="545" type="curve" smooth="yes"/>
			<point x="149" y="545"/>
			<point x="29" y="451"/>
			<point x="29" y="257" type="curve" smooth="yes"/>
			<point x="29" y="101"/>
			<point x="116" y="-14"/>
			<point x="268" y="-14" type="curve" smooth="yes"/>
			<point x="307" y="-14"/>
			<point x="346" y="-6"/>
			<point x="376" y="8" type="curve" smooth="yes"/>
			<point x="400" y="19"/>
			<point x="413" y="34"/>
			<point x="428" y="56" type="curve" smooth="yes"/>
			<point x="447" y="84" type="line"/>
			<point x="447" y="50" type="line" smooth="yes"/>
			<point x="447" y="20"/>
			<point x="472" y="-6"/>
			<point x="502" y="-6" type="curve" smooth="yes"/>
			<point x="532" y="-6"/>
			<point x="557" y="20"/>
			<point x="557" y="50" type="curve" smooth="yes"/>
		</contour>
		<contour>
			<point x="293" y="66" type="curve" smooth="yes"/>
			<point x="198" y="66"/>
			<point x="145" y="151"/>
			<point x="145" y="266" type="curve" smooth="yes"/>
			<point x="145" y="398"/>
			<point x="211" y="465"/>
			<point x="298" y="465" type="curve" smooth="yes"/>
			<point x="369" y="465"/>
			<point x="447" y="417"/>
			<point x="447" y="288" type="curve" smooth="yes"/>
			<point x="447" y="260" type="line" smooth="yes"/>
			<point x="447" y="118"/>
			<point x="376" y="66"/>
		</contour>
	</outline>
</glyph>
<glyph name="Eogonek" format="2">
	<advance width="600"/>
	<unicode hex="0118"/>
	<note>
		Eogonek
	</note>
	<outline>
		<contour>
			<point x="522" y="-157" type="curve" smooth="yes"/>
			<point x="495" y="-157"/>
			<point x="478" y="-144"/>
			<point x="478" y="-107" type="curve" smooth="yes"/>
			<point x="478" y="-65"/>
			<point x="498" y="-31"/>
			<point x="526" y="-13" type="curve" smooth="yes"/>
			<point x="549" y="1"/>
			<point x="574" y="3"/>
			<point x="582" y="28" type="curve" smooth="yes"/>
			<point x="584" y="33"/>
			<point x="585" y="38"/>
			<point x="585" y="44" type="curve" smooth="yes"/>
			<point x="585" y="72"/>
			<point x="562" y="95"/>
			<point x="534" y="95" type="curve" smooth="yes"/>
			<point x="505" y="95"/>
			<point x="482" y="72"/>
			<point x="482" y="44" type="curve" smooth="yes"/>
			<point x="482" y="16"/>
			<point x="505" y="-7"/>
			<point x="534" y="-7" type="curve" smooth="yes"/>
			<point x="539" y="-7"/>
			<point x="537" y="17"/>
			<point x="535" y="40" type="curve" smooth="yes"/>
			<point x="532" y="72"/>
			<point x="513" y="88"/>
			<point x="476" y="88" type="curve" smooth="yes"/>
			<point x="205" y="88" type="line"/>
			<point x="205" y="302" type="line"/>
			<point x="496" y="302" type="line" smooth="yes"/>
			<point x="520" y="302"/>
			<point x="540" y="321"/>
			<point x="540" y="346" type="curve" smooth="yes"/>
			<point x="540" y="370"/>
			<point x="520" y="389"/>
			<point x="496" y="389" type="curve" smooth="yes"/>
			<point x="205" y="389" type="line"/>
			<point x="205" y="603" type="line"/>
			<point x="524" y="603" type="line" smooth="yes"/>
			<point x="548" y="603"/>
			<point x="568" y="622"/>
			<point x="568" y="647" type="curve" smooth="yes"/>
			<point x="568" y="671"/>
			<point x="548" y="690"/>
			<point x="524" y="690" type="curve" smooth="yes"/>
			<point x="153" y="690" type="line" smooth="yes"/>
			<point x="116" y="690"/>
			<point x="95" y="669"/>
			<point x="95" y="632" type="curve" smooth="yes"/>
			<point x="95" y="58" type="line" smooth="yes"/>
			<point x="95" y="21"/>
			<point x="116" y="0"/>
			<point x="153" y="0" type="curve" smooth="yes"/>
			<point x="462" y="0" type="line"/>
			<point x="415" y="-27"/>
			<point x="376" y="-75"/>
			<point x="376" y="-138" type="curve" smooth="yes"/>
			<point x="376" y="-201"/>
			<point x="416" y="-223"/>
			<point x="474" y="-223" type="curve" smooth="yes"/>
			<point x="509" y="-223"/>
			<point x="539" y="-215"/>
			<point x="567" y="-200" type="curve" smooth="yes"/>
			<point x="575" y="-195"/>
			<point x="581" y="-187"/>
			<point x="581" y="-177" type="curve" smooth="yes"/>
			<point x="581" y="-160"/>
			<point x="563" y="-148"/>
			<point x="547" y="-153" type="curve" smooth="yes"/>
			<point x="538" y="-156"/>
			<point x="530" y="-157"/>
		</contour>
	</outline>
</glyph>
<glyph name="Iogonek" format="2">
	<advance width="277"/>
	<unicode hex="012E"/>
	<note>
		Iogonek
	</note>
	<outline>
		<contour>
			<point x="172" y="0" type="curve"/>
			<point x="193" y="0"/>
			<point x="205" y="21"/>
			<point x="205" y="58" type="curve" smooth="yes"/>
			<point x="205" y="641" type="line" smooth="yes"/>
			<point x="205" y="671"/>
			<point x="180" y="696"/>
			<point x="150" y="696" type="curve" smooth="yes"/>
			<point x="120" y="696"/>
			<point x="95" y="671"/>
			<point x="95" y="641" type="curve" smooth="yes"/>
			<point x="95" y="10" type="line"/>
			<point x="95" y="10" type="line" smooth="yes"/>
			<point x="95" y="10"/>
			<point x="80" y="6"/>
			<point x="54" y="-13" type="curve" smooth="yes"/>
			<point x="17" y="-41"/>
			<point x="-12" y="-84"/>
			<point x="-12" y="-138" type="curve" smooth="yes"/>
			<point x="-12" y="-201"/>
			<point x="28" y="-223"/>
			<point x="86" y="-223" type="curve" smooth="yes"/>
			<point x="121" y="-223"/>
			<point x="151" y="-215"/>
			<point x="179" y="-200" type="curve" smooth="yes"/>
			<point x="187" y="-195"/>
			<point x="193" y="-187"/>
			<point x="193" y="-177" type="curve" smooth="yes"/>
			<point x="193" y="-160"/>
			<point x="175" y="-148"/>
			<point x="159" y="-153" type="curve" smooth="yes"/>
			<point x="150" y="-156"/>
			<point x="142" y="-157"/>
			<point x="134" y="-157" type="curve" smooth="yes"/>
			<point x="107" y="-157"/>
			<point x="90" y="-144"/>
			<point x="90" y="-107" type="curve" smooth="yes"/>
			<point x="90" y="-50"/>
			<point x="128" y="-7"/>
		</contour>
	</outline>
</glyph>
<glyph name="iogonek" format="2">
	<advance width="251"/>
	<unicode hex="012F"/>
	<note>
		iogonek
	</note>
	<outline>
		<contour>
			<point x="69" y="512"/>
			<point x="69" y="482" type="curve" smooth="yes"/>
			<point x="69" y="10" type="line"/>
			<point x="14" y="-13"/>
			<point x="-37" y="-66"/>
			<point x="-37" y="-138" type="curve" smooth="yes"/>
			<point x="-37" y="-201"/>
			<point x="3" y="-223"/>
			<point x="61" y="-223" type="curve" smooth="yes"/>
			<point x="96" y="-223"/>
			<point x="126" y="-215"/>
			<point x="154" y="-200" type="curve" smooth="yes"/>
			<point x="162" y="-195"/>
			<point x="168" y="-187"/>
			<point x="168" y="-177" type="curve" smooth="yes"/>
			<point x="168" y="-160"/>
			<point x="150" y="-148"/>
			<point x="134" y="-153" type="curve" smooth="yes"/>
			<point x="125" y="-156"/>
			<point x="117" y="-157"/>
			<point x="109" y="-157" type="curve" smooth="yes"/>
			<point x="82" y="-157"/>
			<point x="65" y="-144"/>
			<point x="65" y="-107" type="curve" smooth="yes"/>
			<point x="65" y="-50"/>
			<point x="103" y="-7"/>
			<point x="147" y="0" type="curve"/>
			<point x="163" y="0" type="line" smooth="yes"/>
			<point x="173" y="0"/>
			<point x="179" y="21"/>
			<point x="179" y="58" type="curve" smooth="yes"/>
			<point x="179" y="482" type="line" smooth="yes"/>
			<point x="179" y="512"/>
			<point x="154" y="537"/>
			<point x="124" y="537" type="curve" smooth="yes"/>
			<point x="94" y="537"/>
		</contour>
		<contour>
			<point x="88" y="593"/>
			<point x="120" y="585" type="curve" smooth="yes"/>
			<point x="150" y="577"/>
			<point x="180" y="601"/>
			<point x="180" y="632" type="curve" smooth="yes"/>
			<point x="180" y="673" type="line" smooth="yes"/>
			<point x="180" y="704"/>
			<point x="150" y="728"/>
			<point x="120" y="720" type="curve" smooth="yes"/>
			<point x="88" y="712"/>
			<point x="64" y="686"/>
			<point x="64" y="653" type="curve" smooth="yes"/>
			<point x="64" y="620"/>
		</contour>
	</outline>
</glyph>
<glyph name="uni0137" format="2">
	<advance width="550"/>
	<unicode hex="0137"/>
	<note>
		kcommaaccent
	</note>
	<outline>
		<contour>
			<point x="484" y="74"/>
			<point x="476" y="84" type="curve" smooth="yes"/>
			<point x="304" y="282" type="line"/>
			<point x="477" y="460" type="line" smooth="yes"/>
			<point x="513" y="497"/>
			<point x="501" y="531"/>
			<point x="454" y="531" type="curve" smooth="yes"/>
			<point x="424" y="531"/>
			<point x="402" y="521"/>
			<point x="382" y="499" type="curve" smooth="yes"/>
			<point x="179" y="275" type="line"/>
			<point x="179" y="686" type="line" smooth="yes"/>
			<point x="179" y="716"/>
			<point x="154" y="741"/>
			<point x="124" y="741" type="curve" smooth="yes"/>
			<point x="94" y="741"/>
			<point x="69" y="716"/>
			<point x="69" y="686" type="curve" smooth="yes"/>
			<point x="69" y="50" type="line" smooth="yes"/>
			<point x="69" y="20"/>
			<point x="94" y="-6"/>
			<point x="124" y="-6" type="curve" smooth="yes"/>
			<point x="154" y="-6"/>
			<point x="179" y="20"/>
			<point x="179" y="50" type="curve" smooth="yes"/>
			<point x="179" y="166" type="line"/>
			<point x="226" y="218" type="line"/>
			<point x="394" y="14" type="line" smooth="yes"/>
			<point x="404" y="2"/>
			<point x="419" y="-5"/>
			<point x="436" y="-5" type="curve" smooth="yes"/>
			<point x="466" y="-5"/>
			<point x="490" y="19"/>
			<point x="490" y="48" type="curve" smooth="yes"/>
			<point x="490" y="62"/>
		</contour>
		<contour>
			<point x="250" y="-52"/>
			<point x="242" y="-72" type="curve" smooth="yes"/>
			<point x="208" y="-160" type="line" smooth="yes"/>
			<point x="207" y="-164"/>
			<point x="205" y="-168"/>
			<point x="205" y="-172" type="curve" smooth="yes"/>
			<point x="205" y="-191"/>
			<point x="220" y="-205"/>
			<point x="239" y="-205" type="curve" smooth="yes"/>
			<point x="252" y="-205"/>
			<point x="263" y="-198"/>
			<point x="268" y="-187" type="curve" smooth="yes"/>
			<point x="310" y="-105" type="line" smooth="yes"/>
			<point x="326" y="-74"/>
			<point x="325" y="-36"/>
			<point x="290" y="-34" type="curve" smooth="yes"/>
			<point x="289" y="-34"/>
			<point x="287" y="-34"/>
			<point x="286" y="-34" type="curve" smooth="yes"/>
			<point x="262" y="-34"/>
		</contour>
	</outline>
</glyph>
<glyph name="Nacute" format="2">
	<advance width="737"/>
	<unicode hex="0143"/>
	<note>
		Nacute
	</note>
	<outline>
		<contour>
			<point x="405" y="733"/>
			<point x="410" y="739" type="curve" smooth="yes"/>
			<point x="465" y="797" type="line" smooth="yes"/>
			<point x="469" y="802"/>
			<point x="473" y="808"/>
			<point x="473" y="816" type="curve" smooth="yes"/>
			<point x="473" y="833"/>
			<point x="457" y="845"/>
			<point x="441" y="843" type="curve" smooth="yes"/>
			<point x="398" y="837"/>
			<point x="363" y="802"/>
			<point x="361" y="759" type="curve" smooth="yes"/>
			<point x="361" y="743"/>
			<point x="373" y="731"/>
			<point x="389" y="731" type="curve" smooth="yes"/>
			<point x="398" y="731"/>
		</contour>
		<contour>
			<point x="554" y="0" type="curve" smooth="yes"/>
			<point x="607" y="0" type="line" smooth="yes"/>
			<point x="644" y="0"/>
			<point x="665" y="21"/>
			<point x="665" y="58" type="curve" smooth="yes"/>
			<point x="664" y="642" type="line" smooth="yes"/>
			<point x="664" y="671"/>
			<point x="640" y="695"/>
			<point x="610" y="695" type="curve" smooth="yes"/>
			<point x="580" y="695"/>
			<point x="556" y="670"/>
			<point x="556" y="641" type="curve" smooth="yes"/>
			<point x="556" y="358" type="line" smooth="yes"/>
			<point x="556" y="287"/>
			<point x="557" y="195"/>
			<point x="559" y="117" type="curve"/>
			<point x="272" y="649" type="line" smooth="yes"/>
			<point x="257" y="678"/>
			<point x="235" y="690"/>
			<point x="203" y="690" type="curve" smooth="yes"/>
			<point x="153" y="690" type="line" smooth="yes"/>
			<point x="116" y="690"/>
			<point x="95" y="669"/>
			<point x="95" y="632" type="curve" smooth="yes"/>
			<point x="95" y="50" type="line" smooth="yes"/>
			<point x="95" y="20"/>
			<point x="120" y="-6"/>
			<point x="150" y="-6" type="curve" smooth="yes"/>
			<point x="180" y="-6"/>
			<point x="205" y="20"/>
			<point x="205" y="50" type="curve" smooth="yes"/>
			<point x="205" y="330" type="line" smooth="yes"/>
			<point x="205" y="401"/>
			<point x="204" y="490"/>
			<point x="201" y="569" type="curve"/>
			<point x="485" y="41" type="line" smooth="yes"/>
			<point x="500" y="12"/>
			<point x="522" y="0"/>
		</contour>
	</outline>
</glyph>
<glyph name="Ncaron" format="2">
	<advance width="737"/>
	<unicode hex="0147"/>
	<note>
		Ncaron
	</note>
	<outline>
		<contour>
			<point x="332" y="736"/>
			<point x="360" y="736" type="curve" smooth="yes"/>
			<point x="383" y="736" type="line" smooth="yes"/>
			<point x="426" y="736"/>
			<point x="462" y="771"/>
			<point x="464" y="813" type="curve" smooth="yes"/>
			<point x="464" y="830"/>
			<point x="450" y="844"/>
			<point x="433" y="844" type="curve" smooth="yes"/>
			<point x="421" y="844"/>
			<point x="410" y="837"/>
			<point x="405" y="827" type="curve" smooth="yes"/>
			<point x="380" y="777" type="line"/>
			<point x="365" y="808" type="line" smooth="yes"/>
			<point x="355" y="828"/>
			<point x="314" y="833"/>
			<point x="308" y="794" type="curve" smooth="yes"/>
			<point x="308" y="792"/>
			<point x="308" y="789"/>
			<point x="308" y="787" type="curve" smooth="yes"/>
			<point x="308" y="758"/>
		</contour>
		<contour>
			<point x="201" y="569" type="curve"/>
			<point x="485" y="41" type="line" smooth="yes"/>
			<point x="500" y="12"/>
			<point x="522" y="0"/>
			<point x="554" y="0" type="curve" smooth="yes"/>
			<point x="607" y="0" type="line" smooth="yes"/>
			<point x="644" y="0"/>
			<point x="665" y="21"/>
			<point x="665" y="58" type="curve" smooth="yes"/>
			<point x="664" y="642" type="line" smooth="yes"/>
			<point x="664" y="671"/>
			<point x="640" y="695"/>
			<point x="610" y="695" type="curve" smooth="yes"/>
			<point x="580" y="695"/>
			<point x="556" y="670"/>
			<point x="556" y="641" type="curve" smooth="yes"/>
			<point x="556" y="358" type="line" smooth="yes"/>
			<point x="556" y="287"/>
			<point x="557" y="195"/>
			<point x="559" y="117" type="curve"/>
			<point x="272" y="649" type="line" smooth="yes"/>
			<point x="257" y="678"/>
			<point x="235" y="690"/>
			<point x="203" y="690" type="curve" smooth="yes"/>
			<point x="153" y="690" type="line" smooth="yes"/>
			<point x="116" y="690"/>
			<point x="95" y="669"/>
			<point x="95" y="632" type="curve" smooth="yes"/>
			<point x="95" y="50" type="line" smooth="yes"/>
			<point x="95" y="20"/>
			<point x="120" y="-6"/>
			<point x="150" y="-6" type="curve" smooth="yes"/>
			<point x="180" y="-6"/>
			<point x="205" y="20"/>
			<point x="205" y="50" type="curve" smooth="yes"/>
			<point x="205" y="330" type="line" smooth="yes"/>
			<point x="205" y="401"/>
			<point x="204" y="490"/>
		</contour>
	</outline>
</glyph>
<glyph name="omacron" format="2">
	<advance width="595"/>
	<unicode hex="014D"/>
	<note>
		omacron
	</note>
	<outline>
		<contour>
			<point x="197" y="600" type="curve" smooth="yes"/>
			<point x="400" y="600" type="line" smooth="yes"/>
			<point x="417" y="600"/>
			<point x="432" y="614"/>
			<point x="432" y="632" type="curve" smooth="yes"/>
			<point x="432" y="649"/>
			<point x="417" y="663"/>
			<point x="400" y="663" type="curve" smooth="yes"/>
			<point x="197" y="663" type="line" smooth="yes"/>
			<point x="180" y="663"/>
			<point x="166" y="649"/>
			<point x="166" y="632" type="curve" smooth="yes"/>
			<point x="166" y="614"/>
			<point x="180" y="600"/>
		</contour>
		<contour>
			<point x="298" y="545" type="curve" smooth="yes"/>
			<point x="119" y="545"/>
			<point x="29" y="421"/>
			<point x="29" y="266" type="curve" smooth="yes"/>
			<point x="29" y="111"/>
			<point x="119" y="-14"/>
			<point x="298" y="-14" type="curve" smooth="yes"/>
			<point x="476" y="-14"/>
			<point x="567" y="111"/>
			<point x="567" y="266" type="curve" smooth="yes"/>
			<point x="567" y="421"/>
			<point x="476" y="545"/>
		</contour>
		<contour>
			<point x="298" y="66" type="curve" smooth="yes"/>
			<point x="201" y="66"/>
			<point x="145" y="146"/>
			<point x="145" y="266" type="curve" smooth="yes"/>
			<point x="145" y="386"/>
			<point x="201" y="465"/>
			<point x="298" y="465" type="curve" smooth="yes"/>
			<point x="394" y="465"/>
			<point x="450" y="386"/>
			<point x="450" y="266" type="curve" smooth="yes"/>
			<point x="450" y="146"/>
			<point x="394" y="66"/>
		</contour>
	</outline>
</glyph>
<glyph name="racute" format="2">
	<advance width="353"/>
	<unicode hex="0155"/>
	<note>
		racute
	</note>
	<outline>
		<contour>
			<point x="217" y="576"/>
			<point x="222" y="582" type="curve" smooth="yes"/>
			<point x="288" y="655" type="line" smooth="yes"/>
			<point x="292" y="659"/>
			<point x="294" y="665"/>
			<point x="294" y="672" type="curve" smooth="yes"/>
			<point x="294" y="687"/>
			<point x="280" y="699"/>
			<point x="265" y="697" type="curve" smooth="yes"/>
			<point x="218" y="691"/>
			<point x="175" y="654"/>
			<point x="171" y="608" type="curve" smooth="yes"/>
			<point x="171" y="602" type="line" smooth="yes"/>
			<point x="171" y="585"/>
			<point x="184" y="572"/>
			<point x="200" y="572" type="curve" smooth="yes"/>
			<point x="209" y="572"/>
		</contour>
		<contour>
			<point x="306" y="544" type="curve" smooth="yes"/>
			<point x="291" y="544"/>
			<point x="274" y="540"/>
			<point x="258" y="534" type="curve" smooth="yes"/>
			<point x="231" y="523"/>
			<point x="219" y="506"/>
			<point x="205" y="483" type="curve" smooth="yes"/>
			<point x="179" y="441" type="line"/>
			<point x="179" y="482" type="line" smooth="yes"/>
			<point x="179" y="512"/>
			<point x="154" y="537"/>
			<point x="124" y="537" type="curve" smooth="yes"/>
			<point x="94" y="537"/>
			<point x="69" y="512"/>
			<point x="69" y="482" type="curve" smooth="yes"/>
			<point x="69" y="50" type="line" smooth="yes"/>
			<point x="69" y="20"/>
			<point x="94" y="-6"/>
			<point x="124" y="-6" type="curve" smooth="yes"/>
			<point x="154" y="-6"/>
			<point x="179" y="20"/>
			<point x="179" y="50" type="curve" smooth="yes"/>
			<point x="179" y="276" type="line" smooth="yes"/>
			<point x="179" y="389"/>
			<point x="226" y="443"/>
			<point x="307" y="451" type="curve" smooth="yes"/>
			<point x="330" y="453"/>
			<point x="349" y="474"/>
			<point x="349" y="498" type="curve" smooth="yes"/>
			<point x="349" y="522"/>
			<point x="329" y="542"/>
		</contour>
	</outline>
</glyph>
<glyph name="Scaron" format="2">
	<advance width="595"/>
	<unicode hex="0160"/>
	<note>
		Scaron
	</note>
	<outline>
		<contour>
			<point x="263" y="736"/>
			<point x="291" y="736" type="curve" smooth="yes"/>
			<point x="314" y="736" type="line" smooth="yes"/>
			<point x="357" y="736"/>
			<point x="393" y="771"/>
			<point x="395" y="813" type="curve" smooth="yes"/>
			<point x="395" y="830"/>
			<point x="381" y="844"/>
			<point x="364" y="844" type="curve" smooth="yes"/>
			<point x="352" y="844"/>
			<point x="341" y="837"/>
			<point x="336" y="827" type="curve" smooth="yes"/>
			<point x="311" y="777" type="line"/>
			<point x="296" y="808" type="line" smooth="yes"/>
			<point x="286" y="828"/>
			<point x="245" y="833"/>
			<point x="239" y="794" type="curve" smooth="yes"/>
			<point x="239" y="792"/>
			<point x="239" y="789"/>
			<point x="239" y="787" type="curve" smooth="yes"/>
			<point x="239" y="758"/>
		</contour>
		<contour>
			<point x="342" y="402" type="curve" smooth="yes"/>
			<point x="235" y="427"/>
			<point x="194" y="458"/>
			<point x="194" y="525" type="curve" smooth="yes"/>
			<point x="194" y="590"/>
			<point x="245" y="620"/>
			<point x="310" y="620" type="curve" smooth="yes"/>
			<point x="377" y="620"/>
			<point x="420" y="587"/>
			<point x="437" y="528" type="curve" smooth="yes"/>
			<point x="443" y="506"/>
			<point x="464" y="488"/>
			<point x="489" y="488" type="curve" smooth="yes"/>
			<point x="520" y="488"/>
			<point x="544" y="513"/>
			<point x="544" y="543" type="curve" smooth="yes"/>
			<point x="544" y="550"/>
			<point x="543" y="556"/>
			<point x="541" y="562" type="curve" smooth="yes"/>
			<point x="509" y="648"/>
			<point x="437" y="704"/>
			<point x="316" y="704" type="curve" smooth="yes"/>
			<point x="187" y="704"/>
			<point x="78" y="629"/>
			<point x="78" y="507" type="curve" smooth="yes"/>
			<point x="78" y="387"/>
			<point x="165" y="338"/>
			<point x="296" y="307" type="curve" smooth="yes"/>
			<point x="408" y="281"/>
			<point x="450" y="244"/>
			<point x="450" y="172" type="curve" smooth="yes"/>
			<point x="450" y="109"/>
			<point x="393" y="70"/>
			<point x="321" y="70" type="curve" smooth="yes"/>
			<point x="252" y="70"/>
			<point x="198" y="103"/>
			<point x="172" y="169" type="curve" smooth="yes"/>
			<point x="164" y="191"/>
			<point x="144" y="206"/>
			<point x="119" y="206" type="curve" smooth="yes"/>
			<point x="88" y="206"/>
			<point x="63" y="180"/>
			<point x="63" y="149" type="curve" smooth="yes"/>
			<point x="63" y="141"/>
			<point x="63" y="134"/>
			<point x="66" y="128" type="curve" smooth="yes"/>
			<point x="104" y="34"/>
			<point x="194" y="-14"/>
			<point x="321" y="-14" type="curve" smooth="yes"/>
			<point x="455" y="-14"/>
			<point x="566" y="62"/>
			<point x="566" y="187" type="curve" smooth="yes"/>
			<point x="566" y="302"/>
			<point x="494" y="367"/>
		</contour>
	</outline>
</glyph>
<glyph name="Uogonek" format="2">
	<advance width="691"/>
	<unicode hex="0172"/>
	<note>
		Uogonek
	</note>
	<outline>
		<contour>
			<point x="629" y="267" type="curve" smooth="yes"/>
			<point x="629" y="641" type="line" smooth="yes"/>
			<point x="629" y="671"/>
			<point x="605" y="696"/>
			<point x="575" y="696" type="curve" smooth="yes"/>
			<point x="544" y="696"/>
			<point x="520" y="671"/>
			<point x="520" y="641" type="curve" smooth="yes"/>
			<point x="520" y="265" type="line" smooth="yes"/>
			<point x="520" y="244"/>
			<point x="520" y="225"/>
			<point x="518" y="209" type="curve" smooth="yes"/>
			<point x="511" y="126"/>
			<point x="458" y="70"/>
			<point x="358" y="70" type="curve" smooth="yes"/>
			<point x="259" y="70"/>
			<point x="206" y="126"/>
			<point x="199" y="209" type="curve" smooth="yes"/>
			<point x="197" y="225"/>
			<point x="197" y="244"/>
			<point x="197" y="265" type="curve" smooth="yes"/>
			<point x="197" y="641" type="line" smooth="yes"/>
			<point x="197" y="671"/>
			<point x="173" y="696"/>
			<point x="143" y="696" type="curve" smooth="yes"/>
			<point x="112" y="696"/>
			<point x="88" y="671"/>
			<point x="88" y="641" type="curve" smooth="yes"/>
			<point x="88" y="267" type="line" smooth="yes"/>
			<point x="88" y="242"/>
			<point x="88" y="222"/>
			<point x="90" y="196" type="curve" smooth="yes"/>
			<point x="99" y="83"/>
			<point x="175" y="-10"/>
			<point x="347" y="-14" type="curve"/>
			<point x="310" y="-42"/>
			<point x="282" y="-85"/>
			<point x="282" y="-138" type="curve" smooth="yes"/>
			<point x="282" y="-201"/>
			<point x="322" y="-223"/>
			<point x="380" y="-223" type="curve" smooth="yes"/>
			<point x="415" y="-223"/>
			<point x="445" y="-215"/>
			<point x="473" y="-200" type="curve" smooth="yes"/>
			<point x="481" y="-195"/>
			<point x="487" y="-187"/>
			<point x="487" y="-177" type="curve" smooth="yes"/>
			<point x="487" y="-160"/>
			<point x="469" y="-148"/>
			<point x="453" y="-153" type="curve" smooth="yes"/>
			<point x="444" y="-156"/>
			<point x="436" y="-157"/>
			<point x="428" y="-157" type="curve" smooth="yes"/>
			<point x="401" y="-157"/>
			<point x="384" y="-144"/>
			<point x="384" y="-107" type="curve" smooth="yes"/>
			<point x="384" y="-57"/>
			<point x="413" y="-18"/>
			<point x="450" y="-4" type="curve"/>
			<point x="566" y="23"/>
			<point x="619" y="103"/>
			<point x="627" y="196" type="curve" smooth="yes"/>
			<point x="629" y="222"/>
			<point x="629" y="242"/>
		</contour>
	</outline>
</glyph>
<glyph name="Wcircumflex" format="2">
	<advance width="968"/>
	<unicode hex="0174"/>
	<note>
		Wcircumflex
	</note>
	<outline>
		<contour>
			<point x="467" y="737"/>
			<point x="472" y="747" type="curve" smooth="yes"/>
			<point x="497" y="796" type="line"/>
			<point x="513" y="766" type="line" smooth="yes"/>
			<point x="523" y="747"/>
			<point x="563" y="741"/>
			<point x="568" y="780" type="curve" smooth="yes"/>
			<point x="569" y="782"/>
			<point x="569" y="785"/>
			<point x="569" y="787" type="curve" smooth="yes"/>
			<point x="569" y="816"/>
			<point x="546" y="839"/>
			<point x="517" y="839" type="curve" smooth="yes"/>
			<point x="488" y="839"/>
			<point x="465" y="816"/>
			<point x="465" y="787" type="curve" smooth="yes"/>
			<point x="465" y="766"/>
			<point x="473" y="787"/>
			<point x="486" y="808" type="curve" smooth="yes"/>
			<point x="498" y="827"/>
			<point x="505" y="838"/>
			<point x="494" y="838" type="curve" smooth="yes"/>
			<point x="451" y="838"/>
			<point x="415" y="803"/>
			<point x="413" y="761" type="curve" smooth="yes"/>
			<point x="413" y="744"/>
			<point x="427" y="730"/>
			<point x="444" y="730" type="curve" smooth="yes"/>
			<point x="456" y="730"/>
		</contour>
		<contour>
			<point x="791" y="49" type="curve" smooth="yes"/>
			<point x="949" y="627" type="line" smooth="yes"/>
			<point x="950" y="631"/>
			<point x="951" y="636"/>
			<point x="951" y="641" type="curve" smooth="yes"/>
			<point x="951" y="671"/>
			<point x="926" y="696"/>
			<point x="896" y="696" type="curve" smooth="yes"/>
			<point x="871" y="696"/>
			<point x="849" y="677"/>
			<point x="844" y="653" type="curve" smooth="yes"/>
			<point x="712" y="88" type="line"/>
			<point x="585" y="629" type="line" smooth="yes"/>
			<point x="577" y="663"/>
			<point x="555" y="680"/>
			<point x="521" y="680" type="curve" smooth="yes"/>
			<point x="474" y="680" type="line" smooth="yes"/>
			<point x="440" y="680"/>
			<point x="418" y="663"/>
			<point x="410" y="630" type="curve" smooth="yes"/>
			<point x="279" y="91" type="line"/>
			<point x="156" y="650" type="line" smooth="yes"/>
			<point x="150" y="676"/>
			<point x="127" y="695"/>
			<point x="99" y="695" type="curve" smooth="yes"/>
			<point x="67" y="695"/>
			<point x="41" y="670"/>
			<point x="41" y="638" type="curve" smooth="yes"/>
			<point x="41" y="633"/>
			<point x="42" y="627"/>
			<point x="43" y="623" type="curve" smooth="yes"/>
			<point x="191" y="50" type="line" smooth="yes"/>
			<point x="200" y="17"/>
			<point x="221" y="0"/>
			<point x="255" y="0" type="curve" smooth="yes"/>
			<point x="298" y="0" type="line" smooth="yes"/>
			<point x="332" y="0"/>
			<point x="354" y="17"/>
			<point x="362" y="50" type="curve" smooth="yes"/>
			<point x="495" y="588" type="line"/>
			<point x="621" y="51" type="line" smooth="yes"/>
			<point x="629" y="17"/>
			<point x="651" y="0"/>
			<point x="685" y="0" type="curve" smooth="yes"/>
			<point x="727" y="0" type="line" smooth="yes"/>
			<point x="761" y="0"/>
			<point x="782" y="15"/>
		</contour>
	</outline>
</glyph>
<glyph name="zdotaccent" format="2">
	<advance width="478"/>
	<unicode hex="017C"/>
	<note>
		zdotaccent
	</note>
	<outline>
		<contour>
			<point x="242" y="589" type="curve" smooth="yes"/>
			<point x="279" y="589"/>
			<point x="307" y="616"/>
			<point x="307" y="653" type="curve" smooth="yes"/>
			<point x="307" y="689"/>
			<point x="279" y="716"/>
			<point x="242" y="716" type="curve" smooth="yes"/>
			<point x="205" y="716"/>
			<point x="178" y="689"/>
			<point x="178" y="653" type="curve" smooth="yes"/>
			<point x="178" y="616"/>
			<point x="205" y="589"/>
		</contour>
		<contour>
			<point x="436" y="79"/>
			<point x="415" y="79" type="curve" smooth="yes"/>
			<point x="148" y="79" type="line"/>
			<point x="439" y="440" type="line" smooth="yes"/>
			<point x="446" y="449"/>
			<point x="451" y="461"/>
			<point x="451" y="474" type="curve" smooth="yes"/>
			<point x="451" y="503"/>
			<point x="426" y="527"/>
			<point x="397" y="527" type="curve" smooth="yes"/>
			<point x="78" y="527" type="line" smooth="yes"/>
			<point x="57" y="527"/>
			<point x="39" y="509"/>
			<point x="39" y="488" type="curve" smooth="yes"/>
			<point x="39" y="466"/>
			<point x="57" y="448"/>
			<point x="78" y="448" type="curve" smooth="yes"/>
			<point x="323" y="448" type="line"/>
			<point x="30" y="83" type="line" smooth="yes"/>
			<point x="23" y="75"/>
			<point x="18" y="63"/>
			<point x="18" y="51" type="curve" smooth="yes"/>
			<point x="18" y="23"/>
			<point x="42" y="0"/>
			<point x="70" y="0" type="curve" smooth="yes"/>
			<point x="415" y="0" type="line" smooth="yes"/>
			<point x="436" y="0"/>
			<point x="455" y="18"/>
			<point x="455" y="40" type="curve" smooth="yes"/>
			<point x="455" y="61"/>
		</contour>
	</outline>
</glyph>
<glyph name="Zcaron" format="2">
	<advance width="605"/>
	<unicode hex="017D"/>
	<note>
		Zcaron
	</note>
	<outline>
		<contour>
			<point x="268" y="736"/>
			<point x="296" y="736" type="curve" smooth="yes"/>
			<point x="319" y="736" type="line" smooth="yes"/>
			<point x="362" y="736"/>
			<point x="398" y="771"/>
			<point x="400" y="813" type="curve" smooth="yes"/>
			<point x="400" y="830"/>
			<point x="386" y="844"/>
			<point x="369" y="844" type="curve" smooth="yes"/>
			<point x="357" y="844"/>
			<point x="346" y="837"/>
			<point x="341" y="827" type="curve" smooth="yes"/>
			<point x="316" y="777" type="line"/>
			<point x="301" y="808" type="line" smooth="yes"/>
			<point x="291" y="828"/>
			<point x="250" y="833"/>
			<point x="244" y="794" type="curve" smooth="yes"/>
			<point x="244" y="792"/>
			<point x="244" y="789"/>
			<point x="244" y="787" type="curve" smooth="yes"/>
			<point x="244" y="758"/>
		</contour>
		<contour>
			<point x="567" y="88"/>
			<point x="543" y="88" type="curve" smooth="yes"/>
			<point x="179" y="88" type="line"/>
			<point x="569" y="595" type="line" smooth="yes"/>
			<point x="576" y="605"/>
			<point x="581" y="618"/>
			<point x="581" y="631" type="curve" smooth="yes"/>
			<point x="581" y="664"/>
			<point x="555" y="690"/>
			<point x="523" y="690" type="curve" smooth="yes"/>
			<point x="114" y="690" type="line" smooth="yes"/>
			<point x="90" y="690"/>
			<point x="71" y="671"/>
			<point x="71" y="647" type="curve" smooth="yes"/>
			<point x="71" y="622"/>
			<point x="90" y="603"/>
			<point x="114" y="603" type="curve" smooth="yes"/>
			<point x="448" y="603" type="line"/>
			<point x="54" y="92" type="line" smooth="yes"/>
			<point x="47" y="82"/>
			<point x="42" y="71"/>
			<point x="42" y="57" type="curve" smooth="yes"/>
			<point x="42" y="26"/>
			<point x="69" y="0"/>
			<point x="100" y="0" type="curve" smooth="yes"/>
			<point x="543" y="0" type="line" smooth="yes"/>
			<point x="567" y="0"/>
			<point x="587" y="20"/>
			<point x="587" y="44" type="curve" smooth="yes"/>
			<point x="587" y="68"/>
		</contour>
	</outline>
</glyph>
<glyph name="uni021B" format="2">
	<advance width="335"/>
	<unicode hex="021B"/>
	<note>
		uni021B
	</note>
	<outline>
		<contour>
			<point x="200" y="172" type="curve" smooth="yes"/>
			<point x="200" y="450" type="line"/>
			<point x="271" y="450" type="line" smooth="yes"/>
			<point x="292" y="450"/>
			<point x="310" y="467"/>
			<point x="310" y="489" type="curve" smooth="yes"/>
			<point x="310" y="510"/>
			<point x="292" y="527"/>
			<point x="271" y="527" type="curve" smooth="yes"/>
			<point x="200" y="527" type="line"/>
			<point x="200" y="605" type="line" smooth="yes"/>
			<point x="200" y="635"/>
			<point x="176" y="660"/>
			<point x="146" y="660" type="curve" smooth="yes"/>
			<point x="115" y="660"/>
			<point x="91" y="635"/>
			<point x="91" y="605" type="curve" smooth="yes"/>
			<point x="91" y="527" type="line"/>
			<point x="49" y="527" type="line" smooth="yes"/>
			<point x="28" y="527"/>
			<point x="11" y="510"/>
			<point x="11" y="489" type="curve" smooth="yes"/>
			<point x="11" y="467"/>
			<point x="28" y="450"/>
			<point x="49" y="450" type="curve" smooth="yes"/>
			<point x="91" y="450" type="line"/>
			<point x="91" y="162" type="line" smooth="yes"/>
			<point x="91" y="132"/>
			<point x="91" y="109"/>
			<point x="92" y="91" type="curve" smooth="yes"/>
			<point x="97" y="21"/>
			<point x="133" y="-10"/>
			<point x="216" y="-10" type="curve" smooth="yes"/>
			<point x="233" y="-10"/>
			<point x="249" y="-9"/>
			<point x="267" y="-8" type="curve" smooth="yes"/>
			<point x="287" y="-6"/>
			<point x="303" y="11"/>
			<point x="303" y="31" type="curve" smooth="yes"/>
			<point x="303" y="53"/>
			<point x="285" y="70"/>
			<point x="264" y="70" type="curve" smooth="yes"/>
			<point x="218" y="71"/>
			<point x="204" y="86"/>
			<point x="201" y="128" type="curve" smooth="yes"/>
			<point x="200" y="142"/>
			<point x="200" y="154"/>
		</contour>
		<contour>
			<point x="152" y="-52"/>
			<point x="144" y="-72" type="curve" smooth="yes"/>
			<point x="110" y="-160" type="line" smooth="yes"/>
			<point x="109" y="-164"/>
			<point x="107" y="-168"/>
			<point x="107" y="-172" type="curve" smooth="yes"/>
			<point x="107" y="-191"/>
			<point x="122" y="-205"/>
			<point x="141" y="-205" type="curve" smooth="yes"/>
			<point x="154" y="-205"/>
			<point x="165" y="-198"/>
			<point x="170" y="-187" type="curve" smooth="yes"/>
			<point x="212" y="-105" type="line" smooth="yes"/>
			<point x="228" y="-74"/>
			<point x="227" y="-36"/>
			<point x="192" y="-34" type="curve" smooth="yes"/>
			<point x="191" y="-34"/>
			<point x="189" y="-34"/>
			<point x="188" y="-34" type="curve" smooth="yes"/>
			<point x="164" y="-34"/>
		</contour>
	</outline>
</glyph>
<glyph name="wdieresis" format="2">
	<advance width="806"/>
	<unicode hex="1E85"/>
	<note>
		wdieresis
	</note>
	<outline>
		<contour>
			<point x="650" y="51" type="curve" smooth="yes"/>
			<point x="782" y="465" type="line" smooth="yes"/>
			<point x="784" y="471"/>
			<point x="785" y="476"/>
			<point x="785" y="482" type="curve" smooth="yes"/>
			<point x="785" y="512"/>
			<point x="760" y="537"/>
			<point x="730" y="537" type="curve" smooth="yes"/>
			<point x="704" y="537"/>
			<point x="683" y="518"/>
			<point x="677" y="495" type="curve" smooth="yes"/>
			<point x="577" y="97" type="line"/>
			<point x="485" y="472" type="line" smooth="yes"/>
			<point x="476" y="509"/>
			<point x="443" y="535"/>
			<point x="404" y="535" type="curve" smooth="yes"/>
			<point x="365" y="535"/>
			<point x="332" y="507"/>
			<point x="323" y="471" type="curve" smooth="yes"/>
			<point x="234" y="98" type="line"/>
			<point x="135" y="493" type="line" smooth="yes"/>
			<point x="129" y="519"/>
			<point x="106" y="536"/>
			<point x="78" y="536" type="curve" smooth="yes"/>
			<point x="47" y="536"/>
			<point x="21" y="511"/>
			<point x="21" y="479" type="curve" smooth="yes"/>
			<point x="21" y="472"/>
			<point x="21" y="466"/>
			<point x="23" y="461" type="curve" smooth="yes"/>
			<point x="154" y="52" type="line" smooth="yes"/>
			<point x="164" y="19"/>
			<point x="195" y="-5"/>
			<point x="232" y="-5" type="curve" smooth="yes"/>
			<point x="270" y="-5"/>
			<point x="302" y="22"/>
			<point x="311" y="57" type="curve" smooth="yes"/>
			<point x="403" y="429" type="line"/>
			<point x="494" y="56" type="line" smooth="yes"/>
			<point x="503" y="20"/>
			<point x="535" y="-6"/>
			<point x="573" y="-6" type="curve" smooth="yes"/>
			<point x="609" y="-6"/>
			<point x="640" y="18"/>
		</contour>
		<contour>
			<point x="290" y="582"/>
			<point x="319" y="582" type="curve" smooth="yes"/>
			<point x="333" y="582" type="line" smooth="yes"/>
			<point x="361" y="582"/>
			<point x="385" y="605"/>
			<point x="385" y="633" type="curve" smooth="yes"/>
			<point x="385" y="640"/>
			<point x="383" y="647"/>
			<point x="381" y="652" type="curve" smooth="yes"/>
			<point x="372" y="675"/>
			<point x="351" y="693"/>
			<point x="325" y="693" type="curve" smooth="yes"/>
			<point x="315" y="693"/>
			<point x="306" y="690"/>
			<point x="299" y="686" type="curve" smooth="yes"/>
			<point x="280" y="676"/>
			<point x="266" y="657"/>
			<point x="266" y="635" type="curve" smooth="yes"/>
			<point x="266" y="606"/>
		</contour>
		<contour>
			<point x="445" y="582"/>
			<point x="474" y="582" type="curve" smooth="yes"/>
			<point x="488" y="582" type="line" smooth="yes"/>
			<point x="516" y="582"/>
			<point x="540" y="605"/>
			<point x="540" y="633" type="curve" smooth="yes"/>
			<point x="540" y="640"/>
			<point x="538" y="647"/>
			<point x="536" y="652" type="curve" smooth="yes"/>
			<point x="527" y="675"/>
			<point x="506" y="693"/>
			<point x="480" y="693" type="curve" smooth="yes"/>
			<point x="470" y="693"/>
			<point x="461" y="690"/>
			<point x="454" y="686" type="curve" smooth="yes"/>
			<point x="435" y="676"/>
			<point x="421" y="657"/>
			<point x="421" y="635" type="curve" smooth="yes"/>
			<point x="421" y="606"/>
		</contour>
	</outline>
</glyph>
<glyph name="quoteleft" format="2">
	<advance width="266"/>
	<unicode hex="2018"/>
	<note>
		quoteleft
	</note>
	<outline>
		<contour>
			<point x="144" y="712" type="curve" smooth="yes"/>
			<point x="73" y="530" type="line" smooth="yes"/>
			<point x="61" y="498"/>
			<point x="63" y="466"/>
			<point x="95" y="456" type="curve" smooth="yes"/>
			<point x="102" y="454"/>
			<point x="110" y="453"/>
			<point x="118" y="453" type="curve" smooth="yes"/>
			<point x="154" y="453"/>
			<point x="169" y="482"/>
			<point x="179" y="514" type="curve" smooth="yes"/>
			<point x="229" y="682" type="line" smooth="yes"/>
			<point x="230" y="686"/>
			<point x="231" y="691"/>
			<point x="231" y="695" type="curve" smooth="yes"/>
			<point x="231" y="720"/>
			<point x="211" y="740"/>
			<point x="186" y="740" type="curve" smooth="yes"/>
			<point x="167" y="740"/>
			<point x="150" y="728"/>
		</contour>
	</outline>
</glyph>
<glyph name="quoteright" format="2">
	<advance width="266"/>
	<unicode hex="2019"/>
	<note>
		quoteright
	</note>
	<outline>
		<contour>
			<point x="122" y="497" type="curve" smooth="yes"/>
			<point x="193" y="679" type="line" smooth="yes"/>
			<point x="205" y="711"/>
			<point x="203" y="743"/>
			<point x="171" y="753" type="curve" smooth="yes"/>
			<point x="164" y="755"/>
			<point x="156" y="756"/>
			<point x="148" y="756" type="curve" smooth="yes"/>
			<point x="112" y="756"/>
			<point x="97" y="727"/>
			<point x="87" y="695" type="curve" smooth="yes"/>
			<point x="37" y="527" type="line" smooth="yes"/>
			<point x="36" y="523"/>
			<point x="35" y="518"/>
			<point x="35" y="514" type="curve" smooth="yes"/>
			<point x="35" y="489"/>
			<point x="55" y="469"/>
			<point x="80" y="469" type="curve" smooth="yes"/>
			<point x="99" y="469"/>
			<point x="116" y="481"/>
		</contour>
	</outline>
</glyph>
<glyph name="quotedblleft" format="2">
	<advance width="453"/>
	<unicode hex="201C"/>
	<note>
		quotedblleft
	</note>
	<outline>
		<contour>
			<point x="144" y="713" type="curve" smooth="yes"/>
			<point x="73" y="530" type="line" smooth="yes"/>
			<point x="61" y="498"/>
			<point x="63" y="466"/>
			<point x="95" y="456" type="curve" smooth="yes"/>
			<point x="102" y="454"/>
			<point x="110" y="453"/>
			<point x="118" y="453" type="curve" smooth="yes"/>
			<point x="154" y="453"/>
			<point x="169" y="482"/>
			<point x="179" y="514" type="curve" smooth="yes"/>
			<point x="229" y="683" type="line" smooth="yes"/>
			<point x="230" y="687"/>
			<point x="231" y="692"/>
			<point x="231" y="696" type="curve" smooth="yes"/>
			<point x="231" y="721"/>
			<point x="211" y="741"/>
			<point x="186" y="741" type="curve" smooth="yes"/>
			<point x="167" y="741"/>
			<point x="150" y="729"/>
		</contour>
		<contour>
			<point x="331" y="713" type="curve" smooth="yes"/>
			<point x="260" y="530" type="line" smooth="yes"/>
			<point x="248" y="498"/>
			<point x="250" y="466"/>
			<point x="282" y="456" type="curve" smooth="yes"/>
			<point x="289" y="454"/>
			<point x="297" y="453"/>
			<point x="305" y="453" type="curve" smooth="yes"/>
			<point x="341" y="453"/>
			<point x="356" y="482"/>
			<point x="366" y="514" type="curve" smooth="yes"/>
			<point x="416" y="683" type="line" smooth="yes"/>
			<point x="417" y="687"/>
			<point x="418" y="692"/>
			<point x="418" y="696" type="curve" smooth="yes"/>
			<point x="418" y="721"/>
			<point x="398" y="741"/>
			<point x="373" y="741" type="curve" smooth="yes"/>
			<point x="354" y="741"/>
			<point x="337" y="729"/>
		</contour>
	</outline>
</glyph>
<glyph name="guilsinglleft" format="2">
	<advance width="405"/>
	<unicode hex="2039"/>
	<note>
		guilsinglleft
	</note>
	<outline>
		<contour>
			<point x="214" y="248" type="line"/>
			<point x="310" y="365" type="line" smooth="yes"/>
			<point x="315" y="370"/>
			<point x="318" y="378"/>
			<point x="318" y="386" type="curve" smooth="yes"/>
			<point x="318" y="404"/>
			<point x="303" y="420"/>
			<point x="284" y="420" type="curve" smooth="yes"/>
			<point x="274" y="420"/>
			<point x="264" y="415"/>
			<point x="258" y="407" type="curve" smooth="yes"/>
			<point x="161" y="289" type="line" smooth="yes"/>
			<point x="139" y="262"/>
			<point x="139" y="234"/>
			<point x="161" y="207" type="curve" smooth="yes"/>
			<point x="258" y="89" type="line" smooth="yes"/>
			<point x="264" y="81"/>
			<point x="274" y="76"/>
			<point x="284" y="76" type="curve" smooth="yes"/>
			<point x="303" y="76"/>
			<point x="318" y="92"/>
			<point x="318" y="110" type="curve" smooth="yes"/>
			<point x="318" y="118"/>
			<point x="315" y="126"/>
			<point x="310" y="131" type="curve" smooth="yes"/>
		</contour>
	</outline>
</glyph>
<glyph name="fraction" format="2">
	<advance width="269"/>
	<unicode hex="2044"/>
	<note>
		fraction
	</note>
	<outline>
		<contour>
			<point x="-41" y="2"/>
			<point x="-34" y="13" type="curve" smooth="yes"/>
			<point x="369" y="633" type="line" smooth="yes"/>
			<point x="373" y="640"/>
			<point x="376" y="647"/>
			<point x="376" y="655" type="curve" smooth="yes"/>
			<point x="376" y="677"/>
			<point x="358" y="696"/>
			<point x="335" y="696" type="curve" smooth="yes"/>
			<point x="321" y="696"/>
			<point x="309" y="688"/>
			<point x="302" y="677" type="curve" smooth="yes"/>
			<point x="-101" y="57" type="line" smooth="yes"/>
			<point x="-105" y="50"/>
			<point x="-108" y="43"/>
			<point x="-108" y="35" type="curve" smooth="yes"/>
			<point x="-108" y="13"/>
			<point x="-90" y="-5"/>
			<point x="-67" y="-5" type="curve" smooth="yes"/>
			<point x="-53" y="-5"/>
		</contour>
	</outline>
</glyph>
<glyph name="uF1010" format="2">
	<advance width="942"/>
	<unicode hex="F1010"/>
	<outline>
		<contour>
			<point x="215" y="228" type="line"/>
			<point x="437" y="228" type="line"/>
			<point x="437" y="-11" type="line" smooth="yes"/>
			<point x="437" y="-48"/>
			<point x="458" y="-69"/>
			<point x="495" y="-69" type="curve" smooth="yes"/>
			<point x="876" y="-69" type="line" smooth="yes"/>
			<point x="900" y="-69"/>
			<point x="920" y="-49"/>
			<point x="920" y="-25" type="curve" smooth="yes"/>
			<point x="920" y="-1"/>
			<point x="900" y="19"/>
			<point x="876" y="19" type="curve" smooth="yes"/>
			<point x="547" y="19" type="line"/>
			<point x="547" y="233" type="line"/>
			<point x="838" y="233" type="line" smooth="yes"/>
			<point x="862" y="233"/>
			<point x="882" y="252"/>
			<point x="882" y="277" type="curve" smooth="yes"/>
			<point x="882" y="301"/>
			<point x="862" y="320"/>
			<point x="838" y="320" type="curve" smooth="yes"/>
			<point x="547" y="320" type="line"/>
			<point x="547" y="534" type="line"/>
			<point x="866" y="534" type="line" smooth="yes"/>
			<point x="890" y="534"/>
			<point x="910" y="553"/>
			<point x="910" y="578" type="curve" smooth="yes"/>
			<point x="910" y="602"/>
			<point x="890" y="621"/>
			<point x="866" y="621" type="curve" smooth="yes"/>
			<point x="437" y="621" type="line"/>
			<point x="425" y="656" type="line" smooth="yes"/>
			<point x="417" y="680"/>
			<point x="396" y="690"/>
			<point x="363" y="690" type="curve" smooth="yes"/>
			<point x="320" y="690" type="line" smooth="yes"/>
			<point x="287" y="690"/>
			<point x="265" y="676"/>
			<point x="254" y="644" type="curve" smooth="yes"/>
			<point x="47" y="68" type="line" smooth="yes"/>
			<point x="45" y="63"/>
			<point x="44" y="56"/>
			<point x="44" y="49" type="curve" smooth="yes"/>
			<point x="44" y="19"/>
			<point x="69" y="-6"/>
			<point x="99" y="-6" type="curve" smooth="yes"/>
			<point x="123" y="-6"/>
			<point x="144" y="11"/>
			<point x="151" y="32" type="curve" smooth="yes"/>
		</contour>
		<contour>
			<point x="244" y="315" type="line"/>
			<point x="340" y="599" type="line"/>
			<point x="431" y="315" type="line"/>
		</contour>
	</outline>
</glyph>
<glyph name="uF1510" format="2">
	<advance width="944"/>
	<unicode hex="F1510"/>
	<outline>
		<contour>
			<point x="286" y="545" type="curve" smooth="yes"/>
			<point x="147" y="545"/>
			<point x="29" y="444"/>
			<point x="29" y="263" type="curve" smooth="yes"/>
			<point x="29" y="74"/>
			<point x="134" y="-14"/>
			<point x="273" y="-14" type="curve" smooth="yes"/>
			<point x="371" y="-14"/>
			<point x="449" y="25"/>
			<point x="490" y="105" type="curve" smooth="yes"/>
			<point x="494" y="113"/>
			<point x="495" y="120"/>
			<point x="495" y="129" type="curve" smooth="yes"/>
			<point x="495" y="158"/>
			<point x="472" y="182"/>
			<point x="442" y="182" type="curve" smooth="yes"/>
			<point x="420" y="182"/>
			<point x="400" y="168"/>
			<point x="393" y="148" type="curve" smooth="yes"/>
			<point x="372" y="93"/>
			<point x="332" y="66"/>
			<point x="279" y="66" type="curve" smooth="yes"/>
			<point x="205" y="66"/>
			<point x="145" y="127"/>
			<point x="145" y="271" type="curve" smooth="yes"/>
			<point x="145" y="404"/>
			<point x="206" y="465"/>
			<point x="283" y="465" type="curve" smooth="yes"/>
			<point x="337" y="465"/>
			<point x="375" y="440"/>
			<point x="396" y="383" type="curve" smooth="yes"/>
			<point x="405" y="358"/>
			<point x="428" y="341"/>
			<point x="455" y="341" type="curve" smooth="yes"/>
			<point x="464" y="341"/>
			<point x="476" y="340"/>
			<point x="488" y="340" type="curve" smooth="yes"/>
			<point x="511" y="340"/>
			<point x="522" y="357"/>
			<point x="538" y="380" type="curve" smooth="yes"/>
			<point x="562" y="414"/>
			<point x="606" y="463"/>
			<point x="655" y="464" type="curve" smooth="yes"/>
			<point x="730" y="465"/>
			<point x="762" y="422"/>
			<point x="767" y="362" type="curve" smooth="yes"/>
			<point x="769" y="335"/>
			<point x="769" y="312"/>
			<point x="769" y="287" type="curve" smooth="yes"/>
			<point x="769" y="50" type="line" smooth="yes"/>
			<point x="769" y="20"/>
			<point x="794" y="-6"/>
			<point x="824" y="-6" type="curve" smooth="yes"/>
			<point x="854" y="-6"/>
			<point x="879" y="20"/>
			<point x="879" y="50" type="curve" smooth="yes"/>
			<point x="879" y="299" type="line" smooth="yes"/>
			<point x="879" y="342"/>
			<point x="878" y="366"/>
			<point x="876" y="393" type="curve" smooth="yes"/>
			<point x="866" y="486"/>
			<point x="801" y="545"/>
			<point x="687" y="545" type="curve" smooth="yes"/>
			<point x="647" y="545"/>
			<point x="616" y="540"/>
			<point x="584" y="524" type="curve" smooth="yes"/>
			<point x="560" y="511"/>
			<point x="548" y="496"/>
			<point x="534" y="472" type="curve" smooth="yes"/>
			<point x="517" y="443" type="line"/>
			<point x="517" y="691" type="line" smooth="yes"/>
			<point x="517" y="721"/>
			<point x="492" y="746"/>
			<point x="462" y="746" type="curve" smooth="yes"/>
			<point x="432" y="746"/>
			<point x="407" y="721"/>
			<point x="407" y="691" type="curve" smooth="yes"/>
			<point x="407" y="518" type="line"/>
			<point x="373" y="535"/>
			<point x="333" y="545"/>
		</contour>
	</outline>
</glyph>
<glyph name="uF1540" format="2">
	<advance width="998"/>
	<unicode hex="F1540"/>
	<outline>
		<contour>
			<point x="286" y="545" type="curve" smooth="yes"/>
			<point x="147" y="545"/>
			<point x="29" y="444"/>
			<point x="29" y="263" type="curve" smooth="yes"/>
			<point x="29" y="74"/>
			<point x="134" y="-14"/>
			<point x="273" y="-14" type="curve" smooth="yes"/>
			<point x="351" y="-14"/>
			<point x="416" y="10"/>
			<point x="460" y="59" type="curve"/>
			<point x="501" y="13"/>
			<point x="562" y="-14"/>
			<point x="637" y="-14" type="curve" smooth="yes"/>
			<point x="676" y="-14"/>
			<point x="715" y="-6"/>
			<point x="745" y="8" type="curve" smooth="yes"/>
			<point x="769" y="19"/>
			<point x="782" y="34"/>
			<point x="797" y="56" type="curve" smooth="yes"/>
			<point x="816" y="84" type="line"/>
			<point x="816" y="-146" type="line" smooth="yes"/>
			<point x="816" y="-176"/>
			<point x="841" y="-202"/>
			<point x="871" y="-202" type="curve" smooth="yes"/>
			<point x="901" y="-202"/>
			<point x="926" y="-176"/>
			<point x="926" y="-146" type="curve" smooth="yes"/>
			<point x="926" y="482" type="line" smooth="yes"/>
			<point x="926" y="512"/>
			<point x="901" y="537"/>
			<point x="871" y="537" type="curve" smooth="yes"/>
			<point x="841" y="537"/>
			<point x="816" y="512"/>
			<point x="816" y="482" type="curve" smooth="yes"/>
			<point x="816" y="459" type="line"/>
			<point x="799" y="486" type="line" smooth="yes"/>
			<point x="786" y="506"/>
			<point x="774" y="519"/>
			<point x="749" y="529" type="curve" smooth="yes"/>
			<point x="721" y="539"/>
			<point x="685" y="545"/>
			<point x="655" y="545" type="curve" smooth="yes"/>
			<point x="584" y="545"/>
			<point x="516" y="520"/>
			<point x="469" y="468" type="curve"/>
			<point x="428" y="516"/>
			<point x="366" y="545"/>
		</contour>
		<contour>
			<point x="145" y="271" type="curve" smooth="yes"/>
			<point x="145" y="404"/>
			<point x="206" y="465"/>
			<point x="283" y="465" type="curve" smooth="yes"/>
			<point x="335" y="465"/>
			<point x="372" y="442"/>
			<point x="394" y="389" type="curve" smooth="yes"/>
			<point x="405" y="361"/>
			<point x="433" y="341"/>
			<point x="465" y="341" type="curve" smooth="yes"/>
			<point x="495" y="341"/>
			<point x="521" y="358"/>
			<point x="533" y="383" type="curve" smooth="yes"/>
			<point x="561" y="439"/>
			<point x="612" y="465"/>
			<point x="667" y="465" type="curve" smooth="yes"/>
			<point x="738" y="465"/>
			<point x="816" y="417"/>
			<point x="816" y="288" type="curve" smooth="yes"/>
			<point x="816" y="260" type="line" smooth="yes"/>
			<point x="816" y="118"/>
			<point x="745" y="66"/>
			<point x="662" y="66" type="curve" smooth="yes"/>
			<point x="607" y="66"/>
			<point x="559" y="92"/>
			<point x="532" y="141" type="curve" smooth="yes"/>
			<point x="518" y="165"/>
			<point x="491" y="182"/>
			<point x="461" y="182" type="curve" smooth="yes"/>
			<point x="429" y="182"/>
			<point x="401" y="164"/>
			<point x="388" y="136" type="curve" smooth="yes"/>
			<point x="366" y="89"/>
			<point x="328" y="66"/>
			<point x="279" y="66" type="curve" smooth="yes"/>
			<point x="205" y="66"/>
			<point x="145" y="127"/>
		</contour>
	</outline>
</glyph>
<glyph name="uF1820" format="2">
	<advance width="930"/>
	<unicode hex="F1820"/>
	<outline>
		<contour>
			<point x="363" y="733"/>
			<point x="368" y="739" type="curve" smooth="yes"/>
			<point x="423" y="797" type="line" smooth="yes"/>
			<point x="427" y="802"/>
			<point x="431" y="808"/>
			<point x="431" y="816" type="curve" smooth="yes"/>
			<point x="431" y="833"/>
			<point x="415" y="845"/>
			<point x="399" y="843" type="curve" smooth="yes"/>
			<point x="356" y="837"/>
			<point x="321" y="802"/>
			<point x="319" y="759" type="curve" smooth="yes"/>
			<point x="319" y="743"/>
			<point x="331" y="731"/>
			<point x="347" y="731" type="curve" smooth="yes"/>
			<point x="356" y="731"/>
		</contour>
		<contour>
			<point x="153" y="0" type="curve" smooth="yes"/>
			<point x="864" y="0" type="line" smooth="yes"/>
			<point x="888" y="0"/>
			<point x="908" y="20"/>
			<point x="908" y="44" type="curve" smooth="yes"/>
			<point x="908" y="68"/>
			<point x="888" y="88"/>
			<point x="864" y="88" type="curve" smooth="yes"/>
			<point x="535" y="88" type="line"/>
			<point x="535" y="302" type="line"/>
			<point x="826" y="302" type="line" smooth="yes"/>
			<point x="850" y="302"/>
			<point x="870" y="321"/>
			<point x="870" y="346" type="curve" smooth="yes"/>
			<point x="870" y="370"/>
			<point x="850" y="389"/>
			<point x="826" y="389" type="curve" smooth="yes"/>
			<point x="535" y="389" type="line"/>
			<point x="535" y="603" type="line"/>
			<point x="854" y="603" type="line" smooth="yes"/>
			<point x="878" y="603"/>
			<point x="898" y="622"/>
			<point x="898" y="647" type="curve" smooth="yes"/>
			<point x="898" y="671"/>
			<point x="878" y="690"/>
			<point x="854" y="690" type="curve" smooth="yes"/>
			<point x="153" y="690" type="line" smooth="yes"/>
			<point x="116" y="690"/>
			<point x="95" y="669"/>
			<point x="95" y="632" type="curve" smooth="yes"/>
			<point x="95" y="58" type="line" smooth="yes"/>
			<point x="95" y="21"/>
			<point x="116" y="0"/>
		</contour>
		<contour>
			<point x="205" y="88" type="line"/>
			<point x="205" y="302" type="line"/>
			<point x="425" y="302" type="line"/>
			<point x="425" y="88" type="line"/>
		</contour>
		<contour>
			<point x="205" y="389" type="line"/>
			<point x="205" y="603" type="line"/>
			<point x="425" y="603" type="line"/>
			<point x="425" y="389" type="line"/>
		</contour>
	</outline>
</glyph>
<glyph name="uF1910" format="2">
	<advance width="915"/>
	<unicode hex="F1910"/>
	<outline>
		<contour>
			<point x="285" y="465" type="curve" smooth="yes"/>
			<point x="362" y="465"/>
			<point x="405" y="410"/>
			<point x="413" y="312" type="curve"/>
			<point x="144" y="312" type="line"/>
			<point x="156" y="414"/>
			<point x="210" y="465"/>
		</contour>
		<contour>
			<point x="29" y="264" type="curve" smooth="yes"/>
			<point x="29" y="76"/>
			<point x="136" y="-14"/>
			<point x="278" y="-14" type="curve" smooth="yes"/>
			<point x="369" y="-14"/>
			<point x="450" y="23"/>
			<point x="493" y="102" type="curve" smooth="yes"/>
			<point x="497" y="110"/>
			<point x="499" y="117"/>
			<point x="499" y="126" type="curve" smooth="yes"/>
			<point x="499" y="155"/>
			<point x="475" y="178"/>
			<point x="447" y="178" type="curve" smooth="yes"/>
			<point x="425" y="178"/>
			<point x="406" y="164"/>
			<point x="399" y="144" type="curve" smooth="yes"/>
			<point x="379" y="93"/>
			<point x="335" y="66"/>
			<point x="282" y="66" type="curve" smooth="yes"/>
			<point x="210" y="66"/>
			<point x="152" y="108"/>
			<point x="143" y="235" type="curve"/>
			<point x="577" y="235" type="line" smooth="yes"/>
			<point x="612" y="235"/>
			<point x="645" y="239"/>
			<point x="674" y="251" type="curve" smooth="yes"/>
			<point x="700" y="261"/>
			<point x="713" y="278"/>
			<point x="725" y="304" type="curve" smooth="yes"/>
			<point x="735" y="326" type="line"/>
			<point x="740" y="291" type="line" smooth="yes"/>
			<point x="743" y="265"/>
			<point x="766" y="243"/>
			<point x="793" y="243" type="curve" smooth="yes"/>
			<point x="825" y="243"/>
			<point x="851" y="272"/>
			<point x="848" y="303" type="curve" smooth="yes"/>
			<point x="845" y="334"/>
			<point x="844" y="358"/>
			<point x="844" y="384" type="curve" smooth="yes"/>
			<point x="844" y="571" type="line" smooth="yes"/>
			<point x="844" y="596"/>
			<point x="843" y="624"/>
			<point x="841" y="646" type="curve" smooth="yes"/>
			<point x="832" y="736"/>
			<point x="778" y="794"/>
			<point x="641" y="794" type="curve" smooth="yes"/>
			<point x="547" y="794"/>
			<point x="474" y="754"/>
			<point x="442" y="680" type="curve" smooth="yes"/>
			<point x="439" y="673"/>
			<point x="438" y="667"/>
			<point x="438" y="659" type="curve" smooth="yes"/>
			<point x="438" y="630"/>
			<point x="462" y="606"/>
			<point x="492" y="606" type="curve" smooth="yes"/>
			<point x="516" y="606"/>
			<point x="537" y="622"/>
			<point x="543" y="644" type="curve" smooth="yes"/>
			<point x="556" y="691"/>
			<point x="588" y="714"/>
			<point x="639" y="714" type="curve" smooth="yes"/>
			<point x="702" y="714"/>
			<point x="729" y="684"/>
			<point x="732" y="641" type="curve" smooth="yes"/>
			<point x="734" y="621"/>
			<point x="734" y="603"/>
			<point x="734" y="583" type="curve" smooth="yes"/>
			<point x="734" y="570" type="line"/>
			<point x="700" y="570" type="line" smooth="yes"/>
			<point x="570" y="570"/>
			<point x="485" y="543"/>
			<point x="441" y="493" type="curve"/>
			<point x="403" y="526"/>
			<point x="352" y="545"/>
			<point x="289" y="545" type="curve" smooth="yes"/>
			<point x="136" y="545"/>
			<point x="29" y="432"/>
		</contour>
		<contour>
			<point x="522" y="394" type="curve" smooth="yes"/>
			<point x="522" y="475"/>
			<point x="606" y="504"/>
			<point x="735" y="494" type="curve"/>
			<point x="735" y="445" type="line" smooth="yes"/>
			<point x="735" y="359"/>
			<point x="686" y="312"/>
			<point x="617" y="312" type="curve" smooth="yes"/>
			<point x="559" y="312"/>
			<point x="522" y="338"/>
		</contour>
	</outline>
</glyph>
<glyph name="uF1950" format="2">
	<advance width="853"/>
	<unicode hex="F1950"/>
	<outline>
		<contour>
			<point x="526" y="279" type="curve" smooth="yes"/>
			<point x="526" y="315"/>
			<point x="521" y="348"/>
			<point x="512" y="379" type="curve" smooth="yes"/>
			<point x="482" y="478"/>
			<point x="406" y="545"/>
			<point x="289" y="545" type="curve" smooth="yes"/>
			<point x="136" y="545"/>
			<point x="29" y="432"/>
			<point x="29" y="264" type="curve" smooth="yes"/>
			<point x="29" y="76"/>
			<point x="136" y="-14"/>
			<point x="278" y="-14" type="curve" smooth="yes"/>
			<point x="369" y="-14"/>
			<point x="450" y="23"/>
			<point x="493" y="102" type="curve" smooth="yes"/>
			<point x="497" y="110"/>
			<point x="499" y="117"/>
			<point x="499" y="126" type="curve" smooth="yes"/>
			<point x="499" y="155"/>
			<point x="475" y="178"/>
			<point x="447" y="178" type="curve" smooth="yes"/>
			<point x="425" y="178"/>
			<point x="406" y="164"/>
			<point x="399" y="144" type="curve" smooth="yes"/>
			<point x="379" y="93"/>
			<point x="335" y="66"/>
			<point x="282" y="66" type="curve" smooth="yes"/>
			<point x="210" y="66"/>
			<point x="152" y="108"/>
			<point x="143" y="235" type="curve"/>
			<point x="467" y="235" type="line" smooth="yes"/>
			<point x="504" y="235"/>
			<point x="526" y="279"/>
		</contour>
		<contour>
			<point x="402" y="371" type="curve"/>
			<point x="403" y="371" type="line"/>
			<point x="429" y="264"/>
			<point x="507" y="212"/>
			<point x="620" y="212" type="curve" smooth="yes"/>
			<point x="736" y="212"/>
			<point x="827" y="263"/>
			<point x="827" y="366" type="curve" smooth="yes"/>
			<point x="827" y="460"/>
			<point x="766" y="506"/>
			<point x="650" y="536" type="curve" smooth="yes"/>
			<point x="571" y="557"/>
			<point x="532" y="577"/>
			<point x="532" y="625" type="curve" smooth="yes"/>
			<point x="532" y="665"/>
			<point x="557" y="694"/>
			<point x="609" y="694" type="curve" smooth="yes"/>
			<point x="652" y="694"/>
			<point x="682" y="673"/>
			<point x="698" y="633" type="curve" smooth="yes"/>
			<point x="706" y="614"/>
			<point x="725" y="599"/>
			<point x="747" y="599" type="curve" smooth="yes"/>
			<point x="777" y="599"/>
			<point x="801" y="623"/>
			<point x="801" y="653" type="curve" smooth="yes"/>
			<point x="801" y="662"/>
			<point x="799" y="672"/>
			<point x="795" y="679" type="curve" smooth="yes"/>
			<point x="764" y="736"/>
			<point x="704" y="771"/>
			<point x="617" y="771" type="curve" smooth="yes"/>
			<point x="499" y="771"/>
			<point x="421" y="711"/>
			<point x="421" y="612" type="curve" smooth="yes"/>
			<point x="421" y="519"/>
			<point x="493" y="478"/>
			<point x="590" y="453" type="curve" smooth="yes"/>
			<point x="680" y="429"/>
			<point x="716" y="404"/>
			<point x="716" y="358" type="curve" smooth="yes"/>
			<point x="716" y="312"/>
			<point x="675" y="290"/>
			<point x="624" y="290" type="curve" smooth="yes"/>
			<point x="579" y="290"/>
			<point x="545" y="316"/>
			<point x="522" y="362" type="curve" smooth="yes"/>
			<point x="512" y="382"/>
			<point x="492" y="394"/>
			<point x="469" y="394" type="curve" smooth="yes"/>
			<point x="446" y="394"/>
			<point x="413" y="390"/>
			<point x="403" y="371" type="curve"/>
			<point x="403" y="371" type="line" smooth="yes"/>
			<point x="403" y="371"/>
			<point x="408" y="356"/>
			<point x="412" y="323" type="curve" smooth="yes"/>
			<point x="412" y="320"/>
			<point x="413" y="316"/>
			<point x="413" y="312" type="curve"/>
			<point x="144" y="312" type="line"/>
			<point x="156" y="414"/>
			<point x="210" y="465"/>
			<point x="285" y="465" type="curve" smooth="yes"/>
			<point x="345" y="465"/>
			<point x="384" y="432"/>
		</contour>
	</outline>
</glyph>
<glyph name="uF2130" format="2">
	<advance width="884"/>
	<unicode hex="F2130"/>
	<outline>
		<contour>
			<point x="190" y="618" type="curve" smooth="yes"/>
			<point x="195" y="653"/>
			<point x="223" y="670"/>
			<point x="269" y="670" type="curve" smooth="yes"/>
			<point x="292" y="670"/>
			<point x="311" y="688"/>
			<point x="311" y="711" type="curve" smooth="yes"/>
			<point x="311" y="733"/>
			<point x="293" y="751"/>
			<point x="272" y="753" type="curve" smooth="yes"/>
			<point x="263" y="754"/>
			<point x="254" y="754"/>
			<point x="244" y="754" type="curve" smooth="yes"/>
			<point x="144" y="754"/>
			<point x="89" y="706"/>
			<point x="80" y="624" type="curve" smooth="yes"/>
			<point x="78" y="606"/>
			<point x="78" y="580"/>
			<point x="78" y="561" type="curve" smooth="yes"/>
			<point x="78" y="527" type="line"/>
			<point x="54" y="527" type="line" smooth="yes"/>
			<point x="33" y="527"/>
			<point x="16" y="510"/>
			<point x="16" y="489" type="curve" smooth="yes"/>
			<point x="16" y="467"/>
			<point x="33" y="450"/>
			<point x="54" y="450" type="curve" smooth="yes"/>
			<point x="78" y="450" type="line"/>
			<point x="78" y="49" type="line" smooth="yes"/>
			<point x="78" y="19"/>
			<point x="102" y="-6"/>
			<point x="133" y="-6" type="curve" smooth="yes"/>
			<point x="163" y="-6"/>
			<point x="187" y="19"/>
			<point x="187" y="49" type="curve" smooth="yes"/>
			<point x="187" y="450" type="line"/>
			<point x="349" y="450" type="line"/>
			<point x="349" y="49" type="line" smooth="yes"/>
			<point x="349" y="19"/>
			<point x="373" y="-6"/>
			<point x="404" y="-6" type="curve" smooth="yes"/>
			<point x="434" y="-6"/>
			<point x="458" y="19"/>
			<point x="458" y="49" type="curve" smooth="yes"/>
			<point x="458" y="219" type="line"/>
			<point x="462" y="218" type="line" smooth="yes"/>
			<point x="464" y="217"/>
			<point x="475" y="217"/>
			<point x="501" y="217" type="curve" smooth="yes"/>
			<point x="789" y="217" type="line" smooth="yes"/>
			<point x="826" y="217"/>
			<point x="848" y="261"/>
			<point x="848" y="261" type="curve" smooth="yes"/>
			<point x="848" y="411"/>
			<point x="765" y="527"/>
			<point x="611" y="527" type="curve" smooth="yes"/>
			<point x="458" y="527" type="line"/>
			<point x="458" y="567" type="line" smooth="yes"/>
			<point x="458" y="582"/>
			<point x="459" y="604"/>
			<point x="461" y="618" type="curve" smooth="yes"/>
			<point x="466" y="653"/>
			<point x="494" y="670"/>
			<point x="540" y="670" type="curve" smooth="yes"/>
			<point x="563" y="670"/>
			<point x="582" y="688"/>
			<point x="582" y="711" type="curve" smooth="yes"/>
			<point x="582" y="733"/>
			<point x="564" y="751"/>
			<point x="543" y="753" type="curve" smooth="yes"/>
			<point x="534" y="754"/>
			<point x="525" y="754"/>
			<point x="515" y="754" type="curve" smooth="yes"/>
			<point x="415" y="754"/>
			<point x="360" y="706"/>
			<point x="351" y="624" type="curve" smooth="yes"/>
			<point x="349" y="606"/>
			<point x="349" y="580"/>
			<point x="349" y="561" type="curve" smooth="yes"/>
			<point x="349" y="527" type="line"/>
			<point x="187" y="527" type="line"/>
			<point x="187" y="567" type="line" smooth="yes"/>
			<point x="187" y="582"/>
			<point x="188" y="604"/>
		</contour>
		<contour>
			<point x="466" y="294" type="line"/>
			<point x="478" y="396"/>
			<point x="532" y="447"/>
			<point x="607" y="447" type="curve" smooth="yes"/>
			<point x="684" y="447"/>
			<point x="727" y="392"/>
			<point x="735" y="294" type="curve"/>
		</contour>
	</outline>
</glyph>
<glyph name="uF2150" format="2">
	<advance width="577"/>
	<unicode hex="F2150"/>
	<outline>
		<contour>
			<point x="190" y="618" type="curve" smooth="yes"/>
			<point x="195" y="653"/>
			<point x="223" y="670"/>
			<point x="269" y="670" type="curve" smooth="yes"/>
			<point x="292" y="670"/>
			<point x="311" y="688"/>
			<point x="311" y="711" type="curve" smooth="yes"/>
			<point x="311" y="733"/>
			<point x="293" y="751"/>
			<point x="272" y="753" type="curve" smooth="yes"/>
			<point x="263" y="754"/>
			<point x="254" y="754"/>
			<point x="244" y="754" type="curve" smooth="yes"/>
			<point x="144" y="754"/>
			<point x="89" y="706"/>
			<point x="80" y="624" type="curve" smooth="yes"/>
			<point x="78" y="606"/>
			<point x="78" y="580"/>
			<point x="78" y="561" type="curve" smooth="yes"/>
			<point x="78" y="527" type="line"/>
			<point x="54" y="527" type="line" smooth="yes"/>
			<point x="33" y="527"/>
			<point x="16" y="510"/>
			<point x="16" y="489" type="curve" smooth="yes"/>
			<point x="16" y="467"/>
			<point x="33" y="450"/>
			<point x="54" y="450" type="curve" smooth="yes"/>
			<point x="78" y="450" type="line"/>
			<point x="226" y="46" type="line" smooth="yes"/>
			<point x="237" y="15"/>
			<point x="259" y="0"/>
			<point x="292" y="0" type="curve" smooth="yes"/>
			<point x="322" y="0" type="line" smooth="yes"/>
			<point x="355" y="0"/>
			<point x="376" y="14"/>
			<point x="388" y="46" type="curve" smooth="yes"/>
			<point x="548" y="463" type="line" smooth="yes"/>
			<point x="550" y="469"/>
			<point x="552" y="476"/>
			<point x="552" y="483" type="curve" smooth="yes"/>
			<point x="552" y="512"/>
			<point x="528" y="536"/>
			<point x="498" y="536" type="curve" smooth="yes"/>
			<point x="474" y="536"/>
			<point x="454" y="520"/>
			<point x="447" y="499" type="curve" smooth="yes"/>
			<point x="310" y="81" type="line"/>
			<point x="187" y="450" type="line"/>
			<point x="263" y="450" type="line" smooth="yes"/>
			<point x="284" y="450"/>
			<point x="302" y="467"/>
			<point x="302" y="489" type="curve" smooth="yes"/>
			<point x="302" y="510"/>
			<point x="284" y="527"/>
			<point x="263" y="527" type="curve" smooth="yes"/>
			<point x="187" y="527" type="line"/>
			<point x="187" y="567" type="line" smooth="yes"/>
			<point x="187" y="582"/>
			<point x="188" y="604"/>
		</contour>
	</outline>
</glyph>
<glyph name="uF2610" format="2">
	<advance width="887"/>
	<unicode hex="F2610"/>
	<outline>
		<contour>
			<point x="845" y="88"/>
			<point x="821" y="88" type="curve" smooth="yes"/>
			<point x="492" y="88" type="line"/>
			<point x="492" y="302" type="line"/>
			<point x="783" y="302" type="line" smooth="yes"/>
			<point x="807" y="302"/>
			<point x="827" y="321"/>
			<point x="827" y="346" type="curve" smooth="yes"/>
			<point x="827" y="370"/>
			<point x="807" y="389"/>
			<point x="783" y="389" type="curve" smooth="yes"/>
			<point x="492" y="389" type="line"/>
			<point x="492" y="603" type="line"/>
			<point x="811" y="603" type="line" smooth="yes"/>
			<point x="835" y="603"/>
			<point x="855" y="622"/>
			<point x="855" y="647" type="curve" smooth="yes"/>
			<point x="855" y="671"/>
			<point x="835" y="690"/>
			<point x="811" y="690" type="curve" smooth="yes"/>
			<point x="440" y="690" type="line" smooth="yes"/>
			<point x="403" y="690"/>
			<point x="382" y="669"/>
			<point x="382" y="632" type="curve" smooth="yes"/>
			<point x="382" y="58" type="line" smooth="yes"/>
			<point x="382" y="21"/>
			<point x="403" y="0"/>
			<point x="440" y="0" type="curve" smooth="yes"/>
			<point x="821" y="0" type="line" smooth="yes"/>
			<point x="845" y="0"/>
			<point x="865" y="20"/>
			<point x="865" y="44" type="curve" smooth="yes"/>
			<point x="865" y="68"/>
		</contour>
		<contour>
			<point x="210" y="179"/>
			<point x="210" y="209" type="curve" smooth="yes"/>
			<point x="210" y="641" type="line" smooth="yes"/>
			<point x="210" y="671"/>
			<point x="185" y="696"/>
			<point x="155" y="696" type="curve" smooth="yes"/>
			<point x="125" y="696"/>
			<point x="100" y="671"/>
			<point x="100" y="641" type="curve" smooth="yes"/>
			<point x="100" y="209" type="line" smooth="yes"/>
			<point x="100" y="179"/>
			<point x="125" y="154"/>
			<point x="155" y="154" type="curve" smooth="yes"/>
			<point x="185" y="154"/>
		</contour>
		<contour>
			<point x="119" y="752"/>
			<point x="151" y="744" type="curve" smooth="yes"/>
			<point x="181" y="736"/>
			<point x="211" y="760"/>
			<point x="211" y="791" type="curve" smooth="yes"/>
			<point x="211" y="832" type="line" smooth="yes"/>
			<point x="211" y="863"/>
			<point x="181" y="887"/>
			<point x="151" y="879" type="curve" smooth="yes"/>
			<point x="119" y="871"/>
			<point x="95" y="845"/>
			<point x="95" y="812" type="curve" smooth="yes"/>
			<point x="95" y="779"/>
		</contour>
	</outline>
</glyph>
<glyph name="uF3710" format="2">
	<advance width="919"/>
	<unicode hex="F3710"/>
	<outline>
		<contour>
			<point x="739" y="77" type="line"/>
			<point x="744" y="42" type="line" smooth="yes"/>
			<point x="747" y="16"/>
			<point x="770" y="-6"/>
			<point x="797" y="-6" type="curve" smooth="yes"/>
			<point x="829" y="-6"/>
			<point x="855" y="23"/>
			<point x="852" y="54" type="curve" smooth="yes"/>
			<point x="849" y="85"/>
			<point x="848" y="109"/>
			<point x="848" y="135" type="curve" smooth="yes"/>
			<point x="848" y="322" type="line" smooth="yes"/>
			<point x="848" y="347"/>
			<point x="847" y="375"/>
			<point x="845" y="397" type="curve" smooth="yes"/>
			<point x="836" y="487"/>
			<point x="782" y="545"/>
			<point x="645" y="545" type="curve" smooth="yes"/>
			<point x="583" y="545"/>
			<point x="530" y="528"/>
			<point x="492" y="495" type="curve"/>
			<point x="460" y="527"/>
			<point x="412" y="545"/>
			<point x="349" y="545" type="curve" smooth="yes"/>
			<point x="309" y="545"/>
			<point x="278" y="540"/>
			<point x="246" y="524" type="curve" smooth="yes"/>
			<point x="222" y="511"/>
			<point x="210" y="496"/>
			<point x="196" y="472" type="curve" smooth="yes"/>
			<point x="179" y="443" type="line"/>
			<point x="179" y="482" type="line" smooth="yes"/>
			<point x="179" y="512"/>
			<point x="154" y="537"/>
			<point x="124" y="537" type="curve" smooth="yes"/>
			<point x="94" y="537"/>
			<point x="69" y="512"/>
			<point x="69" y="482" type="curve" smooth="yes"/>
			<point x="69" y="50" type="line" smooth="yes"/>
			<point x="69" y="20"/>
			<point x="94" y="-6"/>
			<point x="124" y="-6" type="curve" smooth="yes"/>
			<point x="154" y="-6"/>
			<point x="179" y="20"/>
			<point x="179" y="50" type="curve" smooth="yes"/>
			<point x="179" y="238" type="line" smooth="yes"/>
			<point x="179" y="404"/>
			<point x="241" y="464"/>
			<point x="317" y="464" type="curve" smooth="yes"/>
			<point x="392" y="464"/>
			<point x="424" y="422"/>
			<point x="429" y="362" type="curve" smooth="yes"/>
			<point x="431" y="335"/>
			<point x="431" y="312"/>
			<point x="431" y="287" type="curve" smooth="yes"/>
			<point x="431" y="225" type="line"/>
			<point x="416" y="201"/>
			<point x="409" y="172"/>
			<point x="409" y="139" type="curve" smooth="yes"/>
			<point x="409" y="40"/>
			<point x="486" y="-14"/>
			<point x="580" y="-14" type="curve" smooth="yes"/>
			<point x="615" y="-14"/>
			<point x="648" y="-10"/>
			<point x="678" y="2" type="curve" smooth="yes"/>
			<point x="704" y="12"/>
			<point x="717" y="29"/>
			<point x="729" y="55" type="curve" smooth="yes"/>
		</contour>
		<contour>
			<point x="525" y="148" type="curve" smooth="yes"/>
			<point x="525" y="229"/>
			<point x="609" y="258"/>
			<point x="738" y="248" type="curve"/>
			<point x="738" y="199" type="line" smooth="yes"/>
			<point x="738" y="113"/>
			<point x="689" y="66"/>
			<point x="620" y="66" type="curve" smooth="yes"/>
			<point x="562" y="66"/>
			<point x="525" y="92"/>
		</contour>
		<contour>
			<point x="540" y="363" type="line" smooth="yes"/>
			<point x="540" y="429"/>
			<point x="579" y="465"/>
			<point x="643" y="465" type="curve" smooth="yes"/>
			<point x="706" y="465"/>
			<point x="733" y="435"/>
			<point x="736" y="392" type="curve" smooth="yes"/>
			<point x="738" y="372"/>
			<point x="738" y="354"/>
			<point x="738" y="334" type="curve" smooth="yes"/>
			<point x="738" y="321" type="line"/>
			<point x="704" y="321" type="line" smooth="yes"/>
			<point x="638" y="321"/>
			<point x="584" y="314"/>
			<point x="541" y="301" type="curve"/>
		</contour>
	</outline>
</glyph>
<glyph name="uF4110" format="2">
	<advance width="1253"/>
	<unicode hex="F4110"/>
	<outline>
		<contour>
			<point x="358" y="545" type="curve" smooth="yes"/>
			<point x="316" y="545"/>
			<point x="274" y="536"/>
			<point x="243" y="520" type="curve" smooth="yes"/>
			<point x="224" y="511"/>
			<point x="213" y="496"/>
			<point x="198" y="475" type="curve" smooth="yes"/>
			<point x="179" y="448" type="line"/>
			<point x="179" y="482" type="line" smooth="yes"/>
			<point x="179" y="512"/>
			<point x="154" y="537"/>
			<point x="124" y="537" type="curve" smooth="yes"/>
			<point x="94" y="537"/>
			<point x="69" y="512"/>
			<point x="69" y="482" type="curve" smooth="yes"/>
			<point x="69" y="-146" type="line" smooth="yes"/>
			<point x="69" y="-176"/>
			<point x="94" y="-202"/>
			<point x="124" y="-202" type="curve" smooth="yes"/>
			<point x="154" y="-202"/>
			<point x="179" y="-176"/>
			<point x="179" y="-146" type="curve" smooth="yes"/>
			<point x="179" y="72" type="line"/>
			<point x="197" y="46" type="line" smooth="yes"/>
			<point x="210" y="26"/>
			<point x="221" y="12"/>
			<point x="246" y="2" type="curve" smooth="yes"/>
			<point x="274" y="-8"/>
			<point x="310" y="-14"/>
			<point x="340" y="-14" type="curve" smooth="yes"/>
			<point x="477" y="-14"/>
			<point x="597" y="80"/>
			<point x="597" y="275" type="curve" smooth="yes"/>
			<point x="597" y="324"/>
			<point x="588" y="369"/>
			<point x="572" y="407" type="curve"/>
			<point x="590" y="447"/>
			<point x="620" y="464"/>
			<point x="656" y="464" type="curve" smooth="yes"/>
			<point x="713" y="464"/>
			<point x="747" y="434"/>
			<point x="755" y="377" type="curve" smooth="yes"/>
			<point x="758" y="350"/>
			<point x="759" y="321"/>
			<point x="759" y="281" type="curve" smooth="yes"/>
			<point x="759" y="49" type="line" smooth="yes"/>
			<point x="759" y="19"/>
			<point x="783" y="-6"/>
			<point x="814" y="-6" type="curve" smooth="yes"/>
			<point x="844" y="-6"/>
			<point x="868" y="19"/>
			<point x="868" y="49" type="curve" smooth="yes"/>
			<point x="868" y="267" type="line" smooth="yes"/>
			<point x="868" y="411"/>
			<point x="911" y="464"/>
			<point x="975" y="464" type="curve" smooth="yes"/>
			<point x="1032" y="464"/>
			<point x="1067" y="434"/>
			<point x="1074" y="377" type="curve" smooth="yes"/>
			<point x="1077" y="350"/>
			<point x="1078" y="321"/>
			<point x="1078" y="281" type="curve" smooth="yes"/>
			<point x="1078" y="50" type="line" smooth="yes"/>
			<point x="1078" y="20"/>
			<point x="1103" y="-6"/>
			<point x="1133" y="-6" type="curve" smooth="yes"/>
			<point x="1163" y="-6"/>
			<point x="1188" y="20"/>
			<point x="1188" y="50" type="curve" smooth="yes"/>
			<point x="1188" y="321" type="line" smooth="yes"/>
			<point x="1188" y="364"/>
			<point x="1187" y="388"/>
			<point x="1183" y="415" type="curve" smooth="yes"/>
			<point x="1171" y="488"/>
			<point x="1115" y="545"/>
			<point x="1017" y="545" type="curve" smooth="yes"/>
			<point x="986" y="545"/>
			<point x="959" y="541"/>
			<point x="936" y="532" type="curve" smooth="yes"/>
			<point x="911" y="522"/>
			<point x="898" y="506"/>
			<point x="883" y="484" type="curve" smooth="yes"/>
			<point x="855" y="444" type="line"/>
			<point x="835" y="503"/>
			<point x="782" y="545"/>
			<point x="698" y="545" type="curve" smooth="yes"/>
			<point x="667" y="545"/>
			<point x="640" y="541"/>
			<point x="617" y="532" type="curve" smooth="yes"/>
			<point x="592" y="522"/>
			<point x="579" y="505"/>
			<point x="566" y="482" type="curve" smooth="yes"/>
			<point x="549" y="452" type="line"/>
			<point x="549" y="449" type="line"/>
			<point x="509" y="509"/>
			<point x="444" y="545"/>
		</contour>
		<contour>
			<point x="179" y="244" type="curve" smooth="yes"/>
			<point x="179" y="271" type="line" smooth="yes"/>
			<point x="179" y="413"/>
			<point x="250" y="465"/>
			<point x="332" y="465" type="curve" smooth="yes"/>
			<point x="428" y="465"/>
			<point x="481" y="380"/>
			<point x="481" y="265" type="curve" smooth="yes"/>
			<point x="481" y="133"/>
			<point x="415" y="66"/>
			<point x="327" y="66" type="curve" smooth="yes"/>
			<point x="257" y="66"/>
			<point x="179" y="114"/>
		</contour>
	</outline>
</glyph>
<glyph name="uF4590" format="2">
	<advance width="1320"/>
	<unicode hex="F4590"/>
	<outline>
		<contour>
			<point x="306" y="544" type="curve" smooth="yes"/>
			<point x="291" y="544"/>
			<point x="274" y="540"/>
			<point x="258" y="534" type="curve" smooth="yes"/>
			<point x="231" y="523"/>
			<point x="219" y="506"/>
			<point x="205" y="483" type="curve" smooth="yes"/>
			<point x="179" y="441" type="line"/>
			<point x="179" y="482" type="line" smooth="yes"/>
			<point x="179" y="512"/>
			<point x="154" y="537"/>
			<point x="124" y="537" type="curve" smooth="yes"/>
			<point x="94" y="537"/>
			<point x="69" y="512"/>
			<point x="69" y="482" type="curve" smooth="yes"/>
			<point x="69" y="50" type="line" smooth="yes"/>
			<point x="69" y="20"/>
			<point x="94" y="-6"/>
			<point x="124" y="-6" type="curve" smooth="yes"/>
			<point x="154" y="-6"/>
			<point x="179" y="20"/>
			<point x="179" y="50" type="curve" smooth="yes"/>
			<point x="179" y="276" type="line" smooth="yes"/>
			<point x="179" y="389"/>
			<point x="226" y="443"/>
			<point x="307" y="451" type="curve" smooth="yes"/>
			<point x="330" y="453"/>
			<point x="349" y="474"/>
			<point x="349" y="498" type="curve" smooth="yes"/>
			<point x="349" y="522"/>
			<point x="329" y="542"/>
		</contour>
		<contour>
			<point x="388" y="593"/>
			<point x="420" y="585" type="curve" smooth="yes"/>
			<point x="450" y="577"/>
			<point x="480" y="601"/>
			<point x="480" y="632" type="curve" smooth="yes"/>
			<point x="480" y="673" type="line" smooth="yes"/>
			<point x="480" y="704"/>
			<point x="450" y="728"/>
			<point x="420" y="720" type="curve" smooth="yes"/>
			<point x="388" y="712"/>
			<point x="364" y="686"/>
			<point x="364" y="653" type="curve" smooth="yes"/>
			<point x="364" y="620"/>
		</contour>
		<contour>
			<point x="670" y="545" type="curve" smooth="yes"/>
			<point x="531" y="545"/>
			<point x="413" y="444"/>
			<point x="413" y="263" type="curve" smooth="yes"/>
			<point x="413" y="74"/>
			<point x="518" y="-14"/>
			<point x="657" y="-14" type="curve" smooth="yes"/>
			<point x="755" y="-14"/>
			<point x="833" y="25"/>
			<point x="874" y="105" type="curve" smooth="yes"/>
			<point x="878" y="113"/>
			<point x="879" y="120"/>
			<point x="879" y="129" type="curve" smooth="yes"/>
			<point x="879" y="158"/>
			<point x="856" y="182"/>
			<point x="826" y="182" type="curve" smooth="yes"/>
			<point x="804" y="182"/>
			<point x="784" y="168"/>
			<point x="777" y="148" type="curve" smooth="yes"/>
			<point x="756" y="93"/>
			<point x="716" y="66"/>
			<point x="663" y="66" type="curve" smooth="yes"/>
			<point x="589" y="66"/>
			<point x="529" y="127"/>
			<point x="529" y="271" type="curve" smooth="yes"/>
			<point x="529" y="404"/>
			<point x="590" y="465"/>
			<point x="667" y="465" type="curve" smooth="yes"/>
			<point x="722" y="465"/>
			<point x="761" y="439"/>
			<point x="782" y="378" type="curve" smooth="yes"/>
			<point x="789" y="356"/>
			<point x="809" y="341"/>
			<point x="833" y="341" type="curve" smooth="yes"/>
			<point x="863" y="341"/>
			<point x="887" y="365"/>
			<point x="887" y="395" type="curve" smooth="yes"/>
			<point x="887" y="403"/>
			<point x="886" y="411"/>
			<point x="883" y="417" type="curve" smooth="yes"/>
			<point x="849" y="496"/>
			<point x="774" y="545"/>
		</contour>
		<contour>
			<point x="1284" y="391" type="curve" smooth="yes"/>
			<point x="1284" y="541"/>
			<point x="1201" y="657"/>
			<point x="1047" y="657" type="curve" smooth="yes"/>
			<point x="911" y="657"/>
			<point x="811" y="567"/>
			<point x="791" y="429" type="curve" smooth="yes"/>
			<point x="786" y="394"/>
			<point x="804" y="372"/>
			<point x="838" y="363" type="curve" smooth="yes"/>
			<point x="867" y="356" type="line" smooth="yes"/>
			<point x="893" y="349"/>
			<point x="911" y="347"/>
			<point x="937" y="347" type="curve" smooth="yes"/>
			<point x="1225" y="347" type="line" smooth="yes"/>
			<point x="1262" y="347"/>
			<point x="1284" y="391"/>
		</contour>
		<contour>
			<point x="1043" y="577" type="curve" smooth="yes"/>
			<point x="1120" y="577"/>
			<point x="1163" y="522"/>
			<point x="1171" y="424" type="curve"/>
			<point x="902" y="424" type="line"/>
			<point x="914" y="526"/>
			<point x="968" y="577"/>
		</contour>
	</outline>
</glyph>
<glyph name="uF45C0" format="2">
	<advance width="522"/>
	<unicode hex="F45C0"/>
	<outline>
		<contour>
			<point x="306" y="544" type="curve" smooth="yes"/>
			<point x="291" y="544"/>
			<point x="274" y="540"/>
			<point x="258" y="534" type="curve" smooth="yes"/>
			<point x="231" y="523"/>
			<point x="219" y="506"/>
			<point x="205" y="483" type="curve" smooth="yes"/>
			<point x="179" y="441" type="line"/>
			<point x="179" y="482" type="line" smooth="yes"/>
			<point x="179" y="512"/>
			<point x="154" y="537"/>
			<point x="124" y="537" type="curve" smooth="yes"/>
			<point x="94" y="537"/>
			<point x="69" y="512"/>
			<point x="69" y="482" type="curve" smooth="yes"/>
			<point x="69" y="0" type="line"/>
			<point x="84" y="-120"/>
			<point x="171" y="-173"/>
			<point x="289" y="-173" type="curve" smooth="yes"/>
			<point x="405" y="-173"/>
			<point x="496" y="-122"/>
			<point x="496" y="-19" type="curve" smooth="yes"/>
			<point x="496" y="75"/>
			<point x="435" y="121"/>
			<point x="319" y="151" type="curve" smooth="yes"/>
			<point x="240" y="172"/>
			<point x="201" y="192"/>
			<point x="201" y="240" type="curve" smooth="yes"/>
			<point x="201" y="280"/>
			<point x="226" y="309"/>
			<point x="278" y="309" type="curve" smooth="yes"/>
			<point x="321" y="309"/>
			<point x="351" y="288"/>
			<point x="367" y="248" type="curve" smooth="yes"/>
			<point x="375" y="229"/>
			<point x="394" y="214"/>
			<point x="416" y="214" type="curve" smooth="yes"/>
			<point x="446" y="214"/>
			<point x="470" y="238"/>
			<point x="470" y="268" type="curve" smooth="yes"/>
			<point x="470" y="277"/>
			<point x="468" y="287"/>
			<point x="464" y="294" type="curve" smooth="yes"/>
			<point x="433" y="351"/>
			<point x="373" y="386"/>
			<point x="286" y="386" type="curve" smooth="yes"/>
			<point x="252" y="386"/>
			<point x="221" y="381"/>
			<point x="195" y="371" type="curve"/>
			<point x="214" y="420"/>
			<point x="253" y="446"/>
			<point x="307" y="451" type="curve" smooth="yes"/>
			<point x="330" y="453"/>
			<point x="349" y="474"/>
			<point x="349" y="498" type="curve" smooth="yes"/>
			<point x="349" y="522"/>
			<point x="329" y="542"/>
		</contour>
		<contour>
			<point x="179" y="0" type="line"/>
			<point x="179" y="96" type="line"/>
			<point x="202" y="85"/>
			<point x="230" y="76"/>
			<point x="259" y="68" type="curve" smooth="yes"/>
			<point x="349" y="44"/>
			<point x="385" y="19"/>
			<point x="385" y="-27" type="curve" smooth="yes"/>
			<point x="385" y="-73"/>
			<point x="344" y="-95"/>
			<point x="293" y="-95" type="curve" smooth="yes"/>
			<point x="238" y="-95"/>
			<point x="193" y="-68"/>
			<point x="180" y="0" type="curve"/>
		</contour>
	</outline>
</glyph>
<glyph name="uF46A0" format="2">
	<advance width="1345"/>
	<unicode hex="F46A0"/>
	<outline>
		<contour>
			<point x="316" y="704" type="curve" smooth="yes"/>
			<point x="187" y="704"/>
			<point x="78" y="629"/>
			<point x="78" y="507" type="curve" smooth="yes"/>
			<point x="78" y="387"/>
			<point x="165" y="338"/>
			<point x="296" y="307" type="curve" smooth="yes"/>
			<point x="408" y="281"/>
			<point x="450" y="244"/>
			<point x="450" y="172" type="curve" smooth="yes"/>
			<point x="450" y="109"/>
			<point x="393" y="70"/>
			<point x="321" y="70" type="curve" smooth="yes"/>
			<point x="252" y="70"/>
			<point x="198" y="103"/>
			<point x="172" y="169" type="curve" smooth="yes"/>
			<point x="164" y="191"/>
			<point x="144" y="206"/>
			<point x="119" y="206" type="curve" smooth="yes"/>
			<point x="88" y="206"/>
			<point x="63" y="180"/>
			<point x="63" y="149" type="curve" smooth="yes"/>
			<point x="63" y="141"/>
			<point x="63" y="134"/>
			<point x="66" y="128" type="curve" smooth="yes"/>
			<point x="104" y="34"/>
			<point x="194" y="-14"/>
			<point x="321" y="-14" type="curve" smooth="yes"/>
			<point x="455" y="-14"/>
			<point x="566" y="62"/>
			<point x="566" y="187" type="curve" smooth="yes"/>
			<point x="566" y="302"/>
			<point x="494" y="367"/>
			<point x="342" y="402" type="curve" smooth="yes"/>
			<point x="235" y="427"/>
			<point x="194" y="458"/>
			<point x="194" y="525" type="curve" smooth="yes"/>
			<point x="194" y="590"/>
			<point x="245" y="620"/>
			<point x="310" y="620" type="curve" smooth="yes"/>
			<point x="390" y="620"/>
			<point x="436" y="573"/>
			<point x="444" y="494" type="curve" smooth="yes"/>
			<point x="458" y="355"/>
			<point x="559" y="280"/>
			<point x="717" y="280" type="curve" smooth="yes"/>
			<point x="763" y="280"/>
			<point x="805" y="289"/>
			<point x="840" y="306" type="curve"/>
			<point x="840" y="159" type="line" smooth="yes"/>
			<point x="840" y="122"/>
			<point x="861" y="101"/>
			<point x="898" y="101" type="curve" smooth="yes"/>
			<point x="1279" y="101" type="line" smooth="yes"/>
			<point x="1303" y="101"/>
			<point x="1323" y="121"/>
			<point x="1323" y="145" type="curve" smooth="yes"/>
			<point x="1323" y="169"/>
			<point x="1303" y="189"/>
			<point x="1279" y="189" type="curve" smooth="yes"/>
			<point x="950" y="189" type="line"/>
			<point x="950" y="403" type="line"/>
			<point x="1241" y="403" type="line" smooth="yes"/>
			<point x="1265" y="403"/>
			<point x="1285" y="422"/>
			<point x="1285" y="447" type="curve" smooth="yes"/>
			<point x="1285" y="471"/>
			<point x="1265" y="490"/>
			<point x="1241" y="490" type="curve" smooth="yes"/>
			<point x="950" y="490" type="line"/>
			<point x="950" y="704" type="line"/>
			<point x="1269" y="704" type="line" smooth="yes"/>
			<point x="1293" y="704"/>
			<point x="1313" y="723"/>
			<point x="1313" y="748" type="curve" smooth="yes"/>
			<point x="1313" y="772"/>
			<point x="1293" y="791"/>
			<point x="1269" y="791" type="curve" smooth="yes"/>
			<point x="954" y="791" type="line"/>
			<point x="939" y="909"/>
			<point x="864" y="998"/>
			<point x="712" y="998" type="curve" smooth="yes"/>
			<point x="583" y="998"/>
			<point x="474" y="923"/>
			<point x="474" y="801" type="curve" smooth="yes"/>
			<point x="474" y="681"/>
			<point x="561" y="632"/>
			<point x="692" y="601" type="curve" smooth="yes"/>
			<point x="804" y="575"/>
			<point x="832" y="538"/>
			<point x="832" y="466" type="curve" smooth="yes"/>
			<point x="832" y="403"/>
			<point x="789" y="364"/>
			<point x="717" y="364" type="curve" smooth="yes"/>
			<point x="636" y="364"/>
			<point x="576" y="409"/>
			<point x="558" y="494" type="curve"/>
			<point x="544" y="614"/>
			<point x="469" y="704"/>
		</contour>
		<contour>
			<point x="590" y="819" type="curve" smooth="yes"/>
			<point x="590" y="884"/>
			<point x="641" y="914"/>
			<point x="706" y="914" type="curve" smooth="yes"/>
			<point x="786" y="914"/>
			<point x="832" y="867"/>
			<point x="840" y="788" type="curve"/>
			<point x="840" y="661" type="line"/>
			<point x="812" y="675"/>
			<point x="778" y="687"/>
			<point x="738" y="696" type="curve" smooth="yes"/>
			<point x="631" y="721"/>
			<point x="590" y="752"/>
		</contour>
	</outline>
</glyph>
